<mxfile host="Electron" agent="Mozilla/5.0 (Macintosh; Intel Mac OS X 10_15_7) AppleWebKit/537.36 (KHTML, like Gecko) draw.io/27.0.9 Chrome/134.0.6998.205 Electron/35.4.0 Safari/537.36" version="27.0.9">
  <diagram name="Page-1" id="2ixtI1vo1mqRJR3TT_WA">
    <mxGraphModel dx="1116" dy="855" grid="1" gridSize="10" guides="1" tooltips="1" connect="1" arrows="1" fold="1" page="1" pageScale="1" pageWidth="850" pageHeight="1100" math="0" shadow="0">
      <root>
        <mxCell id="0" />
        <mxCell id="1" parent="0" />
        <mxCell id="k-FW7ElJ1eN7muQu-FQ2-1" value="" style="aspect=fixed;sketch=0;html=1;dashed=0;whitespace=wrap;verticalLabelPosition=bottom;verticalAlign=top;fillColor=#2875E2;strokeColor=#ffffff;points=[[0.005,0.63,0],[0.1,0.2,0],[0.9,0.2,0],[0.5,0,0],[0.995,0.63,0],[0.72,0.99,0],[0.5,1,0],[0.28,0.99,0]];shape=mxgraph.kubernetes.icon2;kubernetesLabel=1;prIcon=pod" parent="1" vertex="1">
          <mxGeometry x="121" y="307.28" width="93.75" height="90" as="geometry" />
        </mxCell>
        <mxCell id="k-FW7ElJ1eN7muQu-FQ2-2" value="" style="aspect=fixed;sketch=0;html=1;dashed=0;whitespace=wrap;verticalLabelPosition=bottom;verticalAlign=top;fillColor=#2875E2;strokeColor=#ffffff;points=[[0.005,0.63,0],[0.1,0.2,0],[0.9,0.2,0],[0.5,0,0],[0.995,0.63,0],[0.72,0.99,0],[0.5,1,0],[0.28,0.99,0]];shape=mxgraph.kubernetes.icon2;kubernetesLabel=1;prIcon=pod" parent="1" vertex="1">
          <mxGeometry x="115" y="304.28" width="93.75" height="90" as="geometry" />
        </mxCell>
        <mxCell id="k-FW7ElJ1eN7muQu-FQ2-7" style="edgeStyle=orthogonalEdgeStyle;rounded=0;orthogonalLoop=1;jettySize=auto;html=1;exitX=-0.041;exitY=0.601;exitDx=0;exitDy=0;entryX=0.995;entryY=0.63;entryDx=0;entryDy=0;entryPerimeter=0;startArrow=classic;startFill=0;endArrow=none;exitPerimeter=0;" parent="1" source="k-FW7ElJ1eN7muQu-FQ2-11" target="k-FW7ElJ1eN7muQu-FQ2-4" edge="1">
          <mxGeometry relative="1" as="geometry" />
        </mxCell>
        <mxCell id="k-FW7ElJ1eN7muQu-FQ2-8" style="edgeStyle=orthogonalEdgeStyle;rounded=0;orthogonalLoop=1;jettySize=auto;html=1;exitX=0.995;exitY=0.63;exitDx=0;exitDy=0;exitPerimeter=0;entryX=0.005;entryY=0.63;entryDx=0;entryDy=0;entryPerimeter=0;" parent="1" source="k-FW7ElJ1eN7muQu-FQ2-13" target="k-FW7ElJ1eN7muQu-FQ2-5" edge="1">
          <mxGeometry relative="1" as="geometry" />
        </mxCell>
        <object label="Metrics / s" id="metrics-per-sec">
          <mxCell style="edgeLabel;html=1;align=center;verticalAlign=middle;resizable=0;points=[];" parent="k-FW7ElJ1eN7muQu-FQ2-8" vertex="1" connectable="0">
            <mxGeometry x="-0.0045" y="-1" relative="1" as="geometry">
              <mxPoint as="offset" />
            </mxGeometry>
          </mxCell>
        </object>
        <mxCell id="k-FW7ElJ1eN7muQu-FQ2-10" value="" style="group" parent="1" vertex="1" connectable="0">
          <mxGeometry x="610" y="316.69000000000005" width="73.12" height="82" as="geometry" />
        </mxCell>
        <mxCell id="k-FW7ElJ1eN7muQu-FQ2-11" value="" style="shape=datastore;whiteSpace=wrap;html=1;container=0;" parent="k-FW7ElJ1eN7muQu-FQ2-10" vertex="1">
          <mxGeometry width="73.12" height="82" as="geometry" />
        </mxCell>
        <mxCell id="k-FW7ElJ1eN7muQu-FQ2-12" value="influxdb-local" style="shape=image;verticalLabelPosition=bottom;labelBackgroundColor=default;verticalAlign=top;aspect=fixed;imageAspect=0;image=data:image/png,iVBORw0KGgoAAAANSUhEUgAAAb0AAAG7CAYAAABXd0tZAAAMS2lDQ1BJQ0MgUHJvZmlsZQAASImVVwdYU8kWnltSIQQIREBK6E0QkRJASggtgPQiiEpIAoQSY0JQsaOLCq5dRLCiqyCKHRCxYVcWxe5aFgsqK+tiwa68CQF02Ve+N983d/77z5l/zjl35t47ANDb+VJpDqoJQK4kTxYT7M8al5TMInUCAjAEZOAJAF8gl3KiosIBLAPt38u7mwBRttcclFr/7P+vRUsokgsAQKIgThPKBbkQHwQAbxJIZXkAEKWQN5+aJ1Xi1RDryKCDEFcpcYYKNylxmgpf6bOJi+FC/AQAsjqfL8sAQKMb8qx8QQbUocNogZNEKJZA7AexT27uZCHEcyG2gTZwTrpSn532g07G3zTTBjX5/IxBrIqlr5ADxHJpDn/6/5mO/11ycxQDc1jDqp4pC4lRxgzz9iR7cpgSq0P8QZIWEQmxNgAoLhb22SsxM1MREq+yR20Eci7MGWBCPEaeE8vr52OE/IAwiA0hTpfkRIT32xSmi4OUNjB/aJk4jxcHsR7EVSJ5YGy/zQnZ5JiBeW+my7icfv45X9bng1L/myI7nqPSx7QzRbx+fcyxIDMuEWIqxAH54oQIiDUgjpBnx4b126QUZHIjBmxkihhlLBYQy0SSYH+VPlaaLguK6bffmSsfiB07kSnmRfTjq3mZcSGqXGFPBPw+/2EsWLdIwokf0BHJx4UPxCIUBQSqYsfJIkl8rIrH9aR5/jGqsbidNCeq3x73F+UEK3kziOPk+bEDY/Pz4OJU6eNF0ryoOJWfeHkWPzRK5Q++F4QDLggALKCANQ1MBllA3NpV3wXvVD1BgA9kIAOIgEM/MzAisa9HAq+xoAD8CZEIyAfH+ff1ikA+5L8OYZWceJBTXR1Aen+fUiUbPIU4F4SBHHiv6FOSDHqQAJ5ARvwPj/iwCmAMObAq+/89P8B+ZziQCe9nFAMzsugDlsRAYgAxhBhEtMUNcB/cCw+HVz9YnXE27jEQx3d7wlNCG+ER4QahnXBnkrhQNsTLsaAd6gf15yftx/zgVlDTFffHvaE6VMaZuAFwwF3gPBzcF87sClluv9/KrLCGaP8tgh+eUL8dxYmCUoZR/Cg2Q0dq2Gm4Dqooc/1jflS+pg3mmzvYM3R+7g/ZF8I2bKgltgg7gJ3DTmIXsCasHrCw41gD1oIdVeLBFfekb8UNzBbT50821Bm6Zr4/WWUm5U41Tp1OX1R9eaJpecrNyJ0snS4TZ2TmsTjwiyFi8SQCxxEsZydnVwCU3x/V6+1NdN93BWG2fOfm/w6A9/He3t4j37nQ4wDsc4evhMPfORs2/LSoAXD+sEAhy1dxuPJCgG8OOtx9+sAYmAMbGI8zcANewA8EglAQCeJAEpgIvc+E61wGpoKZYB4oAiVgOVgDysEmsBVUgd1gP6gHTeAkOAsugSvgBrgLV08HeAG6wTvwGUEQEkJDGIg+YoJYIvaIM8JGfJBAJByJQZKQVCQDkSAKZCYyHylBViLlyBakGtmHHEZOIheQNuQO8hDpRF4jn1AMVUd1UCPUCh2JslEOGobGoRPQDHQKWoAuQJeiZWglugutQ0+il9AbaDv6Au3BAKaGMTFTzAFjY1wsEkvG0jEZNhsrxkqxSqwWa4TP+RrWjnVhH3EizsBZuANcwSF4PC7Ap+Cz8SV4OV6F1+Gn8Wv4Q7wb/0agEQwJ9gRPAo8wjpBBmEooIpQSthMOEc7AvdRBeEckEplEa6I73ItJxCziDOIS4gbiHuIJYhvxMbGHRCLpk+xJ3qRIEp+URyoirSPtIh0nXSV1kD6Q1cgmZGdyEDmZLCEXkkvJO8nHyFfJz8ifKZoUS4onJZIipEynLKNsozRSLlM6KJ+pWlRrqjc1jppFnUcto9ZSz1DvUd+oqamZqXmoRauJ1eaqlantVTuv9lDto7q2up06Vz1FXaG+VH2H+gn1O+pvaDSaFc2PlkzLoy2lVdNO0R7QPmgwNBw1eBpCjTkaFRp1Glc1XtIpdEs6hz6RXkAvpR+gX6Z3aVI0rTS5mnzN2ZoVmoc1b2n2aDG0RmlFauVqLdHaqXVB67k2SdtKO1BbqL1Ae6v2Ke3HDIxhzuAyBIz5jG2MM4wOHaKOtQ5PJ0unRGe3TqtOt662rotugu403Qrdo7rtTIxpxeQxc5jLmPuZN5mfhhkN4wwTDVs8rHbY1WHv9Ybr+emJ9Ir19ujd0Pukz9IP1M/WX6Ffr3/fADewM4g2mGqw0eCMQddwneFewwXDi4fvH/6bIWpoZxhjOMNwq2GLYY+RsVGwkdRondEpoy5jprGfcZbxauNjxp0mDBMfE7HJapPjJn+wdFkcVg6rjHWa1W1qaBpiqjDdYtpq+tnM2izerNBsj9l9c6o52zzdfLV5s3m3hYnFWIuZFjUWv1lSLNmWmZZrLc9Zvreytkq0WmhVb/XcWs+aZ11gXWN9z4Zm42szxabS5rot0ZZtm227wfaKHWrnapdpV2F32R61d7MX22+wbxtBGOExQjKicsQtB3UHjkO+Q43DQ0emY7hjoWO948uRFiOTR64YeW7kNydXpxynbU53R2mPCh1VOKpx1GtnO2eBc4Xz9dG00UGj54xuGP3Kxd5F5LLR5bYrw3Ws60LXZtevbu5uMrdat053C/dU9/Xut9g67Cj2EvZ5D4KHv8ccjyaPj55unnme+z3/8nLwyvba6fV8jPUY0ZhtYx57m3nzvbd4t/uwfFJ9Nvu0+5r68n0rfR/5mfsJ/bb7PePYcrI4uzgv/Z38Zf6H/N9zPbmzuCcCsIDggOKA1kDtwPjA8sAHQWZBGUE1Qd3BrsEzgk+EEELCQlaE3OIZ8QS8al53qHvorNDTYephsWHlYY/C7cJl4Y1j0bGhY1eNvRdhGSGJqI8EkbzIVZH3o6yjpkQdiSZGR0VXRD+NGRUzM+ZcLCN2UuzO2Hdx/nHL4u7G28Qr4psT6AkpCdUJ7xMDElcmto8bOW7WuEtJBknipIZkUnJC8vbknvGB49eM70hxTSlKuTnBesK0CRcmGkzMmXh0En0Sf9KBVEJqYurO1C/8SH4lvyeNl7Y+rVvAFawVvBD6CVcLO0XeopWiZ+ne6SvTn2d4Z6zK6Mz0zSzN7BJzxeXiV1khWZuy3mdHZu/I7s1JzNmTS85NzT0s0ZZkS05PNp48bXKb1F5aJG2f4jllzZRuWZhsuxyRT5A35OnAH/0WhY3iJ8XDfJ/8ivwPUxOmHpimNU0yrWW63fTF058VBBX8MgOfIZjRPNN05ryZD2dxZm2ZjcxOm908x3zOgjkdc4PnVs2jzsue92uhU+HKwrfzE+c3LjBaMHfB45+Cf6op0iiSFd1a6LVw0yJ8kXhR6+LRi9ct/lYsLL5Y4lRSWvJliWDJxZ9H/Vz2c+/S9KWty9yWbVxOXC5ZfnOF74qqlVorC1Y+XjV2Vd1q1uri1W/XTFpzodSldNNa6lrF2vay8LKGdRbrlq/7Up5ZfqPCv2LPesP1i9e/3yDccHWj38baTUabSjZ92izefHtL8Ja6SqvK0q3Erflbn25L2HbuF/Yv1dsNtpds/7pDsqO9KqbqdLV7dfVOw53LatAaRU3nrpRdV3YH7G6odajdsoe5p2Qv2KvY+8e+1H0394ftbz7APlB70PLg+kOMQ8V1SN30uu76zPr2hqSGtsOhh5sbvRoPHXE8sqPJtKniqO7RZceoxxYc6z1ecLznhPRE18mMk4+bJzXfPTXu1PXT0adbz4SdOX826Oypc5xzx897n2+64Hnh8EX2xfpLbpfqWlxbDv3q+uuhVrfWusvulxuueFxpbBvTduyq79WT1wKunb3Ou37pRsSNtpvxN2/fSrnVflt4+/mdnDuvfsv/7fPdufcI94rva94vfWD4oPJ329/3tLu1H30Y8LDlUeyju48Fj188kT/50rHgKe1p6TOTZ9XPnZ83dQZ1Xvlj/B8dL6QvPncV/an15/qXNi8P/uX3V0v3uO6OV7JXva+XvNF/s+Oty9vmnqieB+9y331+X/xB/0PVR/bHc58SPz37PPUL6UvZV9uvjd/Cvt3rze3tlfJl/L5fAQwojzbpALzeAQAtCQAGPDdSx6vOh30FUZ1p+xD4T1h1huwrbgDUwn/66C74d3MLgL3bALCC+vQUAKJoAMR5AHT06ME6cJbrO3cqCxGeDTYnfU3LTQP/pqjOpD/4PbQFSlUXMLT9F8WngyBMewIsAAAAVmVYSWZNTQAqAAAACAABh2kABAAAAAEAAAAaAAAAAAADkoYABwAAABIAAABEoAIABAAAAAEAAAG9oAMABAAAAAEAAAG7AAAAAEFTQ0lJAAAAU2NyZWVuc2hvdFyF4NIAAAHWaVRYdFhNTDpjb20uYWRvYmUueG1wAAAAAAA8eDp4bXBtZXRhIHhtbG5zOng9ImFkb2JlOm5zOm1ldGEvIiB4OnhtcHRrPSJYTVAgQ29yZSA2LjAuMCI+CiAgIDxyZGY6UkRGIHhtbG5zOnJkZj0iaHR0cDovL3d3dy53My5vcmcvMTk5OS8wMi8yMi1yZGYtc3ludGF4LW5zIyI+CiAgICAgIDxyZGY6RGVzY3JpcHRpb24gcmRmOmFib3V0PSIiCiAgICAgICAgICAgIHhtbG5zOmV4aWY9Imh0dHA6Ly9ucy5hZG9iZS5jb20vZXhpZi8xLjAvIj4KICAgICAgICAgPGV4aWY6UGl4ZWxZRGltZW5zaW9uPjQ0MzwvZXhpZjpQaXhlbFlEaW1lbnNpb24+CiAgICAgICAgIDxleGlmOlBpeGVsWERpbWVuc2lvbj40NDU8L2V4aWY6UGl4ZWxYRGltZW5zaW9uPgogICAgICAgICA8ZXhpZjpVc2VyQ29tbWVudD5TY3JlZW5zaG90PC9leGlmOlVzZXJDb21tZW50PgogICAgICA8L3JkZjpEZXNjcmlwdGlvbj4KICAgPC9yZGY6UkRGPgo8L3g6eG1wbWV0YT4KxzpSCQAAQABJREFUeAHtfQecVcX1/8D2AkjvSJcqXQEbmp6oSX7pv3RN/onpxWiMIip2Te/GGNMT0xNj/CVGsYAFkCYdpINIE9i3u293gf/53seTZXm7e2duOzP3nM/nssvbW2a+M++emVO+p8MxEiUiCAgCgoAgIAikAIGOKeijdFEQEAQEAUFAEPAQEKUnE0EQEAQEAUEgNQiI0kvNUEtHBQFBQBAQBETpyRwQBAQBQUAQSA0CovRSM9TSUUFAEBAEBAFRejIHBAFBQBAQBFKDgCi91Ay1dFQQEAQEAUFAlJ7MAUFAEBAEBIHUIFCcmp5KR51A4HDDMfVSzVG1O3NU1TYeU/VNx1SWDqU6qI4dlCotUqqqtIPqXtFRDercUXWlnyKCgCAgCOQREKWXR0J+skMAqmzD/iNq1Z4mtXpvk1q374g6lNUjEOrfqaM6e0CJmtavRA3vVkSqUUQQEATSjEAHoSFL8/Dz7PtaUm7ztzaoZ3c2qn21ekqurR51q+igpvYtUVP7l6jxvYpViWwC24JL/iYIOImAKD0nh9W+TjUcUeqJLQ3q4Y0NavMr9J+IpaKkg5rYu9jbAU7uW6yqySQqIggIAu4jIErP/TFm3cOmo0o9sqlB/Xl1vdpfF96uTqfTRbTjG90DCjCnBHtVyRZQBz85VxCwCQFRejaNlmNtfX5Xk7p3SZ16mYJSuEgH2vAN6lL0qgIc2lX8gFzGRtohCISBgCi9MFCUe2ghcJCCUX5Kym7Btkat65I4uXtlzg+IQJhx5Acslk1gEsMgzxQEQkNAlF5oUMqN/CCweu8R9a1nMmpfQqZMP21s7ZxK+AH7nPADVtH/RQQBQcAuBETp2TVeVrf2/yhI5b6ldeoIH2umMZ7Y8Y3pmVOAU8kX2LNStoDGYMqFgkCMCIjSixHsND/qj6uz6vcr69WxZGJVIoUefsDBp53wAw6h30UEAUGAJwKi9HiOizOtgo77xbJ69Y91WWf61F5HsOvD7g9+QOwGxQ/YHmLyd0EgPgRE6cWHdeqedJQ03g8X1anHNjekru/5DoMSbdJxPyB+wi8oIggIAskhIEovOeydfnIj+e2+9UytenYH/wjNuAYCO76xFAGKHSByAsEPKiIICALxIiBKL168U/E0kEDfuaBWLd/dlIr+mnQSfsChnh+QaNFIAcInKCIICALRIyBKL3qMU/WEGqqCcMtTGbWe+DNF/CMAFpg8I8xo8gMWiRXUP3hypiCggYAoPQ2w5NS2Edhfd1Td/GRGbT3oQE5C212N9K/gAQUfKMygyAusKBYNGCngcvNUISBKL1XDHV1nUeNuLim83fRTJDwESsjqOQ75gFQZAhUiUClCRBAQBMwREKVnjp1ceRyBLQePeDu8AxayrNg0iPADDiMu0HwgDDhCRQQBQUAPAVF6enjJ2S0QQGHXW8mHB1+eSLwI9KmGHzAXCIMqEagcLyIICAJtIyBKr2185K9tILCMojPvWpBR9RKk2QZK8fypU1kHNeW4H3AC1QksFz9gPMDLU6xDQJSedUPGo8FPb29U33muVjVKkCaPAWnWilKyeqIyfG4XWKJOK5ctYDN45NeUIyBKL+UTwKT7/6Wirz9eXKfAuCLCGwGYPId3y/sBS9SAzpIQz3vEpHVRIyBKL2qEHbv/39Zm1a9WuEkc7dhQFexO3045PyByAs/oLn7AgiDJh04jIErP6eENt3O/JmX3lzXpIY4OFz1+d+tMfkCkQUztX6zgByyTjHh+gyQtCh0BUXqhQ+reDWHGvJcqnf+b6uGJuIlAWbFSZx73A06hiNAupBBFBAEXERCl5+KohtinJso1/y4FrMzfJsTRIcLK+lbwA47sfsIP2I9MoiKCgCsIiNJzZSQj6EeWIjPvfjqjluySnIQI4LXmlv0p+CWXEF+iRlJQDJLkRQQBWxEQpWfryEXc7kzjMXU7JZ2v3is5CRFDbdXtkf4whfyAoEWDORTpESKCgE0IiNKzabRiauvB+mMerdimV0ThxQS5lY8phx+wd642IBQhAmNEBAHuCIjS4z5CMbdvT+1RddMTGbXrsBBHxwy91Y9D4OcZPU74AUGRJiIIcERAlB7HUUmoTdsPoVJCjdpXK1nnCQ2BM48d2OWEHxDJ8bIHdGZore+IKD3rhzCcDmw8cETdQqWBDmVF4YWDqNwlj0BXKoeEfEAEw4AeDeWSRASBpBAQpZcU8oyeu3JPk7p9fq2qo+AVEUEgSgRQEHcCFcaFAgRBNgrmiggCcSIgSi9OtBk+a+HORvXNZ2pVg8SsMBwdt5tURG6/UVQSCZRoUIK9q8QP6PaI8+idKD0e45BIKx7f0qB+sKhOHZGYlUTwl4eeQAC5f4M6IxAmpwCHih/wBDjyW6gIiNILFU57bvbQhgb1s6V16phYNO0ZtBS1tDv8gLT7ww5wHPkBi2UTmKLRj7arovSixZfl3R9YVa8eWCnE0SwHRxp1CgKVJR3UxON+wMn0s0r8gKdgJB/4R0CUnn+srD8Tm7r7aXf3z/VCHG39YKa0A9jxjYYfkBhhYArtWSlbwJROBeNui9Izhs6uC4+Qxvvholo1b7MQR9s1ctLa1hCAH/D0Ls38gF0lF6I1rOTzEwiI0juBhbO/NVJk5jeerVULd4jCc3aQpWOqB+36sPuDL3BsT/EDypQojIAovcK4OPNpXdMxdQfl4L3wsjuVEirIxwOaqzJa2Nc0HFO7a46qRolAdWbOhtGRKpojkygPEIEwk8gPCL+giCAABETpOTwPDhO7yi1UKWHDfvuT8FDj7dxBJeoNw8rUCApnx//zghxDKPX/bGpQiyjvUCJS88jITyAAPyB2fvADTiVFiB2hSHoREKXn6NjvqyMeTSKOBp+m7YJghS9Or/QKm7bXl3X7jqjvL6xVO0IizIbfCOV0IK9Q9QlRqO2NAO+/YzyHnHbCDziYfhdJFwKi9Bwc711k7oPCezljv8IDcfHs86pUtwr/q3OYdO9aUKuW7w5u0v0CKdtzB5Z4swQ0bWtJqS7e1Ug7yiaFihQidiPQi1hgph5PiB9DUaFgiRFxGwFReo6N72aqgXczEUdjV2K7jOhepL52bpXqZJCXharvc5+oUWsCFsG94YIqLzm6EJaoNwgat4WkAIG77AILoWTPZ+ABhf8PZlD8BE+oiHsIiNJzaEzxgr9tfkZlKLjDdjmzd7G6amalKg/w4kH19+vnZdSWAMVwx1M7rj+/qt3SONj1YfcHJbiKCLybZBNo9RREJYhx8ANSIAx2gjqWBqs7noLGi9JzZJCXvNSk7n46o7LBLXqJI3I2rbRhViwJwdR0gHa8sx+rUS+RyddU3j++XL19VJnvy6Fsl+zKKUCMS61Ur/CNHccT4QccRjmAUIBIiRhEuYEi9iIgSs/esXu15fO3NarvPlfrxO7ioiGl6pNTKk6Kzny1o4a/7Cbf5nWk+A7Ume2A8dL71NQKdeHgUu0WYMeH0k3YAWInuFf8gNoYcrugN6XL5BUgqkSgaryIPQiI0rNnrAq29D8vNqifPF+njpq9zwveM6kPLxlZpj40obxdU6JJ+7YcPKLmkKkTeX0mggCHL9HuE7tQU8GTN1Gx3rwfEG0SP6Apmjyu61TWQYEPFEoQ/KBBzPE8euR+K0TpWTzGf1mTVb95od76Fyd2Uu8dW67eMdq/CdFk2ODznPtkjbEJGH4eBNag+ncYgujavB9w9V7xA4aBaZL3KIUfkObGWaQAp9DR9XiqS5JtkmefioAovVMxseKTXy6vV39ba3+lBCSZXz6pgpLO9U2HJgP1PPna7lyQMTYFgw1mDgW2DKcE+TAFwUfPk/8Pu8Cl4gcME9pE7oWFHEgU8oEwA6lWoAgPBETp8RgH362AGfMeMmc+QmZN2wVMGZ+ZRnlwxLQSpzy5NecDNTUJdyaT1k2zqtWAziFE2hToOPyAYJjx/ICUE7iv1swkW+DW8lFCCPTtdMIPeEb34lB91gl1ydrHitKzaOjwMvwOBawsoMAV26WMLIRfnl6lJhMtVBLyLyqie1+AIrrdKzuomy+sjry0DdTdi838gFvFD5jEdAn1mVg0TembiwSdQCkxZQHSckJtWEpuJkrPkoHOgmXk6VrP9GVJk1ttJoqAfvWcSq8uWqsnxfCHoMV0+9HqfS4pvi70EotL4AfMB8LAD3jEPBMjribLc9pAAKTpyAX1zKCkCLuIH7ANtML5kyi9cHCM9C7w99xKSedrA7KLRNpInzcHj+W1RCsG/kMO8tMldQq7PlMZSvlbYG1JgsUfkajwUXp+QKJcA02aiL0IwL8NFqJcOkSJ6k+LKpHwERClFz6mod4RdGJziVYsCKtIqA0KcLOexHMIdpO+lOfERZAyAJMx/HymMoaYO64jRY7ovaQEpZVe9QNSMMx+w5zEpNovzz0VASg9TwFSmkzLyiKnni2f+EVAlJ5fpBI4D6asm4g4OgibSALNLvhIBH3MJoXXXYM4uuCNIvgQJsI7KKITuyZTAVXVV2ZWsUhUxn5vI5WTyplBG9XWg2IDNR1XLtfB7Dn1uB/wzN4liS6wuGBi2g5ReqbIRXzdNioJBMJkF1bsCO9Hfhsc+FwlDILqC04vUZ85qzKS5PoguIGRZuGOHDH2mn3iBwyCJYdrEQQ2gRQfKNEQEMP5e8UBr5ZtEKXXEhEG/19Pq/RbqfgrisDaLkjWvZqCVmxgrA+DoPotI0rVRydWsB22w839gJQPWE8BUiL2IgA/4Bk9itR0MoGeN6hUFKCPoRSl5wOkOE9ZQflZd1ItOBeCElCi5UtnE3F0gr4u3bEDQTV4OncHIKh+D7HLvGtMtOwyuv0qdH4jlV/CfMvnA5pykxa6t3wWPwLIe8XOD/y1oEZDgrzIqQiI0jsVk8Q+eY5MUN98tlbhZWS7zBpcoq6YWsnCx6WLJRTedfOCEVRfTru9Nw6Ph2VGt3+Fzsd+b0MzP+A28QMWgsmazxBV/GHisR1LQVYiJyMgSu9kPBL732ObG9SPFtc5kXcFE99H6KVv80ITZNCoxWdamxBmp8+Sf++8mNlmwprACJ7K5wOuFT9gWLDGeh/s9KYSB+iHzyxXfRhFTMcKQoGHidIrAErcHz24Pqt+vswN4uh3j7HDtOdnjNdQ8jfSRUxrFMLcdBVFdCbFOuOnj37OgW95MdGhoUL8st2N5Af0c5WcwwUB8MV+gsp1nTswXro/Lv1v2Q5Rei0Rifn/v1tZr/64yn7iaKwqL6Pd3ZssMun5GeqgBNWItLvuvGpin7HIsdkGMA1HjpEfMJcOsYjyAZFHKmIHAq8nUvePTKhIfbqDKL2E5iuSosH9GIQNJKGmn/JY1Jr7NPnvzqeQfRclKEE1aNduJNaWwUxYaMIaI8xhRBrn8wG3U5qNCG8EkD4ERqRONCfTKqL0Ehh5Wiyr7y+sVU9sMWcBSaDZBR8JFhIUV4XvwGXB4gSUZaYC+jXwdHJiozHtS2vX7YIf0MsHbFRr9x1xorBxa321+fPTafF1PSm+tPJ8itKLefY2UGTmN57JeMVDY3506I8D3ySIo0HDlQZ5gEzRDwQwRfciGrabL6xS3Riy0oQ9foda+AFN/aJht0vul0OgPzEkgRKQI0NS1GMkSi9qhJvdv5YIge+YX6tW7rE/EgCVBWAmQWh0miQoQfXALh0VavGlybyEhd5yCoBBIAwCYsQPyOMbg7l460XVVhBHhImYKL0w0WzjXlj53kyRgKiNZrv0qMzxaKaRBT4Mgmow6aP6enkK66ihcG9zP+AO8QMm+joAZywijJFikxYRpRfDSO+tJR5NUngufMGh6EAcDcWXVgmDoPpMqqEGPlKkNaRZdh7O5wM2qnXiB0xkKrxtVJn6wPjyRJ6dxENF6UWMOr7Uc6lSwh5SfLYLTJkwacZZNJUrZmEQVM8YUKK+SEFAaVpltzWeB+EHpDQIRIMuJ3o08QO2hVZ4f0O60TW0AAN1WRpElF6Eo7zplSOeSfOgA7lMCFZB0EoSxVIjHKJAtwZby/WPB6t1+NqhpeqTlDgscjICWQpxXk6FcfN+QBe+Qyf3kNf/epLl5htvSId/T5ReRHNvNbF53PZUrULwiu0yhez+X56ebJFUrhiGQVCdNvOS7ljCDwjTZz4fENYTkfARALHE5ZPcX4CJ0gt/7njFSL9OaQkumGeQcI7EcySgixRGADyVswMQVOOuHyR+xLeewb8yQ2EE4v10B/yAyAekSND14gcMDXyY2W97TbUa5nhEtii90KZM7kZPbW1U36PE8yYHFqNY+YFaTEqUtD9JghJUA2OYOV9DZWFE/COA9IccLyj5AckcivQIEXMEEM351XOqzG9gwZWi9EIcpP/bmGPtgDnGdkE9ONSFE/GPwJq9RyhKt8Z4h4+VNthtplOAi4g+AlkqiLusmR8QaUIieghg8XX366rV6V3czb8Vpac3J1o9+0+rswrk0cjjslkw6T9CdbjeMkJMbSbjGJSgGgV3r6GVNlIaRMwRwMITJZEQCANf4C7xA/oG8xyqxoCoYldFlF7AkYWO+wWVBfrHOvsrJcBvdwWZ2GYNFhNbkGkRlKAaSetziKB6BJEDi4SDAMiw84EwKJbrgjUmHGROvQveA/de0tlZ1iBReqeOue9P8MVB4ddHNzX4vobriSCO/gKt7s5ynDg6LvyDElR3Ipo30JUNJI5EkXARQMRtPh9wBeUDih/wVHw/Pa1CXejo4leU3qnj7euTRgpU+fazteqZ7fZXSkCRyatnVqpxvcSk5mvwfZ70ezJ3/yEAQXX3ilxlBhBVi0SDQP2rfsBGCohpUiiYK4KK6+4GtIjSM5jh+KLcuaDWixYzuJzVJZ1pRwE6LNTZEgkfgXupHNHDVJbIVPoS7dtc2vGhNJFItAjAcrOG8mvzfkCkoqRVYPn52aWdVZmD/LCi9DRndQ2xcNz6VMZLltW8lN3p3Ss7qNlU1XuAmNAiGxsENn37uVqFVBZTGUL1z26cVSVsOKYAGl63DX7A4/UBNxBRvO1Barow3EB+ZRetP6L0NGYCfAFzn6hRWw/avwLEDgL1tEA/JBItAsjZvGN+Ri15ybyk1OieRd4CBStwkfgRwHcfgTBPb2tUq6g0GApBuy7vG1eu3jHavShuUXo+Z+7uzFF1ExFH73bA5DGYdg7XEXG0mMx8Dn4Ip4FLEsTjyOUzlSl9c2VghB3HFMFwrsM74P7l9d4uMJw78rzLJCKgBsG8ayLLfB8juvXgEXXdYzVOKLzRPXKmMlF4PgY+xFPKijp4+XdBkn4RaAG2n7SZ2UIchlBu1bu6o7pqRqUaQ7tvl2UdpXa4ONdE6bUza0F0e/28jDpQZ789YzLtFK47v1pVUbSmSPwIVJV2IPwrFV6apoIcwPuW1pleLteFhADeBi4qhObwoIrItkPmlonm9+L0u/m3j1MvImoLKI1uIh8egldsl3MHlXgVksvcXpyyH6au5VSEl0xGXQNEYyIHEOkQIskggET328lHuzqAqTqZlus/dQ0t+l0T8em1MqLIv0PUXaMDY/76YaXq41QyRIijWxnsBD7eTCbzOWRBwGraVC6jMX0zkYKLRItAA/ljN1L0JvyxCGZZ76jZrxCKF1CVlc+e5RYlmSi9AiMNhpUfE9OKCxFa/0PRV/9LUVgi/BAISlCNRcxnp1UqlH8SCQ8BRGqupXy9tbTLAX/ni6TwXKiaYoJQHzLFf+9NnUwuZXuNKL0WQ/N34tD8JUVm2W6vxwsRNdouHeleyHGLIbP6v0EJqhHJ+RVi05naVxSfyURAQjoC1aDgkJiOny9TpLZIDgG8R35ycWenIr1F6TWb3b95oV79maol2C54EX5icoW6SGqzWTGUT1BwynfJlG660ELuHlJQxvQUGrn2Bry28ZhHLIEdHBQcTJV19JlI6whgUXV2f3cWVaL0aKzxsgFdFOrh2S4oTfP5s6kmm0OT1PYx8dP+hyg45T6ag6ZSSRG5YG0Be4vICQRAJZZXcFBy22hXJxUWTuDj57dLyFr0YSo35oqkfml4hCwZ36XcpyA0UVwmA0rSXEWrMqnFxmVE/LcDASmHs0eNCaqxg7n5yYzH09mP2HbSKCCBh/+tuT8OldVFgiGARYNLkuqdHlgyvv50rYJfxXbpRDlgXyMTl9Rgs3skgxJU96SKDDdfWKW6V7iv+KDQ1tELGWH1+YATF6Ktuc3gYppKv3hbF+UKBV5qlR5Wxrch12aP/TkJ3agEDZLOBwlxNLf3hXZ7YGoPSlANAvG5F1Y7VQQUJkkkSsNEmd/JgRrQ1A+qPTAhXQDFMaRrkepFnLfo04H6o146RJb5uvsmWkiN6eGGYTCVSu8g1cyCKWgTmUJsF4QUzybi6N5Sc832oXy1/WEQVKNUFKqvV1haGqaOynetP76Dg6IDMxIWqrZJFyIhOKN7sRpF9H/4OYwUHnZOzQVm2UWU//fXNVlPATb/G5ff3z++XL19lBuR4KlTentqj3rEvzsP2x+WfPpx4ugg7B5cvlTSjpMRgOkdBOdrA7B+jKeiwDB5l7R4yZ78JB7/Q5qAt4tDVCX1eYuFAScI78cu21Ny3UnJ0c6orwblHHZ+D1LK1K8pihyxBpzEpaKyqVJ6O0jRgel+Lyk+2+UM+lJdQ8Vfq8mXJ+ImAqC/mzOvhhSA+XxFqPmXiRy5I6Npgp3si6+cMFPCH2cjt20ZWfuGdy0m5VakRtEubiR9J8P4Pj5LNfy+8UwtK8XXiYpN30dFZRlNI+MvfWqUHmiEbiGT5iEybdouE6nkx1foReZiVWPbxybs9oMdJGiFjxkDStTniEoK6SxJCL5zJ9IGmtRGyo1rsNCzAN85dnF5JYf0kKjKPP2Ddnw/X8aLX/Vbb+jkRMHpVCi9lVT08Y75tVb6BFq+pGYOzL3AWvoFWp4n/3cHAeSaQfEFCb8fQbuQz5Pigw84SkFgyfbD2MUdDzqhXdwuar9tASfYGQ/sgh1czhcHn1yvGP3mWJpf898atYEWCFzkiqkV6jUOEF44r/TgIIapwMaVZcvJ/tqhper/EdMKJ1NVyzbK/6NBYDOZA+c8HoygGkEt4GK9eERZaLu+ego4wYsZ/rg1pOAQfGJjVRLkuCLdJx9wAlMlEv6TFKRS3fpUJskmnPRsMDx9ihSf7eK00ntiS6P6/iJetnHTCfM2ipz6AEVQiaQXgdXEDYmo46Dh7TDTvZkU30WDS1Vn8tXoCALBmqcNIOCEW9CFn/70oJQB+MVHUbAJfiIojOr8shIQ3n/iwUOBdvhhdgikB995o/3k084qPdQcQ7FN28wqLScpIsIQLvy2M9wIF27ZP/m/HgKonn7XgkworP/wRyHCc0JvhNQXq/70Umu+u0HACZRanogZfrl9tfb5xNFPVKyHckNEJUyWUHo2yLee5cMWhXfRTy/prL1Q4oazk0rvD6uy6oFV9ldKgBkT5kyYNUUEgTwCsGCAOi/sBR1eajDzVVBUInYZhykAxUaeSihumCe9oBP6id/RLxvlYVq8g6WHi1x9TqWa1s9u8mk3UuyPzwisQe+n3d0/19tPHI1Alc8RcfRMirwTEQSaI4D6eXtryxWqgoQpUKKoOFDXGOZdo78XAkzyvjjs5gbRrs4VvzciRTkJApRE6TEZEaxMf0j+u3mbLfvGFsCvnJYiV86oUkhNEBEECiHwdgpIWbe/iZg8mPNXFWp8gM+wGBxM/jcvqvK4P66bwzyjMMtW0M6VS/kjBCvZLk68VUEy+02yfT9HSZ22C5JbkXSOFauIINAaAjDWfWB8BZGlH7bSBNlav1p+ju9D3lSJ3Rzo1cq4RZy0bHSI/8eOFVGly3fzUDaoYgHaNBtYflobBuuVHjj67qQcvBUv85gUrQHt5/OuII4m2iis7kQEgfYQAOXVOApE4fJCbK+97f0dPkVwyOZNlfg5oFORwudpFuDAZYyR+gXFZ/Oi3Gqld5homsCywimB0/TLiS87iKOjTh42bZ9cxxMBRF9yeSHqIgSGGLCa5NMGEHhyGhE0i5yMAHBRKnvyhwn+D1UuROklMAD763I8mtsOmfMSJtDsgo8c2IUUHu3wXPZNFOy4fBgYAZsWScgJhKkSPJUI0BhGvJWu1GgLPJBt3GAkmTdh5uQSSYv6hZe20V7uf7JypwdaIxBHg5nddgE91LVCHG37MCbWfq6h+DBJ9iPKs3xeHH4iuVn2cfpTBYEsiEgFKw8HQb6mzWKd0kOyLBReEB5CLgN2JiUFXzWz0tocIi44prkdB6kIKQfBjg214vJKbiTt5nTZXjj0g2sb4NfjovQOEgk6Nh46ZZM44WqV0gP90W3ERWcjt1/LQZ9O+Xefpzw8m6OgWvZJ/h8/AtsTqgsJ31u+4gB+FiqOGj8a7j4RGCNRnYvAr9e32k7SDGuU3tKXmtTdT2dUvd07a2/Ogrj1k1OEOJrLF9jmdoBQPQ6BuRK7jQsGlaqxFDxj6yo/DqyieAaw5yTw680azKlF/ttihdJbsL1RfYfy8MAFaLtcMrJMfWhCufg2bB9IBu2H5WN7DIFcQ8ls+XGiw0O+mEgyCPQkrtDulNK0rw68U8kLdnq2Cnul98iLDeqe5+vYRC6ZDjRWyu8bW+6VdjG9h1wnCDRH4JfLo+dkvIAozz41tTKyYqnN+yO/t40A/KULtsWzs2+7JaiZeNRzM4VRKb69Z4X9d9ZU439dm1U/dkDhIdz4Y5MqROGFPXtTfL+/rMlS9YNoo/nOG1SiPkOFZ6OqDp7i4TPqOqfcOPC0wtJgo7BVer9aUa9+tdz+Sgl54ug3DLPT6WvjpHa9zVjt/zZksumWmPWl9IJPkN+Z1msiTBBAEj8nsTV1gReKNKJIwPwJ7e7+Q2ZN26WM0P3y9Co1uS87mG2HNrXt/++mBvXjxdGb+98zplxSaZjNMhBtg4yeSzAfKi7YKKx2eghUQdFEFxReFRHlgkdTFJ6NXwuebf4bmft/FIPCQ2X1mQOlpBW3WQCe7eHd+CygNxxosjK4kI3Sy1JtoNvnZ9g4aoNMeOQw3XhBlRrNzBwRpE9ybbII/JrM/b+MydwPPk/4oUX4IcDJr5elAM5NTFhidEaKhdLLUOFKsKwgF8926UnE0XMvrPZqftneF2l/8gjA3H8P7e4QuBKXgPJKhCcC4tcLPi6JKz3Qic2Zl4k8Ei04VO3fAaVebr6wShJ324dKzvCBAMz93yZz/79j9m9XFMs2z8fwJHIKCLs57cJt9OslaiAGYTR2eOBxs11Q3BLE0Z2ISV5EEAiKAMz9dy+oVUsSsH7UkOVFhCcCVUQ+jcX11oM83pk2VlJPbKe37dARNfuxGicUHgp5ziEfnig8ni8K21qVN/cnofCA1Xb6borwRSBXX49H+w4QQ8xuy6rdJKL0UPT1ejJpcqHUCTJ9pvUv8XZ4YhIKgqJcm0eAg7nfhaLMeTxd/MmNh9M2E2fs5s0XXm5Sd5DZps4BE8qswSXqClA0iUXTxXdL7H0Kw9zflSKHZ1C6QZ/qInWACi0jkV13JQ53w6HsMSkNFPsM8PdATjs9tBhJ6ucTXZ0tEqvSe25Ho5eH1+CA9eQtI0rVRyYKY4UtE517O7cRcfTNT9QYWz/A7frWM8rUuympvHk18vcQ3+u9S+oUOGz9So5iqklN62fPi8xv31w4rw8V50VaFJeaoqi4YJPEZt6ct7lBff2ZWmW7wsPLBS+Sj4rCs2mes25rztxvrvDAjfmZaZXqA+NPVnjoNGjwPkEVEqZosgLZZrJiPcARNA7k01xkGxX2rrXIcheL0vvn+qz6/qI6dYRHwJHxXEGo8GWk7N41psz4HnKhINAcgRVk7r+RIpgPkznRRLCru3JGpUI1hNYEC7XLiPBchzjaxqi81vrv4uejKHWBiyCXdJ1Fu73Ild7vV9arny21nzg6v5p+03AhjubyZbO9HTD33/pUxti/XUnh69cS1Z0fM2RvIk2Y1Mf/7uDFA0dUo+WLVNvnR1vt5+jXa6u9nP4WmdLDuvU+8iX8YVV8TBJRAYvV9FdmVlnlrI0KC7lvOAg8dtzc32joDulM+aBIkxnb078im6rho4MbAopPhCcCKOzb3HebdCujLnMVZv8iU3r3L61TD23w7zwPs1Nh3guraRBHT9X0iYTZBrmXWwg8uC6rfhDA3N+dqmjfNKtaDaMXn46M6u5fQeK+NlfH1sHFxnPhqwUhBhdZT2loxKdghUSi9H5Dtb7+ud5+hdeFVtM30Gp6jMZq2opRl0YmhsDv6Ltx/zJzc38/qnMHqjuwcuhKf7pGh0DBtqg8XTxsP5+TibO+6ZjaYgn5tP43p52ZgqCVP6+236TZA6tpIo6GGUFEEAiKANIAkDrwxwDfjSE0F0Fm3pPmpolQPIsCd6NfsbVIqN/+2X4epwhOYGlL8JPZt6eV2bKZQldR8dx26X98NY2fIoJAUAQQtfyd52rVwwHM/aN7FnnlqmB9CCI6Js6DRAbvAi9uELw4X4syQ4jM5SK2pLmE9lZHpNd3n61Tpo55LgOHnR1W09jpiQgCQRFAQMidCzLqya2NxrdCIWL4leFfDiq69djErxcU8eiu70SFqjktzNdakrYQ2psdqQlbaKdns8B3Bx8eIuNEBIGgCCBh9+Yna9TiXeZ1Is8dVKKupsjhspC47lB5G0EQfkX8en6RSuY8Tn69vbVHFQ7uojH9W+/KPuL4e4h8eTbL1H5YTVeGspq2GQdpezgIHKRk8zmPZ9SqPeYLwTcMK1WfP4u4XUP5lub6hTB3HT+17PTCmQ9R3eWMHv59tFG1ofl9bVgkhfJ1QuCKzfRiIEv9yowqynuRHV7zCSy/myGwh1a7KJu1KUCe2ztGl6mPE31YFD4bnd3B9sNHVU2DJbHoZsNl9VU6Pto4OmrDIimw0ttDtZT+u8ne9AQwrHw25NV0HJNLnsETgR2kJGY/llE76aeJQMl9eEK5et+4cpPLfV2jU5omRz5tvlv11SA5yRgBpLBwcsfY4NcLrPQeJLNmk9n323igw7oQHJqXEyeh7O/CQjTd99lIOzvs8Ez9GjBjXjG1Ql0yMlpuV+z0dHaQkrrAe17rBidF2RvEddRRzh5nCaT0kIH/FNXrsk3whf/oxHKvWoJtbZf28kRg5R4ijiYfHurQmUgJuWa+NL1SXTQ4em5XlKUBF6dfsSUU3W9/XDuPU74e0nPAzsJZ/M/8Ar1Y+lKTQi6PTYLV9KdpNf2WEdGupm3CRNoaDIGFOxvVLU9mjMurlBd3UNecU6XO7t96pYRgLTz1ah2W/g0Hmqy15pzac/c+4efXc1jpPb7FLl8eIte+TGVYZsWwmnbvqyU9KoTA41sa1d1Pm9eJRK4ViKPP7K3Hi1moLTqf6ewOspRxsckSiikdDFw5FxyssBRwEe7mcOOdHmooLaGdni1SQYm9Xzu3Sp2lwTRvS9+knckgAEL17y2sNa4T2a2ig7pxVpUakQBxsK4fiPuLLJkZwOOpUHg6aShRtxq19aAfuIqx0sPKr86Sarkg2Z1zfpUa1yve1TTXQZd2BUfggVX1XuksRDeaSJ/qjh7zz6AuySzRB3YuUtW0y/Qr4tfzi1Qy5+mkoUTdQpAybGVMVGKs9FbvtWOXhx0eKJw4leGIetLJ/aNDAEruPiqb9cBKczKG00nRgepOJ5gk7B4hmEuHfNoWMuGwcbLlfjo+2jj6xDl1wVjp2VI0ECHgunXH4pgU8gz7EEC0MsyZDwUomwWzIkyaXSmCMmnR2R0cqDumdlNOrghPBOCj1UlDiboXnM3hxkpvG+Pta35Ax5M5c+aA+CLi8s+Vn+4hAMahu4k4GoErpjKhT7GaTWZ2HbOi6bP8XKeTpI77iYnTD6rJnIPqGzCZcxHOmyJjlPYS3yZ3eSOxrYgIAkERQLLtLU9l1MKd5ib9GbT4QloC0hO4CEz+OuTTnFfvXDBNsh2cUhdeJqvAfqY6wkjpHaYEXIQxcxakJ0zuK7s8zmNkQ9uQbH4DJZ2vfNl8wr92aKn6IiWe6yiYOLBB5YbBp/kPpLGBTDgO3Lg+gxv5NFe/npHSs2GXh61+iVHvuE5paVfcCOwDcfS8GrUxAMPEW88oU5+cUqE68tngnQSjTgAEXBqIzBPhiYBuGkrUveBKPm2kFmyoqHBauVHXop4Hcn9LEABh9HXzMmrHITMzPoIK3j++XH3wzOiIo8OAUidJHblXyMES4YnAAM00lKh7wdUyYKQZuK5amw9iljnpafO2yu+8EEAOKnZ4qCBiIvh+/D8qC/T2Ufyp7nR3B+LXM5kR8VwDY4LueEbZss30Pcoi5JmZOKv0Xraggi+zuSDNIQSQfzqHdnimnLLw233h7Er1OvLj2SDdKjqqXhrk05yj8mzAO+o26uzco24Lqu9sCOAaiKp9RkqPm0O+EDjIK9pVY7ZSL3Q/+cx9BBbvalI3ByCOLiPCn6spQnPmQLsCqHRSF8Cgz3Dx7v7k9NlDTjs9NJnjIslI6fWs7MgqEbK1+TBvs12E2K31Qz6PHoEntzaquygPzzQquYoovWafV60mUS6ebaKTpF5PboMtQj7Ndoh101Ci7ghHc7iR0qskai+Q5XKX/9vYoDISbcZ9mBJv38M0T777XK1x+RzUp7uRKiXo7JgS73SzBui2m2uAQrMupfZXpKEM0UhDiRooBD6Z8tNG1TYjpYfGDOjkP78nqsa3d9+ahmPqx4vr2jtN/p5iBP64Oqt+uqTOmBUe/rCbiUdTJ9+NG9wgn8ZC1q9wDUX3237Xz+Pk18M7ePthXhG/xkovKXZ43Qm7gCq7P7jenBxY93lyvh0IIKbs/mX16ncv1BuvRAd2zik8TvRPJugj2lSHfJpr0rFJ3128Rif3Mo7+c6OvM1Z63LL/2xq8n9PLLQhnYlv3lr/ZhwDyzX6wsE49uM58MQTfyU20w7PBzO9nhHQorPZSZDQOEZ4IcNrpASFuFTqMlR6+JJxYvduafrAp/2BRrVq8y5wsuK37y9/sQaCR3tVfp0rnjwUIcgKROaqdo+q5K6K7iBW/Ht+RRwWPJMtWtUTGmZ0enPc6+T0tgYj7/0foZfcNetnZUgcwbnzS8DwQR99KKQnP7jBf/JzVv0R9jeozVjAijg5j7FC9vUhjCSx+vTBQj+4euouY6Fqi1EtE8mCa9xpFuzSm+amP52Y7PrWFJ3+SJX/q7U/VKjAFiKQLgcPkUL+JiKNXBCCOvnBwqbpyRqWTnK6o/oDitn5F/Hp+kUrmPB1zddQthKWNk4kzkNLjZjv2M3hIYUACsiSu+0HLjXNQ4uT6x2oUEqtN5eKRZepT0/gSR5v2q/l1OqkLW4h8GjtnEZ4IcNrpASFOi6RgSo+qQNsor9QfU3OfyLCt92QjplzbjMXNdY9l1LYAxNHvHVeuPjKhXLnjwSs8WjpJ6nAXrBfy6cJAMvhUNw0l6iZzMocHUnqDKL8HTBQ2CoocYseHPBIRNxGAGXs27fAw1iaCUP7LJ1aod47mTxxt0r+W1+js9HAtR7aNln1K6/9101CixulF+i42mhtaQm1eIKWH6M2R5AC3VbYePKpupYrYoFYScQsBcP7NIR8edvUmAn7Zz55Vqd443A7iaJM+trymO5FPg2LQr0gEp1+kkjmPk18PCm/DAfNCzGEi6H+Gt/JUG/16zbsCmpy7KaoTjOAibiCw5KUmNffJGpUx3MWX0jruKzOr1HmD7CKODmP0dHxBMG8i51GEJwI6YxlHD7ikLgRXepb69ZoP8lJ6SX6HuBflC9wcFTt/n08MPHfMNyeOBh3XdZSSMKWvfcTRYYyYjl8PVdS3UkCLCE8EdNNQou4FlwjOwEqPG7CmAwe6snuJg1HEXgT+82KD+vaz5rv2LpR7egMlnY/pmU6Fh5HX9+uJ0uP6jdFNQ4m6Hx75dNQP8XH/wEqPG7A++tzqKf8mtv3fEhejiH0I/GVNVt3zvDlxdA/yZd00q1oN7WqvjzqMUUOuXoUG+fQaKrorwhcB3UVMlD05lD2mdh5O3o8UWOkBJE7ABh20PxHrfhBOxqDPl+v1EIBL6ZfL69WvV5gTR/fvBOLoKoWfaRdE/cF641c45V/5bXOaztMxV8eBC4eI31C+5dyADTp4P6eX6LwtUoA2KI5RXw8f7I8W1am/rTUnjsbObi4RR2OnJ5JDQGcRi3QQJP+L8ESAWyV1DsEsoXzTuQEbdPqBNueH9DJduNOcozFoG+T6thFAtO03n6lV/91kvjiB7w4+vM5lduaato2Q+V91F7Gy2zPHOuorsZjjtKDjEMwSitLjBmwYEwmME3iprtojPosw8AzzHsirvI3yK5/ebr4omdKv2IvS1CmeGmYfON8LtfVg5vQr4tfzi1Qy5+ns3KNuIXx6h8m3l6SEovTQAU7A5gGd2KdYfWJKhXHbGigw7fb5tWqTEFTnIU38Jxh0biIKuWW7zRcj559eoq6aUaWQjydyKgKoICHk06fiYusnujv3KPsJK1rSfr3QlB4nYPOD9rFJFep1Q0s9n827xphRSSEXCXRlHKKO8v1K688DxK5y/bwahdBnU3kTMax8dlqlVhkd02fZfJ1OYjPo3rJHkl2924x11G3nVg0naSafEJUev2Uzav5B8O97xpar99JhIqgFBcW3Txz2JvCFcs1uCpi4jng0QR1nKu+khc/ltBCypfixaT/DuE5nEQv/6oYAFSzCaK/co3UETj9NLw2l9TuF8xdndnqDASyzwpr7605efeKl95YRZlyKHkE1mdVQl00kXgTA+gGFt5sqJpgIlNxHJpovekyeafs1uu4KcJ2K8ERANw0l6l5spAVSkrSPoe30AOxwZpRkGw+c+kX8CLHmX0A+HRNBeRohqDZBzvwamDKvn5dRB1osYPzeEdXAPz21Ql08wsy87fc5rp0H4unulTlLiZ++Jb1699PGNJ/DKcIesRIvFng3xzU+oSk9NJid7bgAWwS+xp8in85Uit4zEZDs3rXAnOrK5JlpvQbBKjc9UWNc/gmBKl+eXqlmUcVzEX0EdEycHsWUGEH0QY7pilE9zN53UTUvydSFUJWezpckKjCb37e1/KEi0nxfml6lxhpyLOJlDI5HIahujna4vyMd4XYijq43DNIEldY151aps/qb7erD7Y2dd9NZxCKqdvvhUy0rdvbcvVaDZUcnDSVqBJJMUg9V6enm90QNLHxBda3UysMu4OpzKo25FvFS/glxPYqEjwASzpEjaVp0shMlm885v0qN78VrdRs+UtHeUbdsmPj1oh2PIHdHPuog4lXlIkmaw0NVegB2ICNgsRODObI1QXuvpTIy/Qw5F8HqD85HkfAQAKXYjxabE0d3r+jgEUcP1+CPDK/1bt0JwWnlGuuGJF9kbiEfTW84+fVQ3Pklw8C0oOiEqvTQGB2TSNDG+7m+vS9iF9oVzKZdgSlVD9j9/7HOnPvRTx/Scg4WECCPRgKrifSt7ujlZA7sHPq0NmmO9dfADTCim3+tJzs93kMufr3c+IT+drDFr9d8eiJSDYVDTTkYf0Ev6sc2m3NANm9LGn/HjvzHtLvDAsJUsCsBcXSvqtCntGmTnLhOJ0kduZRYwYvwRIDTTg8IJeXXC/0NofMliWNqIKrMT8DJANodXEuBDzq1xPLtx84EJrnndphzQebvlbafyNdBUBBMxaaCnLIbZ1WpPBmB6X3kulMRGNXd/06PA8XUqT2QT/IIYEHYjcz/XKQ9K1xU7Qxd6fUmYLsyAhY0YtsOte7Xaw7sMPIDXT2zUpUY+HtBUP0tenmvFILq5pC2+Tuoq+6gCM35VLXeVCYRvyrM01XknxUJHwHd4LTWIqbDb5nc0QQBTpa47ZT3nEmA7CN0pYeB4AQs2qPzRRxHEX9fONuMmxFJl3cQQXWSiZforw2SocXIXGK4WfKSYU4CdfKcgSUUgVulyuB8EokEAS84rbP/VaBUXIhkGEK7qS7TTmgPLnAjWODWJkBfF4nSYxfMUiBJvcAYvPrR2ZTb9UmqzmDC0Yid5S1CUP0qloV+gd9nDrGsBAl8AJH452lxUhzJDC7U6vR+puOyQEUSLP5EeCLAbkOi+W4OA9VIXhm6+T1hdKSte+js9PL3uZBYPD50piFBNdWLmisE1XkoT/oJDtPZxKMJZn5TefuoMq9kFKdkW9O+2HCdjl8PuZUbD5jv3m3Aw+Y2DqGArzL/btrIu2rybg7aqEiUHjdgTaPKLhlZpv5ntBln4x56ucN8JwTVJ6YouEtBHL3LMD8HO+8P0kLk/ePNFiMnWiK/6SCgs9PDfZOKytPpU1rPBRftcI00lKhxWr+/SSEeIk6JROnB5DSsK5/lBKLK1u0zW33+77hy9fphZtyNcNTC1NkaK0ycA530s1B6BrXwWla+8Nsu7Opgcn7rGWaLEL/PkfNORUA3OC1JXsVTWy+ftESAk/spS6/luIt0R6L0ADK3nJAghQtRjHYmBU2YCF72IKhujHk1Y9LWqK5Z8XKTuhG7XjL7mgiiab9IxNGvGWK2+DB5plxzMgI6Jk6PfPrky+V/jBBg59cz3JCYQhqZ0uOW/R8kJwS7jM+dVakmUni8iSxPMUH1s5S7iHJMdRTgYyKgwfoqRWjOGGC26DB5plxzKgI6Js5DtLjZeTjFq7xT4WP1CdJQTIL0oupEkA2JSZsiU3rcgEUaQZDdFky2X5lRabyDfYYIqsE6kiYBS803AhBHV5d2UNefX60m9DZbbKQJ66j7qrPTQ1vWJhCVFzUGrtwf3yuQcXCRuOdKZD3vRMD2NyRyjmIwEFUWNH+ujCrDo1zNoC5msKF6wK9SQlD9IPGR/mBRnbGTGgQHYFnB4kkkeQR0g9PiXr0nj5BdLdBdxETZO/j5EdUdl5i9vX22jp3tOITVJ1ZJs2n30ZvIjU3kr8QviUoCLstvX6hX9y8zJ44GtnNnVavTGVXscHm8/PTNi/rTCE4L4k7w0x45JxgC3GIu4kxdMHtz+8SbU/Y/mhwWsF3LyexGBNWmdGvY7T1Kuz7XBFGy9y6pU39aba7UsYueSzu8PoaLCtcw5dQfHb8efHqmgUuc+uxqW7jFXMTJ5BOp0mO30wsxSgi7EVRmwM5PV6AcfkwFaBHk4Yog1+Y7z9WqhzeYK3OYMm+iHV63ikinpSuQx94PHZNYjnzanIAg9s6l7IFYVHIiaA9rQ+JnGCN9u6A4q2m5Hj+N1z0n7MKFML/Bx2fCcJAnqEY4v+3SQMTRdy7IqCe3mivxMylY5XoijjZZRNiOny3t1w1Ok3w93iPLaVOy9eARBQrHOCRSpYcOcAIW7Qnb1wDb+JUzqow4IBFccyfl8G2kyFJbBRP1ZkrAX7zLXHlPp3QELB7KKVBIhC8CulF/cUfl8UWOZ8t0zNVR9wDk0+tjIp+OXOm56tdrPglQ3uazlMdnwgWJ/DWwtuywMK/pIOVjzXk8o1btMVfaF1HC+Zco8bwk8pnYfMTkd1MEdEycWMyhXqIITwR0xjKOHsTl14v8VcNvp2f+gm5r4FHmBswtJkmfSOYFT+feWnveEHuorSCO3hRgl3opcZteMbXCaLHQ1ljI36JDQCfqD9UWgqYJRdcTufPQrkWqlFFGUFx+vciV3jAC1qQoa1RTcluEtmNwdL53rBkZMhQeKjNAAXIX7EpnP5YxZt3AwgCcph+aUK7EoMl9tE9un27Un/j1TsaP0/9yHMl8tB7MmzBzRi2RKz0oPKwouEjUtuN3UFUGVGcwkR0gqAZlV1MMI2/SQLoGJivs8Ex3pTABY0dsWr3CsNlyWUgI6Eb9ScWFkICP6DacysDB1bOFNiVRS+RKDx1gZ+IMIUm9rYHBDgb1+ExkI6127qTq60Eo00ye6+ealXuIOJp8eKa7UawsP0eFX99gWLXCTxvlnOgR0Pk+hx04Fn3v0vUEThUXgHwci6RYlB43YKOmSILJ7pPkqzqLKrCbCNIYvkWclXFs9f22b+HORi/gxjSsGGkdV82sUucaVqvw2045L3oEdKL+kCZkWj8x+p7IE7CAMYlDiAq5OMzhsSg9bsDGYTsuIs33RdrVjOtlRpaMxPUfEUE1B0Pn41sa1N1P1yoEJphIFSXwI5F/cl8zLEyeKddEh4Bu1J+kLkQ3FkHv3Kmsg0I+NRdxZqfXhWi7ONFKwXaMZMioBf7Mq8+pVMO6mfk0QVX2q+X1UTezzfs/tL5BfW+hOXE0xv6GC6rU6B6i8NoE2qI/6kb9xRWVZxGErJqqY66OuuGICt9XF20Ue2wqXifUOWpgcf+4vogVlHB9LSVe9zcs5QFyapBUJyEPrKpX9y2l3abhdrNnVUd1M9GKgaFfxB0EvKg/jYVcHCYrd9CNvyfs3E97o92QxKb0dE0iUQ99nA52ULHNJvNej0ozuH9NVQseiZGgGjoOyu6BlebKFvW6br6wSvVlZDqJek6l6f463+ftFJVc02C4ckoTqAn1lVMEJyCI+t1s9hY2GBx+wEa7mmgJERTebOKW7EIKUFew07qH/HsoRBu1EI2m+h4RR8OsaSow54I4ursQR5tCyP46HcsN5u+6ffF+39gDyKiB3DiSo/brxab0sPLnRCa8u+aoOkCRZXEKiupeSzu+yhJ9xYdIzm+TMloeIUE1AlXuIuLox7eYK1cE7txAyp0T0XicY5yWZ2ERqxP1F/XqPS24R9FPvI04FWveTPEW9RHmKsem9LgBi8mTxBcRQQAIbjGh/wFB9V1EUL0hAmLWPAfoop3mxNHT+hV7/ssKA6UexZdZ7hkdAp0oIheLOL8SdZqQ33bIeYUR0DFXF75DeJ+iAk2U5NP+Z20IfeIUJYTuRL2Nbg2ysT2L1ReJZBnVqHXFU07E2gI/SViCZPMbKOkcyeemcsHpJepKysPjRDln2he5zh8COt/nDfubFF5mIjwRSJP7yeC1az5o/CoumL/kzVHIXTmtX4m6YooZQTUqUs99skYhvDeogE5s9ryaQOWN3jyiVH2GqkwgN1EkPQjoJKln6au26RXx63GdHdw4kqOsuBCr0htOAQ4Id+Yi+BLCZJiUzCKqsg8TZZmJ7KvNVWZAeR9T2Qni6HlU1ijArvHdY8vUZRNJeZs2Qq6zFgFdk1gS7gRrwY254XC3cEotWk+BT6apUu1BF6sKKqOtwGBGOVtQeEkXcL14RJl6J5FUmwiUFmrxmYSDQ+Fjh7cnY7ZbRBDDZUQc/e4xZkrbpL9yDS8EdKP+1kScf8ULHftao1tBI8oeZkAgciiaHUmsSg8g6YQ6Rwlq/t4cVp/vpTI7piTMqFd2LVU90GGYWb67Sc2hHd5Bw+hV+CI/M61SvXm4Gal2Hnv5aT8COn49Dt81+xGPrgfs3s0RLZLiV3rM6KjiYmZpb6qi3M65g8wIqmGevOqRGnX/svo2S/7sJ3qfe5fUqZtpd2hKHA0zyJUzKhUCV0QEAR0//f66Y+plQ8uCIB09AljA6KShRN2iqJh8YidE1PUDRA0sl9UnJht2T5nGjFqySz/ApomslA+uy1JSeVaN6F6kRnYrJgaYDlSVvIM6QMoOIcCrqKRSkAg65Bci3QLRpyKCABDQ2enhfCwyexE9nQg/BE4DRzKNDZeqGFFtSGJ/e3Wr6OBNei4rPpj4MMh9q5P/IiLIB7uouU9klKn/A0nsSMUIOx0DyeZIrEeUl4ggkEcA7DtIU/EbEIaovPMMLRr5Z8rP6BBARC4XpZcnEOlKyjhMSeRNz892rL+zCnMQmt8LwT7XEEE1p4Cf7kShBloxUXjNR0p+BwIl9AYB4YJfiWr17vf5cl7bCOju3Nu+W/C/RlGWKhmlJ369NmdDFZkRUX+OQzkm7PBupNJAoJETEQQKIaDjskDAlak/udCz5bNwEdDx0Yb75MJ3i4LJJ5E3GbdSFlz8es2HHfZ1EFTDHJyUwJVRGLkAADivSURBVM8IcysH5ZsUBvLc9hHQSVKH+T1Kiqn2WytntIXAgE5FrDiSo3g3J6L0BnUpUpz4GUHphbwQbtKbnMrY8SVF1D29f4kaI0Er3KYFu/boRv1FybbBDhzLGoSFLify6U2UktWA0i8hSiJKryOA1ShCGWJ/C94Kq0+upU+wQPga+fjKYw85UpKWUHC2yIctEUC5LJ1AMPHrtUSQ1/85+fUQlR42wX4iSg9DrGMSiWNKRLGNDqvdWHkhnQGrsDilH5k6RAQBPwjovChh3sRCU4QnAq779RJTejrO7zimRtgh/mG3efqAEnUJUZbFKQezZhRlcbZRnsUDAZ0XJSqFbKGAFhGeCHDjSA47gjMxpYcEapg5uQi20NxXn+8icueuMQa2PLbZvJgsl3GVdsSDgM5ODy0yzUONpzfpfgo3jmS4nsI0DCSm9CqKO6jTyV/FReqoUi/31Scwe9sZ8e32HtvcoJ4IUEWdy9hKO6JHoD+ltHQi355f4exO8NsHl8/jFGF/uOFYoEowLccpMaWHhrDz60VEcNoS9CD/n3V6qSqLKagFpT2+u7BW3fN8HVGZhbnWCoKAXMsRAag7nag/2elxHMUTbeJWVDZMHs5klR4RnHISG1afVaUd1JS+8ZE9Q/H9e2OD+uRDh9StVLH90U0NKkgNP07jLW0JFwEdPz2KF+MQ4YmArrk66l6EGXORqNbRcX5HDSrub0so9cTexWrBtnj9bSCqfp6IsHF07FDnrepR/R0H6qqJCAK6lht833oQxZ0IPwS4cSSHuSFJVOn1pAnfnQIz9jExnYEEG+VPkmRB8TP9k04YR8APzFM4frm8XsGfk1eAyL+MO7XCD2ZyTvQIDO9arECajtwqP4IX2TkD47Na+GmTnHMCAXAkcykMABJsWJiQExpUEl9mcbMdh7miCDo4rV0Pppa4/HqttaH556jn99c1WXXtozXq4w8eUj9cVKcW0Y6wQaLSm8Pk/O+otahDPi1+Pd5TglMldbhZwno3J6/0aDXBSWwwcWIn1aeaF275MXyFSjX9l/x+t5P/77K/H1R3LahV8ygK9DCt0kTcR0DHF4Ro6XqKmhbhiQC/ajjhrKITNW9iqDmtJtCesFYTuFeUUk2VGLhLPVVsenZHo3cUdazzCo5O61fsmUKFxJr76Jm1D376f6zzdy38xGBnGd8r8deQvwan7CxQIKJwNJeqGGG9mxOfbYMJWJjqskxK2uUJTkuprh1nSYKLMwgeeMGt2tPkHT9fVq8GdjnhBwQDBG+0g/Q8XddipwdLBMxRfgRReaL0/CAV/zkeRzJZ4pa+xOPlvJHIpxvpPYIajkEk4OVBHp27tohaMKJb4rr31Y5EQXD66s1D/AWDb7NsO3hU/Xl1Vl3z3xr1CfIDIhdwCX25bO+XzWMSRttREgs+Z78SZv6V32fKef4R0DFX+7+r2ZmNZN3cSJaBoMJC28B2/MLLPFYTABR+vaQjJNsbWC4mh/ba6efviJhFLiAOlJxCSgaiQSf3LU6srJKfdss5hREAm8dLFG3nR0AxhWhgTpSEftqdlnN001CixgUmzqCpbjyUnldJPRs1Xr7vn7Mdx0f35bthzU70+1JpdokVv4KM+Ontjd4BK8Bomht5P2AvjR2EFZ11tJGIyJ7nk74Oi7dth46woiR0dFiMujWCXA/4HsI9wUFQSf2tARvCQ+kdz+3y6wcI2Od2L88TnHL1M+0hJosa4qMzFTinkR81jgIIBlKOHYrUwnSAXJiV5HdbtKtRwfyYtOCLBgsAjvvJDwjHOhTgWbQLHNJV/IBJj09rz9eN+kPqAice3tb6lcbP8xzJL5I/jYOs2xvcIshC6YFaawC9fDm8aDGwhyi8ftfho2yZRlbsNhv4EspyuHRkmXr7qDIqSnuqSu9d3VFN7FOs3j++3DNPLdzZqBbtbFLwuyS90sOCaMsrR7zjj6uyqjsRG+R3gGOpujuSokV4IDCwc5G3kPK7MINl5Q3DSnk0XlpxCgJYxHBRekhQ3xnw3cxC6QFl8PZtO9hwCuBJfYAvYr9OPL+Iz5Ey0pUuFGBw9cwq36TASCm4hBQkDrCcP0+7v4WkAJdRsAkqUiQt+2i3+/CGBu/AznUSKWv4ASeRH7CK/i+SHAKI3gT5NCjr/EiYvIp+nifn6CEAc/W/6LvGRYK+m9koPawm/vMiF1hzwSwXDubTnnxLsqRwlmvu9LCru+68KjXkNLOE9k60E7+AqjvgQHTlCjI3LvJ2gY0ebVu+bUn9hF9oPnGR4sCOD0FIOVq0YuF2TGhQEPXnV+ntJvq/A3VHqVakbNcTGq42H8upzBAaCnP4hYPxm5mwUXrsktRDsB2bDUnbVy0jhadL7/XhCeXGCq9la5AjM5l2VTg+PrnCCyHOm0G3UkBC0n5ZpJxgUYDjvqXK63deAQ42VPotMZD/t4+AboQdAhRmDBCl1z6y8Z8BUnAcXKpi5AINzXFgo/RgTkOOD2isOMh2shvDJ4EgD06ia9pEoMprh0RjpgUySCzH8b5xyiOnhQKEGXQ1LRo4+AHhi8Dx+5VK9aToz7wfcAyZbBCVJhINApgTeuTTUHpCPh3NaAS/KzhVuSi9HfRuhssFFigTYaP00HiYREBbxUGwY1lHiZDY0XAR5DMt9uknybf5IlJ4cVU9QErBW0aUeQcWDEg2hxIEowOHvMI9ZEZ7aH2Dd2Ax09wPiCg1kfAQKCNGI+ysN/hMJl7L1LISHiJ234lT+TDv3UyWgSnkvzcRs6tMnuTjGiRCclF6aC6+iJyUHnZPOsTNUHZJrZ6hVM4bVOIdMDki7QCpEIgG5bBihFJ+cmujdyCqddxxP+BUSonoJr4lH9/W9k+BL8iv0ttEkblZioovM3M7t98YOSMQAp1DKOkTqAEtLl5D70I3lB7t9DgJt4oLMBvqyFBaaXMo0gkzF1IhcFw+SSnwm+b9gJuJaT9pPyByFLErxfGTJUoNI1NO3g+I3EARMwQQ9fcg7az9SI7+r0kh/USEHwIIoOMkQd7NrGYY7MaoyaUbqBHVYGzYT34pGmsu3NNQFDoyrT8/HwmMiBhnHO8ZqxQS7bH7Q99ASI2XX5ICBYzdCY7fvqAUchfzChDsMEKX5X90dJPU8SITpecf3zjPfDnDS+nh3Yx3hUl+Liulh8hAvAy5FJdEaRwkRKNNSQtqj+32yWeYbyuCNrhLT4oKe9PwUu+A3+952m0hHQK7rgyZIJMWYP7guqx3dCITzxTarU6lxQT4QQsl+CfdXk7Ph5kYfl6/1bdzfj3e9H+c8I2zLWBq4iTYGMEkDpo0XWH3VkTqAhelBzCx+uSg9HRNm9ih2EbthCTzc4keDQdWcdj5QQEupOAdBKEkLfCnglMSBywSKImDXeAUOrpS5LHIqQggdcG30qPvGpY5guSpOCb5CfzxfscwznbCr+eE0tM1iUQNMoDFTiRpWagZ1Qp+SpsFZoszaTeF4zLyA26mVR0UP8ygWOEl7QfEShORtDg6UlkkhOjnzKAlHqWezdiH2XZEZD/hk3wawUXbDx31+GDDbIPcyxwBfM8eINo/joJ3gomw2+nhS4Kow6RfankwgzhM8/cI+hPRji9qDrANpk0dXBD+juNdY8rUPmLvyPsBYXZBIEqSglQSkJTj+PWKetW30wk/IOZzmv2AuknqSDwe2Dn5RWaS84nTs/+yJutZXDi1Kd8W5OuZCDulh9DYvmSaA6koB4HCwUu2e4Jh7HjB6ywCgCE3hpswxxJjAYJiHChFtITYV2AGBe0VdgtJC8jK/7426x1d4AekXTcWIdi1In8tTQLyaZit/eZpgofztUPShBDfvv6DfNm/W1nPtoHOKD0gjBf2zsP+Qp3jGBF8EWcOTI6+Q5eFZSq9ZNOyu0DR2ZnE5IEDkbaraefnpUOQAtQN/IliLoEV/tFNDd5RRkvMM+EHpECYKX1LFBSi64J5CPJpEBT4Eamk7gelaM9BibFfLa9nlTNdqMdY8B4gBi9dfzq7nR46B7/eo5sKdTOZz2BymUnBFUlIhgYWAR064ppp02/fsYlCjUAcH52o1FaKeM37ATdSbqDObtnvM3XOy9Iw5tpDfsAOdZ4yyPsBOTFe6PTJz7mooOJX6aE4MhYKaVgQ+MEujnOwWIR/DO8ZWEtWURxD0hSCfvsNxeeI0uOli5P062ES6uSuYTcxoXcyCtrvRI3rPCSW43jH6DKqBnHUCzrBLhDRaEnngsIPiChlHL+kVTXqSWKHDiU4koJi4qKOi2MswLTkV7AwQerCWQxzTP32gft5WEjD/wycQfSNnDekZ9ko+B7pCi/tcrz1/ekFgJwoHcot3Y7rnI9VUJaWQ0n4Y/CS1hEoPITTi5yMAHLGXje01DvqiV1iKfyAFBG7mMxuHOYZoha3H8qqv1LgAIjX8woQaRG2jyfCykHu7Xf3gBexKL2T52+Q/2H3DGsVFu+IRsdcM1EWQdoQ1bVHDMw3LJUePB3wAyzWpN2KCljstMDQETdbBGrX+TUL5ft+lgUJ6fm2JvUTSeXTaSeBI7fjgh8wFwwDf0bSgkojj7zY4B3lx3fu0/oXU2J8ibcYTLp9us8H3sgZ9Vt9O2jpGN32uXQ+3lXAubmS41K5hgvOLJUewIEfgIvSQ3uwSopb6cEM5zfqDW3EahqRgiL+EUCgBYrO4kDdwW20CvYS4mmHjYVO0itimJ1Awo6jqGOd970AKTbMoCjHZYsgdcGv0sN5SEMBEbhI2wigxM462sXBTA5FhzmbtOm+7RaH+9cuZfrfAbZKj1uSehIUSbqmTSwUTGtMhTsV7b0b6g8O7Fym3j6qzKvtmKsM0egVpU36ZQLzIPIScfx8WT35K/P5gCVqGPyAjGFHviLKOvkRKLyNB5qcTrvxg0Ohc5DKBeWWV3II2zew8BW6tXWfYVHUxYAJia3SG96tWKsIZdQjhtp68JnG9WLBs7Dj0JGzyAQmEh4C8K2hAC8OsMyjaj3MoM9TiSREGCYtWw8epQjVrPrT6iyVQzrhB0T0KnhsOYlukjr8ei7nmvoZG7g3NtJ7p7mSO8Rg3vlpexznwE9v8j5m+5aE834IET2vp8nPQRDsgFVWf2LbiENgpthf5//Fimg/mLxEokGgjPxSCK7AcfRYhWdSyqdDcCBSwFz598YG70DuIgixkQ+IepCobZi0gFAA5OKoquFHPMvKGekin8ZCCv32Ak5oN5c38/rBK43n9KL5ZCJslR46A3MdF6WH9mBC9u8UD0WSrmkTgQJgtBeJHgH4AbELwfHBM8sVTEx5PyBCwZP2AyJ36entjd4BP+8YaidyNxERmuQcQerCnq0+lR6TxW5UswnL2R3kP0YyPsgv8BNRlmk1VZrgDL5bE2Gt9ODX+4dJryK6Biuwi4ZEdPMWt9UnmGY9lC1659Z/sfvvT7uSt9KB1fpiMn9iF7h8dyOZRZPtK/yAKyggCsfPyA+IxREUIKwCsKTEuQeEX+8pqlbvR2DGww7alaT9Bkp5gvUGZlssnrE4QhCKiDkCqG9pImZXmTzJ4BpUXuYksK3HIQibRxShjnAsGKvTflfOBZPIRYNLvQMvuuW7c1XioQiTDh3HLgI5pzj+QMz5Pcg8lI8ERWSySUFOnXFDGpKOYPfTLybLik67/JwLeiwoN0/JUT82UUSqDsmEn2ek+RxYW3RID5pjxUurNG8Z/Q56GdSF48ChiKbBjIXVWdQRkrq7vJ5k1hxCFQhEeCFQSrxoUCo4jsEPSCv9vBkUCcJJC8jUH97Q4B0ghZ7cN2cChR8Q/w9bwI6jk6QOs99Fg8NuRfj3w2Ji6yEEnOSSv/GTyzsr/N7yuCMqrlQZzlHWSg/wwsTJZQJhcsMsMYVeDlGKLsF0Wrk2oxyDsO+NQCPMZRzvH1+usJuH3xZKEC9Jv2wlYbcrfz/kg8L0iAM7Puz8YAKFwsaOMAxBRCkOv31FtCy+c9wo2cDos96LqjxuqqTfM2KqDGOK+L7HOQG4kKN9e/vuQusnIpjFbxHK1u8S3l9g4oxS6cEnBMWqI7YXjNXpqyvnonzWpSPLvAORwXk/IF70eKkmKTDDoR04frqUoqhpVZ33A2KFbSoIsNHJdcRO9AXKSQQVW5KC0mL5vDjsPjcTkblfxZ1ku119Nkyb5w0yDyhMdjb5GBVTu62PWxudgkkfpSymlb9O9B9MraNpVS5iLwLgmZ1FfkAcSMxG0Im3CyQ/4AGNtJUoEMBOC6HzOH6/MutFf+b9gGCx0SkP+DzxnOrMbfQH9dzG96qOomsF74n2bSGllo+oxC58TyZ5U3TBxqb0QyyCkJdqKuzflihCCdstmME5yAZiisAqD76JKETXtAk/jM6LJ4o2yz3DQwAsExhTHP9PVXgRf3k/IJLRk5aXSQGAWQUH8v/QTphBJ5IfsIJyGVuTgxTY8ZsX9AuSQvn8c31WvWVENDl72H3C15oPOoHZEp/ZLBiHEWRGB9E3YiKaaCG1gFJYQGvogryGiOODCHulh60sBlCXeDkIKG1dixD0TRT9Zpoj0va9Ee2nNzGFjb4tRO3+G1QIXlw43jeuXO0mhZPzAzap1RQZmLSJDVXq4XrAAWU9Dn5ASojHSrwPBVfBF4fALyht7BJhrjQRlF6CX/FsundQwa4tH1EJkyVqLuruPoO2IezrEcg2yvMXF3sRjUhLwXuzuZw3qER98K+Hmn9k5e+g3psRcB6wV3oYGfj1uCg9tAd+vSiUHsrd6Pg8wFozgZg3RNKBQG96uV1MOx4cUDiotQgliHmT9O4EZtklZL7EAUEwDCwQ2RC8AfAxfuOZWvXeseVeLmTLF3pro58vjpr3x6Gsjg7LUWv3TfJz4AofK9K58oFRoONqT1BE2QV515jywIFNVrwx2fn1yM7/lhHhTyG8wHTkTFJ4KNsikj4EYFo8//QS7wBHI0xX2FGBIHtfbfLmOSgqPZtF22OIXe2vV9Srp7Y1eooPJbRazv18cVQoN/jibC6OmkejM/l7kd+IxH4oOSy2kQqjI4jMvXdJnc4lLM9FENX0AcF3+1YoPd0ilFGPWBRJ6jCxLKaVu45I1KYOWu6eizSASeRTw/Ex8gMi6CRvBkVQBoJRXJEt5Fr4zrO13k4SeX/I5QWtDHyNoPWy2VQJczDYfaDgQNA9kn6CkUZPxZ080lB4tz6V8QrHnvwXu/6H3f3HJ1cEwiLfYyuUnm4RynznovqJlTT8E2HlL6Gd8NHoVPDGJJDaeVGNsL33xQtyGNGL4Xjv2JwyWHTcDLqawv9dYQVBP6DcbRYUCEY1mZyZstjb0YVJDo70p5ufzHhsMDbjhLaD4g84hSFWKD10FI5aTpMc5pMwlR64GnUEEwCUVyKCQFsIgGD6zcNLvQPmvyXHFSB8bzoFitt6hvzNHwJ4X+QUXM4nB3OdpqXS34PoLFSzmPtExuMv9X0R0xMRmPNu8ueGJdYoPThuHyLKJC4CE2cQVoCW/dD15wnXZksE5f/tIYDUn3Mpig8HdkooRptLh2gyjqxs75lp/TtSmqDU8rs4/AxzkdwWrqBLhMIzjZZt695x/w05rF+cXhlqfUh7lF5IW9uwBi3MJHX4XXSp1sSfF9ZIpvM+iAJE5C+Oyyfl0nDyfkCk5LjkB4xjhGGWzAecwB83nMzLqMEYtyBK8xYyabpQbBbm32vOqVIDOrcfnaqDszVKD6skHFxWL6AiAl1UywgyHfDz5y7coWfaRK5KH0o6FREEwkIAYfA43j1Ged8xzw+4o9HbDbriBwwLKwSc9KPv34m0gWLVn17M8au4k3uEnfsd82udMFtjUXbljCpvIXFyL4P/zxqlh67CRMBF6SGEGvWxxoXAC6jLwiIV0oNPfLlD6whgcfnGYaXeAb8f/H8wg+In8gPTJmX0lkRgUD5tAD9hduMk2KV/k3IZdfJ8ObW/eVvKKF7lS6TwwPIThURz1yhaSvdEper5lKfDRRDMElTpQYnDnKQjwsKig5acGwQBlBiC7xoHFnqrKMo47wdEmoCLAl5HT8GRmRI/sQPGzoOrPL6lQf1gUV3iDD1h4IP59tVzKhV4XaOS6O4cQYux0+MkuXy9YJyAiNrU8Z90r+yghtKqU0QQiBsBBGeAYgzHRyfmiJkxf7HLQGS1zjyOu+2tPQ99Qr7fqzRe9I4BrZct8hDxkv5sWb2V2LfEuAvlXF53XpW3yGj5tzD/b5XSO51WXPChJV16JT8AKAEEY08QQ4d21CaR+wZ5Xr7t8lMQCIoAQslxvHN0GdF7HaUdYE4BohwQaMk4ShUCTojVJO+PA/FFGH75JPr6wKp69QBxmrogWGjMJoWHZPyoxSqlh5wWTFKUXuEg8G+gAvZAw+gi5E2toheEjog/TwctOTcuBMD/+HryA+KoowCv+VSM9uGNDWqzpuk+zPYi4AQBX83TBlC1BZ/bLFho/2xpnVfpwuZ+5NuO6MzZ51ep7j44RPPXBPlpldJDR8HDyUXpoT3rKF9vYGezUhcgDNaJjMMqFRWtRQQBzgigtM1rqfzLRUNK1YPrsuq3VBMvjp0fCNhh+m/uj3ONwAEk2j9YWKsep8oWLsgw2sRce26VAsdoXGLdGxQVF4i7PS582n0OGNxfM6Td0wqeoGvanEzRTJwd6gU7KR+mFgFQ5V1K9FH9aXd194KMAjF22IKSRudTFe0ZRESM4AcoPlcFkZnfeCbjmZFd6COCAK+moJW26jBG0U/rlB4SQPFl4kIsa0o+jRdAvgyL34EVFha/SMl5nBCYQoVmL5tUoX68ODymf5goX0s7SdBTeaTTnDocQVtQOup2ysFDLp4LgnfZl84mppUEFinWKT2EtA4k5znY1jnIrpqjHvuB7vYcpWB0aqBhcoBFX0QQsBEBmDuRbhRG9W7kEX7+7Ao1mlKY0iBgVwHLiis18WYNLlFXTK2MjHe0vTkRfahMey0w+Dun1AWEacOvpyu6pk2EicdtBtDtk5wvCLSGAG3M1NtHBUvvwb3h07/9NdWpUXjI4509r8YZhXfxiFL16WnJKTzMISuVXs6vh+bzECSp6wiir5DgqyMStamDlpzLEQEUPe5OuzRTgc/ueoryOw019FIgO4k4evZjGa9OoO3dhTkale8/MjGcmnhB8DCfgUGeGvBafpXU9XZ6oC/bXwfV50/gw5xK+XkigoDNCEBVmVpphlBU5jXnVqqyqGrxMAN2EyX7Y4eHEkG2C95fl5Oye+eY4Dv9MLCw0ijemxIZuxJV0AENxREGWK3dA0oMqQd+IysXEpGvjgynsN40OOt1MJFz7UQAlcF1BSWRrpwRf5SfbjvDOh+5uwhacaHeId6JMGeeR+WsuIj+DGTScuTicBGEEuvwZ+oSTAvXJpeRlnYERaAYy35N+ejEcoWFbhpkMeXuImjFBYUHou6vzKxipfAwh6ydSaZmkqi+OH5TF3aRnR4sLjoi/jwdtORczgjoUggiefmCwWbkD5xxKNS2J4nF5i7KZ8zqhQgUulXin2F3Dh5NpKtwE2uVHioucBK/RWV1d3mo02ViEuKEjbRFEMgjsJXqUOrIOyjiU39vqPMEHuc+vKFBffe5Wi2GJh4tP7UVII6+YVYV2whbXprjVPxa/QTlPsC+wKV+lN+dnm6qglRIb3UKyB8sQwCEEuvI/+1X8PKc3JePL8hvu3XP++PqrPo9UbXZWKWiZV/jJI5u+Wy//7d2pwcHKQI8uAiiMfe0U1/sICWZojKDjohpUwctOZczAqupFt9h+g74lbOJtcNvcJjfe3I6D0jcT2WBfveCGwoPxNE3XxhPpYQg42it0kOnOQWzoD1r2lFoyM3ToU9DhCqqSogIAi4g8Jxm1LLLC74ccXSdR8jtwthiA3LTrOrYKiUEwcxqpcfNr9ceM4uuaXMamXZsL4MSZHLKtW4hgIKzfqWCAiFASOyioOLE15+uVY9tbnCiexinORfEWykhCHBWzyqQT0MpcLGFt7XTy1KNseW7/X/pMahCMB1kasu1nBBAXb2X2zH/N28veGZLrF6SN+/Nid9Ra/BOysHjVB7tROv0f0M61RcTIo7Wb23uCqunVSeqL8cpshGRaa2FZC8lhacTdANibVdXuqaTVa6zFwGdXR566aJpE/7MGx/POKPwZlEqyZeJNCCJSglBvglWKz10nJNf7wil361vJTpN17Q50dGVbpDJKtfai4BOqg6CV1A70iXZV3dUXU+0YmBvckEuHllGTCsViVVKCIKh9UpvFLGuc5JC5NNwWoNpQUckVUEHLTmXMwLgj4R506+MJmLpKrLiuCIoPwbi6G2apBQc++8RR48j4ugJ5dbmT1q/nOK008MkXUth2UqdTKy6RjNU21vpMmQy4PgllDbxRwBcszp+d5cWfFD2NxOt2Cv1/lM1uI4oGORQDPiNw+xmyLFe6fUjAlsUcEWhRQ4C8yZa0nydquvPGEsrXfj0RAQBFxB4TiNqEzuJqf2sfy15w7Zm7xF12/yMyjTweDcFmUtYiHMjjjbtj/XmTXScEw9nDU3wbc2olrDCfWa7XlUFIZg2nc5yHTcE8H1AUrpfGUxMSz0D1Nzz+5yoz1vyUpOa+2SNEwoPxNFXMSSONh1DN5QeMx7Op5spuWfJtIPqx37FpZWu3z7Lee4isHhXo0KAl1+Z5sAub/62RnUH7fCy/nW9X3hiPy9PHD3ZIXeLE3aEUZSvx0keIvLY8waVeqG8oBnSkWFULLN7hRNrEZ1uy7mOIvDcDr03v+3+vH9vbFD3LqnTYl7iOvSoUH8tVUoAz7FL4oTSG9aVEllpXMB0wEFgw//Svw97TUFxWR1xMT9Jp/9yrjsIIC912W7/pn2QFcO8aav8eU1W/dYRHk2MxfXnV6m+1e4twJ3oERTeUGZfFig7XYWHL7v482x95Um7WyIABqJ6jY2eraZNhKn8Ynm9+s0Kt4ijXVR4mKNOKD105Axmfj20SVf6UiTqQGIqFxEEXEBAl5DBRisHCOR/uKhO/X1t1oUh8yrXzLWEONoUcCfMm+g8pwhO08Gw8Utv2le5zm0EoAwWURCLX6mmZPQxlKpjkzSSNefbz9ZqR2dz7eN4Io6+6pxKVVHsdrqUXbOsjdkyqnsxK/LpNpra6p9sd+K32jH5Q+oQQFHlgxoJ2YgOLLLoXQuO3TsX1GqTyHOdCB5x9HTi0UyBockZpYcqy33I+QrKHxsF7UfVCBFBwAUEdAkZbLJyIPfw1qcy2gWhuY7rhUQcfcXUCgXGlTSIU3r9DGY8nDoTaCrVzkvLpNPBRc61EwGdgrEIRAPBug2y/zhx9Lp2Ckbb0Be0EcTRnyLi6DS9e9xSemTitFXO6m9v223FXNodDQIosfWShsUFviQb/Ejo0+x5GbX1oJ3WpOaj7QJxdPP+6Pzu1JuWWyV1vwNRTo7j8b1K/J4u5wkCrBFw0bS5hRQ5iKMP1CFBwW7Brs4F4mjTUXBK6Q2gcH9EgcHmbpPAtFMq7jybhkza2gYCOrXzcrR7vBd8KBd2G/nwbHuvFBoiEEd/ZlqlOncQb8wLtT2sz5wyb8IPa2MwiE1O/LAmntzHTQRQLPXFA/6pkUZ0K1JdKYiLqywFcfQTNU4ovDxxdJoVHuaZU0oPHeJWXw9takuKaASmOETm2lZf5W/uIwDTpk7tPM4LvgVEHA/iaB1WGa4jjKK81xGPpkvE0aZYO2XeBAi2RXCOISYZmGRFBAEXEEDBWB3hqvQeebFB3fO8O8TRUHg285rqzKn2znVO6cFcgt2TTjmT9kCK8u/T+qfXth4lrnLv+BHINB5TK/f4J9sE7R788Nzkr0Qp9mtHeDR7Ue7ybEeJo03nDb8ZZ9qT49eVEa2DLaUw4MS3lWQ34DDJ5Q4i8PyuJi2SdY67vF+RsvsVkUfrmGi5DiUWFHMvdLNSQhDMnVN6AMMWHk6wmLtQJTrIBJRr3UFAl2D6LEYFY8EV+qPFdeqvVB7IBRlOFq+5F1ZLbc4Cg+mm0rOk4sKgLpKnUGBOykcWIgDy5SUU6ehXcrR7PLwrKAH2LSKOhh/PBUGy/5wLqlQniRUoOJw8Zl3Bppl/yK2Sems94Ryq3Vqb5XNBoBACK15uUnXk0/MrU5jQ7mWJOPqup2sVUhNckDQRR5uOl5NKr1sFmQ3Jgbsnw5su6Ij/d4Tp+Mp1gkAsCOhHbSb/6kGy+W2UkrB2r/+8wljANHxI2oijDWFSyc8805a3cx12e9yV3t5a3kq5HYjlz4KAhwCCPnRq5yFJekLvZF89B6jsEWjFtrzihsK7hIijPzShXEnyU/tfSid9eui2DZXUN+w/omSz1/4klTN4I7Ce5rEOJ+WE3iVEu5fc63k3WYBmP1bjhMJDBPj7xpWrD4vC8/0lcVbp2eDXO5Q95kwRSt8zTk50DgEdrk10Psk0HVSAgMLTqQLBdcBAHP2xSRXqHaPLuDaRZbucVXqIjKwoSW416Xe0/7nejRBpv/2V89xDQMefhw0egliSEOxI51BpoP0OVEoAcfTnzqpUbxhWmgSUVj/TWaWHVdBIylXhLkjoBcefiCBgIwI7Dh9VOPwK3A6dy+JfjC7f3aRufDyjDltWgaUQrh5x9DlVqa6UUAgXv585q/QAgC08nPdQUuwmRxzqfieenOcGAjoV0tHjJEybzxAfKKI06yk9wXbJEUdXq8mWVJrniLfbSs+SSuoInb7piYxaRqtREUHAJgR0WVjiph57dFOD+uYztarRgSDN06gE042UdD66B38LFuc57LTSg3kTZk4b5DAFtSCE+nsLa9Vm2fXZMGSpbyPC/uEn8yuDunRUfYh6Ly75+7qs+iFZUWwhn28LFxBHg1ZMKiW0hZK/vyWbLOOvjcZnIZAFAS22KBHkO83b3OgdQ7oWqbP6laipxE9oC4G28UDJhVYigF2eDjFznLu837xQr/682o0gsYFEHH0dVUroTqQbIsERcFrpAZ5RZAqwRek1H85NVH0ax+9XKo9dZioVmsVLY0zPYoXILRFBIGkEdKI20dY4lB6U8E+W1Kl/b3SDRxPE0ddSLTzh0Qxvtjuv9FBJ/eENdn8BwCzzL+oDjiravU4kJzbq8E2in/i/iCAQNwJ1FBTygkbtvG4VHdSwiKOpQRz93edq1fxtbkRDgzj66nMqVXmxfMfDnN8pUHpuOX1RqBNfahzY8WHnBxMoVtFSpijMr4bcqy0EllCqjU5wCOZnlK/uLBHZ3k3E0WiXC3I2LWq/ML1SlYhVJ/ThdF7pwQGMVaYLCaktRx8rW+Qf4fjZ0np1OvkvERKOFwx8glG+ZFq2Rf6fLgT0WViiS0jHQvC2pzJqjRBHp2sSGvbWeaUHXEZRQuwCR0werY0zfBnwXeL4w6qs6l7ZQU0l5gsowHFkJhE/YGvIyee6CGCxpbOjqiQTPOZgFPLKceJoG/32hfAQ4uhCqIT7WTQzMdw2Br4bKqm7rvRagrSv9pj6P3Lm40AUK/x/U0kBIqm1WopLtoRL/q+BwEry5WF35Vfgg45i0QVf902U5rNLgxHGb5vjPg/E0e8dWy48mjEAnwqld2bCZUxiGMc2H4HinlD6OIrIRzCadr4wg0IJ9ibzr4ggoIOALgsLUm/Clu2Hjqq5T9YoLO5sF+QSX07E0cKjGc9IpkLpDexcpPp16qh2OrAiDDotkKj7AlW5xnH/snqFHCCYQHEguk78gEERdvt6qJhFlJ/nV7DDm0TpNmEKSnLdQj48EDrYLsDnM0Qcfe7A8BcGtmMTVfvDnY1RtTKE+yIa6i9r3EhWDQEO7xbwA249eJSOrPoTJfIi4AcM+FCACJcucSvwNSzYUn2fjaRw9mlUKUB0cZhpNVis3bGgVsF6YbuAOPrLM6qERzPmgUyN0ps+QJRee3MLEa7/ebHBO5AbBF8MTKBTaKUuybHtoZeOv+tybYZp2oRZ9VvP1qoG/8xnbAcFxNHXUKUEkGeIxItAapTeMArhB1HrakfCmqOeJmCkf4ZKHuGAHxBJ/nk/YN8Y+ROj7qfcXw8BnVQFBGcghzQMmbe5wRkeTRBHX0csK8KjGcbM0L9Hh2Mk+pfZecWSl5rULRTtJRIMAfgBsQOEGXQE/IDiCAwGqCVX76o5qj77r8O+WzuUFpp3vrba9/mtnfggFVr+OfmfXXhTIW94NvFoysKxtdGO/vNwlmHRtzOUJyBsH1/EF4nTUsQcgW0UObftUNbzkWLVCgUIbtAze5eoUrHWmAPL/MokuDZ/t7Je/ZHyTl0QLBah8LoJcXSiw5kqpQek/3dcuRf55cKqMdGZc/zhSA5+hPyAOOCYn0CKD2ZQBMQkUSGbAyautkHHtAkMMA9MBd/Pny6ts543N99/WES+JsTReTgS/Wk+KxNttvnDEZxx3qAS9cQW/2HX5k9L15VZoj1EsAGOjh3q1EgiBcinQyBlRMReBA5SesC6ff4tJDDjmfqskFaDupJPbnXjOyrE0bzmfeqUHuD/yIQKtZT8e4ccyPPhNZ1OtOYordTBhYjjl8vrVX9Sejk/YDEpw2Jrivue6FG6f0NuHsbUr5ju8hCZ+fWnM2qxEEf7hVrO00QglUoPZjcwICD8WcycmjPG8PQdRAywY21W/Y2OLuQHhPkTkX0TiC2nrEgiYQxhje0yfdOmfrJ1LeXe3T6/Vq3SKFkUGwAGD7poSKn65JQKWeAZYBflJalUegD0HGJA2HigTP2dXsIi8SJwkPyAj25q8I4yCnwZT4oPZlAoQgTGiPBCAOkrK6iSh19BTudoSkrXEZhPEVntSpCZEEfrjH685+rNzHjbFvnTPjC+nKIQj2gxxkfeqJQ9IEvmrEU7m7wDfkA4/PPpEAMo2k0keQTgCtBJCJ9Mkbw6m/e9tUQc/UTGCZpApO+8j4ij/2d0WfIDJy0oiECq8vQKIQCTyrWP1pDyI++5CCsE+pIfcNpxMyjKQ4GYVyR+BFCN/HGNwK8rZ1QqMCD5EZi955LCg+KzXTA/P0Zuk9cPK7W9K063P/VKD6MLcxtKlGyhWnQiPBGAHxY7CJhB4QcETZpI9AhQQXJ1+d8PqZoGf1EsyNO879LOvsYHpsyb6XvnQkAZiKM/S8TRcJuI8EZAlN7x8TlMX2p8AUGoK8IbAbxYUZQUChCm0K7iB4xswFYQwfONj/tnMQJP6zXnVrXbHtTku4OCVmBpsV2Qn3olEUeD/EKEPwKi9JqNEb6AdxGDO77oInYgAB/KcGLZyadDDOoilDBhjtx9lCD+0PoG37dEtOJrh7Zt3kP6wzeeEeJo36DKiaEiIEqvBZzIRfrDqnqv1I5OXlKL28h/E0KgN5Fh53aAxV6xXJ2AioSazPqxVzx0WKFCuR+BT+ueizu3GYH7+JYG9YNFdQoJ6LaLEEfbOYKi9FoZN+z2vk15fKDZErETgWoKnc/7AcHEUyF+QK2BhM/tqkdqfF8DBp5bL2qdYPqhDQ3qZ7RzdCE3VoijfU8LdieK0mtjSDJk7vwTkd3+a2NWNYqrrw2k+P8JBXHHUu5YfhfYXUh/2x203xPZ8x80yJ7fR7y272glVP8Bsp48sNKNnNiBXYg4mng0hTi63SnE8gRRej6GZTeZd369ot6rLScmTx+AMT8FfsChp+V4QcEKY8oRybybgZv35f/UaEU03zCrSo1rkZQOOwl2dzp+wcANj/AGQhwdIbgx3VqUngbQyCVCvhIKWqK2mIgbCMBUBeWHXeAYygdE0dy0CxZ6n6HaeTqmyHsu7nTS7gfpDj8g4midHD/OuJ9JqTJXzaz0lY7BuR9pb5soPYMZgNUrGOdRTQCRaEiwFXEDgSryAyL0HAoQPytL0pkPiMKt9y+t1xrUn721swIFGQQMLuC2xXfEBTm7f4n6wvRKVSILIuuHU5ReCEMIpbeQlB+O9aQMxQQaAqgMboGEY/gB8+kQPSrT88abMy+jkEunI189p9LDajuxG6E00AZHcl6FOFpnFvA/V5ReyGMEdpdFu3IKcDmR9OpwFobcFLldiAjADwjf3zRKvoYSHEq5ga7KYSJ//tiDh7TTCpCk3a9TkecHdGXhd+nIMvXBCeUqnft9N2e4KL0IxzVL7PTLSPEtJELlxaQIXaBbihAuq26NXV/eD4jdIHaFrshj5LP+/sI6V7pj1A+POJqiUf9nlBBHGwHI+CJRejENDla+a/eRAtwBJdgogTAx4R7HY+D3Qx4g/IDIC6yy3A94J7ESueKLMxl/IY42Qc2ea0TpJTRWKGmEHSACYdaT70MnSi6hJstjfSCAHd9oigDN7wIRGWqTZCnk8jIimM7qufNs6mKbbRXi6DbhceKPovQYDOMB+AGPB8K8QEww4gdkMCghNAEmMnCBTjueDgE/IHffECqk30lE0GkUIY5Ox6iL0mM2zqhSjaKdMIE+Tz8RVCDiBgLdKjp4QTAwg6JKBMfwd/jy4NNLmyBV5ZpzqtSoHu4GKKVtTFvrryi91pBh8DmSe9fszQXCQAnuloR4BqMSThMq4AekZGdEgsIPmM9vC+fuZneB3/lj/ziUuoArIY42my+2XiVKz6KR23ow5weEAtxIZMDiB7Ro8NpoKhhgRnVHIExOCfahShFJCCKNUcU8TQKf6/XnV6mkME8T1lz6KkqPy0hotmN/3VHyAzYp+GCQRCyE2JoAMj4dhMYwgeJArUD4BuOQ257KUGpNeiJYhDg6jlnF7xmi9PiNiXaL6sgPuIReVtgBLiE/YA1VgRdxA4Gu5Aec0jenAMeTHxBV46MQECnMfTKTGuvBCCqD9DWq8M7BrBzFeMo9W0dAlF7r2Fj5FxTnXOX5AcEK0+S7AKiVnU1Zo8uJ8WRCbyjAYvIDlqjOZeFsAVEz8ppHa1IzV4Q4OmVfnBbdFaXXAhDX/rv5lRN+wE30u/gB3RhhJFCfQZGG07ALJDLkvoZ+QCi8W8msiYKxaZDpA0rU588W4ug0jHVrfRSl1xoyDn6O0kjwA8IMCj9gkxSHcGaUB3QGLVrODIqab1CK7QkCV360qE7toXmRBhHi6DSMcvt9FKXXPkZOnlFLVeGRB4ik+OfJH4j/i7iBQJdyygekHSBYYcAL2rw80mHy964gAoRHXmzwfqZl53/pGUQcfaYQR7sxw4P1QpReMPycuBo7Puz8sAPEThA7QhE3EEDkZzdSgmXFHVSGFjYgPU+LosMICnG0G/M4zF6I0gsTTUfuBf8OFCACYbZQbmCaXpKODKF0gxDwiKMnV6jXDy0VPASBVxEQpfcqFPJLIQT2ZKhALtIhqAL2aooKFT9gIZTkM24ICHE0txHh0x5RenzGgn1LMuQPgh8wnw9YJ35A9mOWxgYKcXQaR91/n0Xp+cdKzmyGQCO5/VARIl8dYn+dBMI0g0d+TQiBaiKO/iolnY+i5HMRQaAQAqL0CqEin2khAHW3kWoC5vyAjWrrQQmE0QJQTg4FARBHzyYezdOpnJOIINAaAqL0WkNGPjdGYDf8gAiEoSrxa6haPFhiRASBKBHoTcTRUHhCHB0lym7cW5SeG+PIthfIC3t+Vy4SFHUCUS9QRBAIEwEhjg4TTffvJUrP/TFm00NUgkBiNHaBi0gRHhA/IJuxsbUhII6+lnx48OWJCAJ+EBCl5wclOSd0BJD7tx75gJQKgWCYbYfEBho6yI7fUIijHR/giLonSi8iYOW2egjsoqrw+UCYtXuPKFTxFhEEWkNAiKNbQ0Y+bw8BUXrtISR/jx0BUGUtPu4HXLa7UWXTU9c0dqxtfOBrhpSqT0yp8EWqbWP/pM3RIiBKL1p85e4BEWggP+ByUnygRIMiRCkckfQiIMTR6R37sHouSi8sJOU+kSMAk+f6fD4g+QJ3HBY/YOSgM3kAiKP/d1y5evuoMiYtkmbYioAoPVtHTtqtdpLSy/sB1+0TP6CrUwLE0R8n4ujXCXG0q0Mca79E6cUKtzwsKgQOkh8wT4m2goqjZtNRCDwqONncV4ij2QyFMw0RpefMUEpH8ghkjxxTyzxi7JwfEIExIvYhAOLor8yoUhP70C8igkBICIjSCwlIuQ1PBOAHXEtUaAiEgSl0l/gBeQ5Ui1Yh2fwaSjo/Q4ijWyAj/w2KgCi9oAjK9VYhsJ2S4PN+wA0UFCP5gPyGrysRR18nxNH8BsaRFonSc2QgpRv6CByg9IfFIMamA/RoSI8QSRYBIY5OFv80PF2UXhpGWfrYLgIgwl5KATCgRUOh3MPiB2wXs7BPGNSlo7ruvCrVraJj2LeW+wkCryIgSu9VKOQXQSCHAEyeq/ee8APuJoo0kWgRGEm+u68JcXS0IMvdPQRE6clEEATaQWDrQRTIzQXCbCSSbJBli4SHgBBHh4el3Kl9BETptY+RnCEIvIrA/rqjlA+YU4Av7GlSKJckYo6AEEebYydXmiEgSs8MN7lKEFB15AdcQv4/JMU/v6tJ1VDBXBH/CAhxtH+s5MzwEBClFx6WcqcUI0D58GoV7fwQCYqd4MsZ8QO2NR3eekaZ+sCZ5UpKv7aFkvwtCgRE6UWBqtwz9QhsfuWEH3AT/S5+wNyUEOLo1H81EgdAlF7iQyANcB2BvbUn/IAraTfYlNJNoBBHuz7T7eifKD07xkla6QgCtY05PyDMoEvID5ih/6dBQBz9ubMq1cyBJWnorvSRMQKi9BgPjjTNbQSw48v7AZESgR2hi1JOfNFXCnG0i0NrZZ9E6Vk5bNJoFxF4kXIAc7ygTWoL5Qa64AfsXNZBXX2OEEe7OF9t7ZMoPVtHTtrtNAJ7aNfnJcQTLRrYYWz0A47qUaS+OL1SdRdaMafnqm2dE6Vn24hJe1OHQIby/8AHil3gUvoJvyBnKSlS6m2UkvDO0eWqSGg0OQ9VKtsmSi+Vwy6dthUB7PheoIoQuXzARrWvjpcCHNuzWH18coUa0Fm0na1zzPV2i9JzfYSlf84iAHXn+QHJBApT6NZDyfkBh3YtUu8dW64m95Uq585OOEc6JkrPkYGUbggCu4kFJrcDbPL8gEciDgZF3t3EPsXqjcPK1CRSdsKuInPQBgRE6dkwStJGQUATAfCALt6V2wEuIz8geELDksGnFamz+5eo808vUSj6KiII2ISAKD2bRkvaKggYIIBKEKgM/xwFwmAneJAqxvsV0Ib1IsU2iurdjepRrMb3KlZ9qkXR+cVPzuOHgCg9fmMiLRIEIkMA6m7X4aNqJx0H6o96kaCNZAY9RkmBHUjDIZG8oriDqi7t4Ck3KLiyIjFcRjYgcuPYERClFzvk8kBBQBAQBASBpBAQO0VSyMtzBQFBQBAQBGJHQJRe7JDLAwUBQUAQEASSQkCUXlLIy3MFAUFAEBAEYkdAlF7skMsDBQFBQBAQBJJCQJReUsjLcwUBQUAQEARiR0CUXuyQywMFAUFAEBAEkkJAlF5SyMtzBQFBQBAQBGJH4P8DwcdtTpLEBccAAAAASUVORK5CYII=;container=0;" parent="k-FW7ElJ1eN7muQu-FQ2-10" vertex="1">
          <mxGeometry x="18.47" y="38.80000000000001" width="36.162" height="36" as="geometry" />
        </mxCell>
        <mxCell id="k-FW7ElJ1eN7muQu-FQ2-13" value="influx-load-test" style="aspect=fixed;sketch=0;html=1;dashed=0;whitespace=wrap;verticalLabelPosition=bottom;verticalAlign=top;fillColor=#2875E2;strokeColor=#ffffff;points=[[0.005,0.63,0],[0.1,0.2,0],[0.9,0.2,0],[0.5,0,0],[0.995,0.63,0],[0.72,0.99,0],[0.5,1,0],[0.28,0.99,0]];shape=mxgraph.kubernetes.icon2;kubernetesLabel=1;prIcon=pod" parent="1" vertex="1">
          <mxGeometry x="110" y="300.28" width="93.75" height="90" as="geometry" />
        </mxCell>
        <mxCell id="k-FW7ElJ1eN7muQu-FQ2-14" value="" style="shape=image;verticalLabelPosition=bottom;labelBackgroundColor=default;verticalAlign=top;aspect=fixed;imageAspect=0;image=data:image/png,iVBORw0KGgoAAAANSUhEUgAAAjEAAAIBCAYAAAC4Fe5ZAAAMS2lDQ1BJQ0MgUHJvZmlsZQAASImVVwdYU8kWnltSIQQIREBK6E0QkRJASggtgPQiiEpIAoQSY0JQsaOLCq5dRLCiqyCKHRCxYVcWxe5aFgsqK+tiwa68CQF02Ve+N983d/77z5l/zjl35t47ANDb+VJpDqoJQK4kTxYT7M8al5TMInUCAjAEZOAJAF8gl3KiosIBLAPt38u7mwBRttcclFr/7P+vRUsokgsAQKIgThPKBbkQHwQAbxJIZXkAEKWQN5+aJ1Xi1RDryKCDEFcpcYYKNylxmgpf6bOJi+FC/AQAsjqfL8sAQKMb8qx8QQbUocNogZNEKJZA7AexT27uZCHEcyG2gTZwTrpSn532g07G3zTTBjX5/IxBrIqlr5ADxHJpDn/6/5mO/11ycxQDc1jDqp4pC4lRxgzz9iR7cpgSq0P8QZIWEQmxNgAoLhb22SsxM1MREq+yR20Eci7MGWBCPEaeE8vr52OE/IAwiA0hTpfkRIT32xSmi4OUNjB/aJk4jxcHsR7EVSJ5YGy/zQnZ5JiBeW+my7icfv45X9bng1L/myI7nqPSx7QzRbx+fcyxIDMuEWIqxAH54oQIiDUgjpBnx4b126QUZHIjBmxkihhlLBYQy0SSYH+VPlaaLguK6bffmSsfiB07kSnmRfTjq3mZcSGqXGFPBPw+/2EsWLdIwokf0BHJx4UPxCIUBQSqYsfJIkl8rIrH9aR5/jGqsbidNCeq3x73F+UEK3kziOPk+bEDY/Pz4OJU6eNF0ryoOJWfeHkWPzRK5Q++F4QDLggALKCANQ1MBllA3NpV3wXvVD1BgA9kIAOIgEM/MzAisa9HAq+xoAD8CZEIyAfH+ff1ikA+5L8OYZWceJBTXR1Aen+fUiUbPIU4F4SBHHiv6FOSDHqQAJ5ARvwPj/iwCmAMObAq+/89P8B+ZziQCe9nFAMzsugDlsRAYgAxhBhEtMUNcB/cCw+HVz9YnXE27jEQx3d7wlNCG+ER4QahnXBnkrhQNsTLsaAd6gf15yftx/zgVlDTFffHvaE6VMaZuAFwwF3gPBzcF87sClluv9/KrLCGaP8tgh+eUL8dxYmCUoZR/Cg2Q0dq2Gm4Dqooc/1jflS+pg3mmzvYM3R+7g/ZF8I2bKgltgg7gJ3DTmIXsCasHrCw41gD1oIdVeLBFfekb8UNzBbT50821Bm6Zr4/WWUm5U41Tp1OX1R9eaJpecrNyJ0snS4TZ2TmsTjwiyFi8SQCxxEsZydnVwCU3x/V6+1NdN93BWG2fOfm/w6A9/He3t4j37nQ4wDsc4evhMPfORs2/LSoAXD+sEAhy1dxuPJCgG8OOtx9+sAYmAMbGI8zcANewA8EglAQCeJAEpgIvc+E61wGpoKZYB4oAiVgOVgDysEmsBVUgd1gP6gHTeAkOAsugSvgBrgLV08HeAG6wTvwGUEQEkJDGIg+YoJYIvaIM8JGfJBAJByJQZKQVCQDkSAKZCYyHylBViLlyBakGtmHHEZOIheQNuQO8hDpRF4jn1AMVUd1UCPUCh2JslEOGobGoRPQDHQKWoAuQJeiZWglugutQ0+il9AbaDv6Au3BAKaGMTFTzAFjY1wsEkvG0jEZNhsrxkqxSqwWa4TP+RrWjnVhH3EizsBZuANcwSF4PC7Ap+Cz8SV4OV6F1+Gn8Wv4Q7wb/0agEQwJ9gRPAo8wjpBBmEooIpQSthMOEc7AvdRBeEckEplEa6I73ItJxCziDOIS4gbiHuIJYhvxMbGHRCLpk+xJ3qRIEp+URyoirSPtIh0nXSV1kD6Q1cgmZGdyEDmZLCEXkkvJO8nHyFfJz8ifKZoUS4onJZIipEynLKNsozRSLlM6KJ+pWlRrqjc1jppFnUcto9ZSz1DvUd+oqamZqXmoRauJ1eaqlantVTuv9lDto7q2up06Vz1FXaG+VH2H+gn1O+pvaDSaFc2PlkzLoy2lVdNO0R7QPmgwNBw1eBpCjTkaFRp1Glc1XtIpdEs6hz6RXkAvpR+gX6Z3aVI0rTS5mnzN2ZoVmoc1b2n2aDG0RmlFauVqLdHaqXVB67k2SdtKO1BbqL1Ae6v2Ke3HDIxhzuAyBIz5jG2MM4wOHaKOtQ5PJ0unRGe3TqtOt662rotugu403Qrdo7rtTIxpxeQxc5jLmPuZN5mfhhkN4wwTDVs8rHbY1WHv9Ybr+emJ9Ir19ujd0Pukz9IP1M/WX6Ffr3/fADewM4g2mGqw0eCMQddwneFewwXDi4fvH/6bIWpoZxhjOMNwq2GLYY+RsVGwkdRondEpoy5jprGfcZbxauNjxp0mDBMfE7HJapPjJn+wdFkcVg6rjHWa1W1qaBpiqjDdYtpq+tnM2izerNBsj9l9c6o52zzdfLV5s3m3hYnFWIuZFjUWv1lSLNmWmZZrLc9Zvreytkq0WmhVb/XcWs+aZ11gXWN9z4Zm42szxabS5rot0ZZtm227wfaKHWrnapdpV2F32R61d7MX22+wbxtBGOExQjKicsQtB3UHjkO+Q43DQ0emY7hjoWO948uRFiOTR64YeW7kNydXpxynbU53R2mPCh1VOKpx1GtnO2eBc4Xz9dG00UGj54xuGP3Kxd5F5LLR5bYrw3Ws60LXZtevbu5uMrdat053C/dU9/Xut9g67Cj2EvZ5D4KHv8ccjyaPj55unnme+z3/8nLwyvba6fV8jPUY0ZhtYx57m3nzvbd4t/uwfFJ9Nvu0+5r68n0rfR/5mfsJ/bb7PePYcrI4uzgv/Z38Zf6H/N9zPbmzuCcCsIDggOKA1kDtwPjA8sAHQWZBGUE1Qd3BrsEzgk+EEELCQlaE3OIZ8QS8al53qHvorNDTYephsWHlYY/C7cJl4Y1j0bGhY1eNvRdhGSGJqI8EkbzIVZH3o6yjpkQdiSZGR0VXRD+NGRUzM+ZcLCN2UuzO2Hdx/nHL4u7G28Qr4psT6AkpCdUJ7xMDElcmto8bOW7WuEtJBknipIZkUnJC8vbknvGB49eM70hxTSlKuTnBesK0CRcmGkzMmXh0En0Sf9KBVEJqYurO1C/8SH4lvyeNl7Y+rVvAFawVvBD6CVcLO0XeopWiZ+ne6SvTn2d4Z6zK6Mz0zSzN7BJzxeXiV1khWZuy3mdHZu/I7s1JzNmTS85NzT0s0ZZkS05PNp48bXKb1F5aJG2f4jllzZRuWZhsuxyRT5A35OnAH/0WhY3iJ8XDfJ/8ivwPUxOmHpimNU0yrWW63fTF058VBBX8MgOfIZjRPNN05ryZD2dxZm2ZjcxOm908x3zOgjkdc4PnVs2jzsue92uhU+HKwrfzE+c3LjBaMHfB45+Cf6op0iiSFd1a6LVw0yJ8kXhR6+LRi9ct/lYsLL5Y4lRSWvJliWDJxZ9H/Vz2c+/S9KWty9yWbVxOXC5ZfnOF74qqlVorC1Y+XjV2Vd1q1uri1W/XTFpzodSldNNa6lrF2vay8LKGdRbrlq/7Up5ZfqPCv2LPesP1i9e/3yDccHWj38baTUabSjZ92izefHtL8Ja6SqvK0q3Erflbn25L2HbuF/Yv1dsNtpds/7pDsqO9KqbqdLV7dfVOw53LatAaRU3nrpRdV3YH7G6odajdsoe5p2Qv2KvY+8e+1H0394ftbz7APlB70PLg+kOMQ8V1SN30uu76zPr2hqSGtsOhh5sbvRoPHXE8sqPJtKniqO7RZceoxxYc6z1ecLznhPRE18mMk4+bJzXfPTXu1PXT0adbz4SdOX826Oypc5xzx897n2+64Hnh8EX2xfpLbpfqWlxbDv3q+uuhVrfWusvulxuueFxpbBvTduyq79WT1wKunb3Ou37pRsSNtpvxN2/fSrnVflt4+/mdnDuvfsv/7fPdufcI94rva94vfWD4oPJ329/3tLu1H30Y8LDlUeyju48Fj188kT/50rHgKe1p6TOTZ9XPnZ83dQZ1Xvlj/B8dL6QvPncV/an15/qXNi8P/uX3V0v3uO6OV7JXva+XvNF/s+Oty9vmnqieB+9y331+X/xB/0PVR/bHc58SPz37PPUL6UvZV9uvjd/Cvt3rze3tlfJl/L5fAQwojzbpALzeAQAtCQAGPDdSx6vOh30FUZ1p+xD4T1h1huwrbgDUwn/66C74d3MLgL3bALCC+vQUAKJoAMR5AHT06ME6cJbrO3cqCxGeDTYnfU3LTQP/pqjOpD/4PbQFSlUXMLT9F8WngyBMewIsAAAAVmVYSWZNTQAqAAAACAABh2kABAAAAAEAAAAaAAAAAAADkoYABwAAABIAAABEoAIABAAAAAEAAAIxoAMABAAAAAEAAAIBAAAAAEFTQ0lJAAAAU2NyZWVuc2hvdNXJwEMAAAHWaVRYdFhNTDpjb20uYWRvYmUueG1wAAAAAAA8eDp4bXBtZXRhIHhtbG5zOng9ImFkb2JlOm5zOm1ldGEvIiB4OnhtcHRrPSJYTVAgQ29yZSA2LjAuMCI+CiAgIDxyZGY6UkRGIHhtbG5zOnJkZj0iaHR0cDovL3d3dy53My5vcmcvMTk5OS8wMi8yMi1yZGYtc3ludGF4LW5zIyI+CiAgICAgIDxyZGY6RGVzY3JpcHRpb24gcmRmOmFib3V0PSIiCiAgICAgICAgICAgIHhtbG5zOmV4aWY9Imh0dHA6Ly9ucy5hZG9iZS5jb20vZXhpZi8xLjAvIj4KICAgICAgICAgPGV4aWY6UGl4ZWxZRGltZW5zaW9uPjUxMzwvZXhpZjpQaXhlbFlEaW1lbnNpb24+CiAgICAgICAgIDxleGlmOlBpeGVsWERpbWVuc2lvbj41NjE8L2V4aWY6UGl4ZWxYRGltZW5zaW9uPgogICAgICAgICA8ZXhpZjpVc2VyQ29tbWVudD5TY3JlZW5zaG90PC9leGlmOlVzZXJDb21tZW50PgogICAgICA8L3JkZjpEZXNjcmlwdGlvbj4KICAgPC9yZGY6UkRGPgo8L3g6eG1wbWV0YT4KuIFFSwAAQABJREFUeAHtvQe4JEd57/32hJPD7p7NOUpaaVd5lZBQlgBhggCDASN/Aoy59rW54PDZYBvbhHv9+eKPa2MwXMwlGmELjMBkJSSUc1qtNufds3vCnhxmum/1nLAzc6Ynde7+9fPMM91V9b711q96d/6nurpKM9QhHBCAAAQgAAEIQCBkBFIhi5dwIQABjwnouiEjY5OSVX/vjIxNiK7ruWszjIlMVsYnMwURjU9kZVKllzrSqYQ0NhT+t9OkrtPJZK54a3ODaJomCfVpbWqQhnQy9ynlizQIQAAChf+bwAMCEIgUgawSIEOjEzI8Op77Ns+HRtS5+gwrYTJsXuc+U/n516ZwGR2fnOUxNWZb78BtDXZzihrS1tIojakpQdParM6VuGlRIscUPe0qr02lTZ035Mqa1x2tjdLZ1iydrU0Iodle5AQC0SKg8TgpWh1Ka+JBYHwiI939Q3Kif0R61Kd3QH0GR6VffXoG1PfQiDofk4Hh8RJA5qiEEmXmJvkpYuZGU23KVFubG9OyoKNF5ilRY4ob87urs1XmtzfLovlt6rxFFs5rlXnq2hwF4oAABMJBABETjn4iypgRMEdBjvYMqM+QHDkxkBMs3X3DOdFyQomXKXGSJ0byTiujqqnwrLswi5jZRsycWCBIJBJK2DTJkgWmsGmVpQva1bn6dLXLUvVZ1tUx53HYjEu+IQAB7wkgYrxnTo0QyBEw540c7D4lB9Tn4LF+OazEypGeQTmmPv1DY1VQyvslzjutbFhT4Vl3cRAxs40Va0bmaI0pbpYqQbNycaf6zJOVS9T3onm5R1qnfXAGAQi4TQAR4zZh/MeegDkx9mB3v+w61Ct7jvTJgeP9cvD4KTnWN5SbJFs/oLwf2rzTyv5qKjzrLnwipkw7y2RNNbhigVku+Sfm46lVS+bJCiVoVqvvTasXycaVCxE3+ZA4h4CDBBAxDsLEFQTM0ZU9R/tk96Ee2XW4Nydc9h7pVW/wlH5bR8r8xV+ZZt4Pbd5pTXaVC8+WQMTMoqhwMtUZU7xEvW0lsmKhEjSrumTjqkVy1trFsnntUiYbV6BINgSqIYCIqYYSZSBgQeB475A8v/uYPKs+rxzsyY2ymG8EFRxFlwV5iJhCHObVHF5zEubalEwpY1cma8pVxQIla8y3nRExpQqar5Wfu3G5XHTWSrlo8ypZu2xBqWKkQQACFQggYioAIhsC+QTMOSzP7z4uL+w5Ls8p4dKt3gyaOsr86JXJKvGLnV9dhfM8x3mnFYxUdk2FZ90xEjOLosLJFN9yIqbYgflm1LbNq+WaizbIBWeslESCN6SKGXENgVIEEDGlqJAGgWkCgyMT8thLB+XRlw4p0XI89xpzaThlhEGZrHoFxVQMeY7zTkvHl59aU+FZQ0TMLIoKJ1N8axExUw6n7MxXwa++YKNcv22TevS0pEJdZEMg3gQQMfHuf1pfgoD5htAjLxyUh9Xnhb3HZc7joRI2ZcVIWc1QNrNkTacT82zzTk/nW53VVHjWCSJmFkWFkym+9YqYfOcrFnXKDdvOlNdfdU5uTZv8PM4hAAE154zF7rgNICCyV03GvffJvfLISwdk37FTdSApIwzKZJUVPxWjyHOcd1rRjMdJVWCvCWgR8ilbJ0TMjOMGtVrxtRdtkjdfe27ubaeZdL4hEHcCiJi43wExbr+57P69T+6Rnz62W3YcPKlI2P/hKomzrNuymSXdnU7Ms807PZ1vdVZT4VknjMTMoqhwMsXXSRGTX+H5m1bIrUrMXLZ1LasL54PhPJYEEDGx7PZ4N3qnev35Rw+/Ivc8tVftDZS/eWF9P+5TNMvYlslyTDiVraO4v2sqPGuMiJlFUeFkiq9bImam8jVLF8htt2yTq87fkHuNeyadbwjEiQAiJk69HeO2ZrK63P3Ebrnj3hfkcPfgLInCn/PCq9lCVZ2UsS2ThYgpAXcOrzkJJYxKJZWxK5M15aligVIVTqdN2botYnKVqarOWb9U3vvGy3KvbJcJiiwIRJIAIiaS3UqjZgiYi8/95NFd8h0lXrp7h2eSZ78Lf6oKr2YLVXVSxrZMFiKmCG5JViUTiwxLXZaxK5M15aligVIVTqdN2XolYmbiveTs1fLeN10uG1YsLBMbWRCIFgFETLT6k9ZMExhTuzz/8KEdcuf9L0nvqVFLLoU/VYVXlkYlM8rYlslCxBTBLMmqZGKRYanLMnZlsqY8VSxQqsLptClbr0WMWXlSbWBpzpe57fWXirmgHgcEok4AERP1Ho5Z+8wfjgee2y9fuusJMXd9rnQU/lQVXlWyLcwvY1smCxFTSLH03OqyAIsc5F+WsSuTNeWhYoH8iorOp2z9EDEzgZiL5/3Xt18trzp33UwS3xCIJAFETCS7NZ6N2q32KPrsvz0iO/abbxpVdxT+VBVeVefBLFXBrmx22cwKIeTZ5p1WMKocr4WDqR/lmirK81SlXcliJRPzfFudlrErkzXlrWIBq0pV+pStnyJmJrjrLj5DPvjWK1ljZgYI35EjgIiJXJfGr0HmpF3zsdHXfvKsZNQcmFqOwp+qwqvq/VSwK5tdNrNCCHm2eacVjFR2TYVn3SFiZlGUOTnNNggixgy0s61Z/uS2G8ScM8MBgagRQMRErUdj1h5zL6NPf/1B2a12jJ46Tv+IVIOisHThVTX2VdVZ1m3ZzAoh5NnmnVYwUtk1FZ51h4iZRVHm5DTboIgYM1hzJ+03XX2ufODWV0kqmSgTP1kQCBcBREy4+oto8wj87LFd8rnvPS5jNtZ6Of2TYzouvMqrqsJpBbuy2WUzq6+3Jjc1FZ6NAREzi6LMyWm2QRIxMwFv3bBcPnr7TWLOmeGAQBQIIGKi0Isxa4OuG/LPauLuf/zy5RItP/0jUiJzTlJh6cKrOYUtEyrYlc0um2lZ41RGnm3eaQUjlV1T4Vl3iJhZFGVOTrMNoogxA5/X1iR/dvvNcuGZK8u0gywIhIMAIiYc/USU0wTMV6c/8dX75fHtRyyYnP4RsSgwmzy35NyU2cJlTyrYlc0um1m21gIxUpObmgrPxoCImUVR5uQ026CKGDN485HSR955ndx42Zll2kIWBIJPABET/D4iwmkCQ6MT8hf/+155cW93GSanf0TKFMplzS05N6WSj6n8CnZls8tmVqg+zzbvtIKRyq6p8Kw7RMwsijInp9kGWcSYDTDnyfzma7fJe265pEx7yIJAsAkgYoLdP0Q3TWBEbdb4x5//uew82FOByekfkQoFS/yUV29b6LuCXdnsspmF1cy5yrPNO51TbE5CTYVnrRExsyjKnJxmG3QRM9UIQ15/5Rb5fbWmTCKhVA0HBEJGgGnqIeuwOIY7MZmVv/yXe6sQMHGkQ5shYI/ADx98QT7+pR+LuVQBBwTCRgARE7Yei1m85l+zf/fth+S5Xcdj1nKaCwHvCDz03B75xJd/IlkdIeMddWpyggAixgmK+HCNwDd/9pzc//Q+1/zjGAIQmCLw4LN75O++cY/otT8HAyEEfCOAiPENPRVXIvDc7uPyjZ8/V6kY+RCAgEMEfv7oy/KZb94r6BiHgOLGdQKIGNcRU0E9BE4Nj8unv/GAGGpNGA4IQMA7Aj95+CX58vcf9q5CaoKADQKIGBvwMHWPwOe/95j0nhp1rwI8QwAClgS+/fMn5acPb7fMJwMCQSGAiAlKTxDHLIEnXzkq9z61b/aak1IEGKEqRYU05wh89o775JUD5dZkcq4uPEGgXgKImHrJYecKAXNLgc//x+Ou+MYpBKJJwB1Bay5t8PEv/lj6hxgRjeZ9E41WIWKi0Y+RacVPHt0lB48PRKY9NAQCYSbQ3Tcon/zyT3n1OsydGPHYETER7+AwNS+rRmH+9e7nwxQysUIg8gSe3nFIvvXjJyPfThoYTgKImHD2WySj/tULB6W7bySSbaNREAgzgW/99HHZe6TSlh9hbiGxh5VAKqyBE3f0CHz/gZdD1ahlXW2ydvkCWbmoXbo6WqSpISWtTWkZVBtVmrttd/cNyaHuAdl1qFf6B5lXEKrOJdgCApMZXf7u6/fIP/zRW9ljqYAMF34TQMT43QPUnyOw+0ivvLAn2G9CJNS2v+edsUyuPX+tXHTWclnU2Vp17+0/1i+Pv3xY7n5yt+xWooYDAmEjsGP/cbnz7mfkbTdeELbQiTfCBNjFOsKdG6amfeaOh+Wnj+0+HXLdS4ZW/6bG3JJzU8yAmhvT8rrLN8lbrj5bFtYgXE43pvBsjxJsd9zzgvzy6b02JkwWxVp0WVhj8VVNhWeNp7qkPlspsWf4rOP8k5LuSybmW1mcl7ErkzXlrGKBinXWfgvXUWfOpA672eirsM0r0pBOyZc++g5ZsXjerAdOIOAnAUSMn/SpO0fA3D337R//dxkamThNpPZfgGnbvP9xT3sreTa3ZGFKQjS56bKN8t5bLpTO1qaSPuwkHug+Jf945yPyzCtH6nBTGGu1GmGqoiLbKmtHxFQD6jTb2m/h07bV1JQrkzOpw262gipsi4pcce46+evfuWXWAycQ8JMAE3v9pE/dOQLPq8dIBQImAFwWz2+V//n7r5UP//oVrggYs4mrF3fK337wZvmjd12VG+0JQLMJAQIVCTz03F7ZvvdYxXIUgIAXBBAxXlCmjrIEHnnpYNl8rzMvOXulfOEP3yDnrF3kSdU3XrxRPveRN8jqpQzRewKcSmwT+MoPHrXtAwcQcIIAIsYJiviwReCRFw/ZsnfS+IZtG+Svbr9O2pobnHRb0dfKRR3y///+LbJlw9KKZSlgk0DR4xGb3mJp/tTLB9Vj0OD8u41lJ9DoHAFEDDeCrwQOHD8lx3qGfY1hpvLXXn6G/PFvXCnJhDaT5Om3KZw+/YGbEDKeUqeyegn8n7seqdcUOwg4RgAR4xhKHNVD4MW9wXit+lXnrpY/eMtl9TTBUZvGdFL++r3XyxoeLTnKFWfOE3hhz1F5dudh5x3jEQI1EEDE1ACLos4T2HHQ/1VAly9slz98x6sCs4iXOSLzl7dfLy1q4bxgHTyHCVZ/+BnN1L3w/fvYJsTPXqBuEUQMd4GvBHb6vPBbKpGQj73n6txKu76CKKrcnCPzu7f6PzJUFBaXECgg8Ktnd8uJ/qGCNC4g4CUBRIyXtKmrgMBkJiv7jvYXpHl98carz5KNKxd4XW1V9d24baOct2lZVWUpBAE/CGR1XX7xSLi2C/GDE3W6RwAR4x5bPFcgsOtwr5gL3fl1dLY1yntuOt+v6quq93dvvVTM7Q44IBBUAj9/bEdQQyOuGBBAxMSgk4PaxIPHB3wN7c2vPlstMhfs7cPWLp0vV5y7xldOVA6BcgQOHOuVnQdPlCtCHgRcI4CIcQ0tjisROKZ2efbraFA7Tr/xyrP8qr6men/92q01lacwBLwm8NCze7yukvogkCOAiOFG8I3A8V7/RMwVW1cFbjKvVUectWYhr1xbwSE9EATMrQg4IOAHAUSMH9SpM0fgeJ9/i9xdc/7aUPXCVeevC1W8BBsvArsPnZCeUyPxajStDQQBREwguiGeQRzzaSQmoVbkPTdky/tfdObyeN4ktDo0BJ5j4bvQ9FWUAkXERKk3Q9QWXTfUX26jvkS8cVVXaB4lzQA6a/UiaVLzeDggEFQCz7KXUlC7JtJxIWIi3b3BbdzQ2ISYQsaPY/WSTj+qtVWnuZ/TcrUAHgcEgkrgpb3HghoacUWYACImwp0b5KYNjUz4Ft6KReETMSaslYvDGbdvHU3FnhIwX7WemMx6WieVQQARwz3gCwFzJMb6cHeEZp5a5C6Mx7y2pjCGTcwxIWAuXLn/mP97ocUEN82cJoCI4VbwhcCgjyMxLY1B21ixui4Ia9zVtY5SUSBw6PipKDSDNoSIACImRJ0VpVCHRsuNxLjbUjW9JJSH+VZV/A53R+Xix9PdFh8+4e9eaO62Du9BJICICWKvxCCmER9FzMh4JpSEh8cmQxk3QceHwNET/m4lEh/StHSGACJmhgTfnhLwc+NHPx9l2YE8ODJuxxxbCLhOoHfAvwUsXW8cFQSSACImkN0S/aCyWf8eExzpCedfi0dODkb/xqCFoSbQP+TP2k+hhkbwtgggYmzhw7heAhldr9fUtt2B4+F7bm8ozXcwhHHb7iwchIrAwPBYqOIl2PATQMSEvw9D2YKsTwvdmbBeOaDWs8j4J6Lq6bB9R/tk2Md5RPXEjE38CIxPhHO+Wfx6KjotRsREpy9D1RI/58RMqP9ot+/rDhWvp3YeCVW8BBtPApMZREw8e96/ViNi/GMf65qzPj5OMsHf/9z+UPH/5TP7QhUvwcaTwGSGFXvj2fP+tRoR4x/7eNfs37zeHPf7n94XmkdKh08OyMv7wzVyFO+bO76tN8zJWxwQ8JAAIsZD2FQVHAJDw+Pyiyd2ByegMpHcef+Lwm9DGUBkQQACsSWAiIlt19PwO+5+XvycYFxND5w8NSw/fXhnNUUpAwEIQCB2BBAxsetyGjxD4GjPkHzvge0zl4H8/tIPnpTJLPMMAtk5ZYJi5KwMHLIg4CABRIyDMHEVPgJf/8mz0t0fzFVGn37lqNz3VDgeeYWv54kYAhCIAgFETBR6kTbUTWB0fFI+8bX7xc9XvksF3z80Jv/jW79kLkwpOK6nMTnVdcRUAAGHCCBiHAKJm/ASeHnfSfnSD58MTANMQfWpr98vvadGAhMTgUAAAhAIIgFETBB7hZg8J/C9+1+SO+55wfN6iys051J85o5fyTOvsLhdMRuuIQABCBQTQMQUE+E6tgT+RY3G/Nt9L/rWfvNNqf/vXx+QXzy+y7cYqBgCEIBAmAikwhQssULATQLmTIgv3fWEdPcNy++8cZskE5qb1RX4HlL7In3ya/fJky8fLkjnAgIQgAAErAkgYqzZkBNTAt9Xr13vPHRS/vTdr5Yl89tcp7B93wn55Nfvk+7eIdfrogIIQAACUSKAiIlSb9IWxwi8tPeEvP9/fF/eeu0Wecf1W6QhlXTM94wjc/Tlqz95Sn744MuBX3RvJma+IQABCASJACImSL1BLIEiMKZ2u/7GT5+Ru5/YJW+7bqvctG2DI2LGFC/f/eV2+f4DL8ng8Fig2kwwEIAABMJEABETpt4iVl8ImCv7/q9/e1i++uOn5erz18o1F6yTs9cskkQNc2bGJ7PyzM4jcs9Te+Xh5w+IKZAcO1jWxDGUOIIABMJFABETrv4iWh8JnFIL0N2lHv2Yn5amtGxZv0TWLp0nKxd1yKJ5LdLc2CCpZELtjp2VkbEJOabmuBw+MaDm1/TIDrUWDdsH+Nh5VA0BCESSACImkt1Ko9wmMDI2KY+9dCj3ESkzFFImy+0Y8Q8BCEAg6gRYJybqPUz7IAABCEAAAhElgIiJaMfSLAhAAAIQgEDUCSBiot7DtA8CEIAABCAQUQKImIh2LM0KAwEmzIShl7yJkXvBG87UEjUCiJio9SjtgQAEIAABCMSEACImJh1NMyEAAQhAAAJRI4CIiVqP0h4IQAACEIBATAggYmLS0TQTAhCAAAQgEDUCiJio9SjtgQAEIAABCMSEACImJh1NMyEAAQhAAAJRI4CIiVqP0h4IQAACEIBATAggYmLS0TQTAhCAAAQgEDUCiJio9SjtgQAEIAABCMSEACImJh1NMyEAAQhAAAJRI4CIiVqP0h4IQAACEIBATAggYmLS0TQTAhCAAAQgEDUCiJio9SjtgUBZAmw0WBZPmDLpyjD1FrG6RAAR4xJY3EIAAhAINgFUULD7h+iqIYCIqYYSZSAAAQhAAAIQCBwBREzguoSAIAABCEAAAhCohgAiphpKlIEABCAAAQhAIHAEEDGB6xICggAEIAABCECgGgKImGooUQYCEIAABCAAgcARQMQErksICAIQgAAEIACBagggYqqhRBkIQAACEIAABAJHABETuC4hIAgEj4DBkiLB6xQiggAEBBHDTQABCEAAAhCAQCgJIGJC2W0EDQEIQAACEIAAIoZ7AAIQgAAEIACBUBJIhTJqgg49gVuv3iw3blsf+nbQgMoEduw7IZ/82t2VC1ICAhCAQI0EEDE1AqO4MwTamhvE/HBEn8DJ/qHoN5IWQgACvhDgcZIv2KkUAhCAAAQgAAG7BBAxdgliDwEIQAACEICALwQQMb5gp1IIQAACEIAABOwSQMTYJYg9BCAAAQhAAAK+EEDE+IKdSiEAAQhAAAIQsEsAEWOXIPYQgAAEIAABCPhCABHjC3YqhQAEIAABCEDALgFEjF2C2EMAAhCAAAQg4AsBRIwv2KkUAhCAAAQgAAG7BBAxdgliDwEIQAACEICALwQQMb5gp1IIQAACEIAABOwSQMTYJYg9BCAAAQhAAAK+EEDE+IKdSiEAAQhAAAIQsEuAXaztEnTBPqsb0jswKt39I3Ly1LD0nBqT0YmMjKvPREZ9T2bVeVYms9nC2o3CS2euipwWXVrXUXVBaxc159RWp1FQvOCi5potDcq6LZtp6XIqw45tBdelsnPV1Vdn/9BoKY8up9UXq8tBhc+9xxizPfeJPvh89Zxs3JfVVFL4f0Q1FiJaslkkkRYt1SaSbBUt3ak+C0VrMD/zlROtOkeUqooAIqYqTO4UGh6blD1H+2X3oV7Zrb4PnxiU4/3D0qcEjK6EzNyjVNrpUvX8gzttbXVWVGfRpZWVSNUF57qouyG11VlYuvBqblDlUsrYlsmyxSifb9k6iuOuqfCs8VSX1Gdrr52zIXASAwL66H7J9j9WfUtzt2Q992WVNlUWmxuwhWGiQbSmFZJoWiVayxpJtG6SRMs6U/nMdUFKVQQQMVVhsl/I/BHYfbRPnn7lmOw4qETLkT451jModf9e2w8JDxCAAAQg4CUBfUKMkb2SVR/pma5YjdokWs+QROd5kuw4X7TmlV5GFPq6EDEudmH/0Lg8v7dbnlLC5bGXj0qPejzEX6UuAsc1BCAAgbAR0CfVI7QXcp+MfFON1CyX5PzLJbngVep8Wdha43m8iBiHkfeoR0H3Pr1f7n1mv+w50q9GWqaHFS1GFx2uHncQgAAEIBBiAsbYEckcvVN9viuJts2SXHyDJOdtU4+c+Lku1a1QKUWlxrQJNdH20ZePyC+e3CdP7Dgq2axeoweKQwACEIAABPIJGKIPvZT7TKbnSWrxa9XnZjVpuDG/UOzPETE2boFdh/vkew/skAefP6TeGMrY8IQpBCAAAQhAwILAZL9kDv+rZLp/JKllt0pq4fVMBp5GhYixuGfKJb+476R8577t8tj2I6cfF5UzIA8CEIAABCBgl8DkKckc+Ipkj/9Y0qt/SxId59n1GHp7REyVXairuS3m5Nxv/eJFeUW9XcQE3SrBUQwCEIAABBwlYIwfk4md/10S8y9TYuZ2NV2m3VH/YXKGiKmit57edVy+cNfTsv/YqSpKUwQCEIAABCDgPgG97xEZH9qeEzLJeZe4X2EAa0DElOmUg90D8sUfPiOPqxEYDghAwGUCvMHnMmDcR5KAesQ0ufvvRV9wpaTXvC92E38RMSXu6lPDE/Kvd78gdz20y2Ll3BJGJEEAAhCAAAR8IpDtfVD0sQPSsOGPclsc+BSG59UiYoqQ//jRPWr05WkZHS/3thF/MhZh4xICEIAABHwmYIwckPHtf6aEzH/LrTHjczieVI+ImcZsrq772Tsfl4dfPOwJeCqJCgEEbVR60n47uBfY2tD+XWTbQ2ZQJl75VO7RUrLratvugu4AEaN66MEXDsk/fPcJOaWEDAcEIAABCNRHABlXHzfHrYyMTOz9gqSzo2qBvNc47j5IDmMtYkbGJ+Vz33tK7n5qX5D6hFggAAEIQAACtglMHvhqzkeUhUxsRcyRniH5q689KPuP8tq07X8pOIAABCAAgUASiLqQiaWIeUGtuPuJrz8k/UOjgbzpCAoCEIAABCDgFAFTyGhqA8nkohucchkYP7ETMebbR5+76ynJZNikMTB3oQ+B8OzeB+hUCQEI+EZg8sC/qFevF0ii80LfYnCj4oQbToPoM6sb8r/U5N3Pqg8CJog9REwQgAAEIOAWAcPQZWLPP4gxetCtKnzxGwsRk8nq8qlvPiw/UqMwHBCAAAQgAIE4EjDU20oTuz8jkhmOTPMjL2JMAfPpbz0iv1KvUXNAAAIQgAAE4kxAHzuqRmQ+q/YwzkYCQ6RFjClgPqlGYBAwkbhXaQQEIAABCDhAIDvwnGSO/ocDnvx3EVkRYwqYT3zjYVbg9f8eIwIIQAACEAgYgczR74o+tCtgUdUeTiRFjK4m8f6NeoX6kZfYQqD2WwILCEAAAhCIOgFDPU6a3PePItmxUDc1kiLmCz94Wh7dfiTUHUPwEIAABCAAATcJ6GPHZPLwv7pZheu+Iydivv+rnXLXQ+EfIpvb86xsMpdJXFO4F+La87QbAk4TyHT/TPTB551265m/SImYJ145Jl/84bOewaMiCEAAAv4SQND6yz8KtRsyuf/L6m2lTCgbExkRs//4Kfn0Nx+RrB7AlXj5fyaU/zgIGgIQgEAcCJiPlTLHfxzKpkZCxAyNTsqff+VBGR6bCGUnEDQEIAABCEDATwKZo3eKMdHnZwh11R0JEfOP//GkdPdFZwXCunoSIwhAAAIQgECdBAz1llImhJN8Qy9ifv7EPrnvmQN1dhtmEIAABCAAAQiYBDI9D6i1Y3aGCkaoRczR3iH5/F1Phwo4wUIAAhCAAASCScCQzJF/C2ZoFlGFVsSYu1L/7bcfl5HxSYumkQwBCEAAAhCAQC0EzC0J9KGXazHxtWxoRcy379ku2/ef9BUelUMAAhCAAASiRiBz5M7QNCmUIuZIz5Dcce/20EAmUAhAAAIQgEBYCGQHnlcL4IXjNzaUIuYLP3hWJjIBXA8mLHcocUIAAhCAAATKEDBfuQ7DEToR89TO4/IY+yKF4d4iRggEjwALTwavT4gokARyozHDewIZW35QoRIxmawu//R93kbK70DOIQABCEAAAm4QyHb/1A23jvoMlYi585evyKETg44CwBkEIAABCEAAAnMJZHt/JcbkqbkZAUoJjYjpGxyTb98Tnte+AtTHNkJh7N0GPEwhAAEIhJqAYUxK9uTdgW5DaETMdx/YKaMTrAkT6LuJ4CJMAEEb4c6tsWncCzUCC3Xx7Imfqx2us4FtQyhEzODIhPzno7sDC5HAIAABCEAAAlEkoE/0Srb/scA2LRQi5q6HdsnIGKMwgb2LCAwCEIAABCJLIHvivsC2LfAiZmwiK6aI4YAABCAAAQhAwHsC+uBzaoJvn/cVV1Fj4EXMfz6yW04Nj1fRFIpAAAIQgAAEIOA0AcPQxXxTKYhHoEXMpFqV97sPvhJEbsQEAQhAAAIQiA2B7Mn7AtnWQIuYh144JD2nRgMJjqAgUJEAL3FUREQBCEAgHAT00YOij+wLXLCBFjE/e3J/4IAREAQgAAEIQCCOBLI9DwSu2YEVMT0DY/L0ruOBA0ZAEIAABCAAgTgS0PsfVc0O1hBzYEXMz57YK7oeLFhxvGlpMwQgAAEIQMAkoI+fEH14X6BgBFLEGEq7/PypYIEKVK8RDAQgAAEIQMAHAnrAFr4LpIh5cf9JOXpyyIfuoUoIQAACEIAABKwIBG313kCKmJ8/sc+KH+kQgAAEIBBYApq9yMxheI5AE9BHD4kxdiQwMQZOxOjqJn5sx9HAACIQrwnwn5jXxKkPAk4RSKeS9lypXZM5gk8g2/d4YIIMnIjZeahP+gfHAgOIQCAAAb8IIGj9Il9vvQ2pVL2mU3Y6IsYeQG+s9YFnvKmoiloCJ2Ie33GsirApAgEIQAACQSOQTjMSE7Q+cSOe7KBaST8bjMGGAIoYHiXVc9PxKLkeathAAAJOEuhsa7LlztDZJ88WQK+MjYxkB1/0qray9QRKxJgbPZqPkzggAAEIQCB8BDpabYqYzED4Gh3TiPVTzwWi5YESMU+oR0kGQwqBuDEIAgIQgECtBDrbWmo1KSyPiCnkEeArfeDZQEQXKBHDfJhA3BMEAQEIQKAuAku72uuymzEyssMzp3wHnIA+dlSM8W7fowyMiDEHYJ7d4z8Q33uEACAAAQiElIAdEWOYozD6REhbHs+w9QDMiwmMiDl0coBXq+P574BWQwACESGwbFFn3S0Jwl/1dQcfU8PswHbfWx4YEfPCnpO+wyAACEAAAhCon8D65QvrNjYmGImvG55PhozE5IF/YR8iJg8HpxCAAARCRWBBR6vMa2+uO2ZGYupG55uhMXFSzYvx97c7OCMxiBjfbkQqhgAEIGCXwLoVXbZcGKMHbNlj7A8BfeglfyqerjUQIubEqVHp7mNWuq93ApVDAAKOEIjrKhHnrF9mi58+tt+WPcb+ENB9nhcTCBHz3G4/noWyL4s/tzy1QgACUSSwdePy+puVHVWPJU7Ub4+lbwSyQ/5O7g2EiHlxv7/P1HzrfSoOCAEEbUA6IgBhcC/U0wnpVEI2r1tSj2nORh/Zp75hXzdAHw0Nc72YCf9W2g+GiGE+jI+3IFVDAAIQsEdgy4YV0tSQrtuJPryjblsM/Seg+zga47uIGR6blIPdg/73AhFAAAIQgEBdBC45Z01ddjNGfv4IzsTAd/0E9CH/RKjvIuYVteEj+yXVf/NgCQEIQMBvApefu67+EIys6CO76rfH0ncC+tBO32LwXcRs39/jW+OpGAIQgAAE7BHYvG6prFw8r24n+vDLbDdQN71gGOoj6s0yfdyXYHwXMS8f7PWl4VQKAQhAAAL2Cdx46Vm2nOinnrJlj3EACBgZNZq215dAfBUx5noKOw4hYnzpeSqFAAQgYJOA+VbSNRdtsuUlO/CsLXuMg0HAr0dKvoqYo71DMjDkzxBUMLqdKCAAAQiEl8DlWzdIR2tT3Q0wxg6r9WGO122PYXAI6MP+zIvxVcS8fID5MMG5BYkklARYWiOU3RaVoG+87ExbTcn2PWzLHuPgENCHXvElGF9FjPlmEgcEIAABCISPwKol8+XSc9baCNyQbN9DNuwxDRIBc8E7c0NIrw9fRczOw4gYrzuc+iAAAQg4QeCdN18siYRWtytzDoUxwVYDdQMMoKE+7P2r8r6JGF3N6t17dCCA3UBIEIAABCBQjsCyhZ1y3SVnlCtSMS/b+8uKZSgQLgL6sPdvKPkmYo70DMno+GS4eohoIQABCEBAfkONwiQTNn4+siOS7Wc+TNRuJWN0n+dNsnEX2ot19+F+ew5Cac0szFB2G0FDAAKzBBbNbxe7a8PkRmH0iVmfnESDgD68x/OG+CdijpzyvLFUCIHgEEDQBqcv/I4kXPfCb73+UjHXh6n/MCRz4u76zbEMLAFjckDNc/J27Tc7d6ItkLuOMKnXFkCMIQABCHhMYMuGZXLTZZtt1Zrtf1z90B2z5QPj4BLw+pGSbyJm99E4Pk4K7o1HZBCAAATKEUglE/Khd14jWv0vJOXcZ7t/WK4a8kJOwOvJvb6ImN7BMVbqDeONGq5R7zASJmYIBJbAW6+/QNYu67IVnz74nG977NgKHOOqCcRCxBzo5tXqqu8ICkIAAhDwmcDiBe3y7tdebDMKNRfm6J02fWAedAK6x28o+TISc+D4YND7gfggAAEIQEARSKjnRx9593XS1Ji2xSPb/5gahfH+7RVbQWNcMwFjXC1gmB2r2a5eA39EDCMx9fYXdhCAAAQ8JfCu126Ti85aZa9OIyuZY9+15wPr0BDQ1caeXh2IGK9IUw8EIACBkBE4b9MK+c3XbbMddfbk3WKMHbHtBwfhIGCMHfIsUH9EDI+TPOtgKoIABCBQD4H57S3yZ7ffbGt/JLNeY/KUTDIKU08XhNZGH43wSMyp4Qk5Nezd87LQ3gUEDgEIQMAnAuaWAh97783S1dliO4LMkW+rORLDtv3gIDwEjJGDngXr+UjMoRO8meRZ71IRBCAAgRoJmOvAfPid14r5KMnuoQ9tl2zfr+y6wT5kBPQoP04yN37kgAAEIACBYBJ4/xuvkJsvt7cqb65lam+kyUP/ok5ZYCqYPe1eVLk3lPRx9yrI8+z5SMyx3pG86jmFAAQgAIGaCbikC95+w4Xy6zdeWHM4pQwyR78txvjxUlmkRZ6AIfqoNxO5fRAx1T0bNVz6Rxr5e4cGQsCSAP+oLNGQITdsO0ve96YrHCGhD70kGfVGEkd8CRjjRz1pfMqTWvIqOdbH46Q8HJxCAAIQ8IFAoaC9WW3q+OF3XWt7XySzIUZmQCYPfME886FdVBkUAsZ4tyeheC9ieJzkScdSCQQgAIFqCLz5mvPkv7z1KkcEjClcMge/rF6rZoPfathHuUwkRczEZFb6Bkej3G+0DQIQgEAoCCQSmvyuEi9vvPpcx+LNqB2qswNPO+YPR+ElYExEcCTmWN+wMNclvDclkUMAAtEg0JBOyp/+1k1y1fkbHGuQPvi82lqADR4dAxpyR5EciekZYJG7kN+XhA8BCIScwLKFnfKx22+UM9cscawl5iTOyf2fU0+TdMd84ijcBHRzI0i1Z5ZoSVcb4umcmN4BHiW52ps4hwAEIFCGwJXnbZA/fPe10tbSWKZUbVlGZlAm9vy9+r1i+YzayEW8tBK0xkSPaI2LXW2opyKGkRhX+xLnEIAABEoSMB8fvf+Nl8ubrz2vZH7dieaCdnuVgJk4VrcLDKNLwJwXEykR0zfE46To3q60DAIQCCKBjSsXyp/cdoOsW97lbHjqL+3JA58XfWSXs37xFhkCxkSv623xdCSmlzkxrncoFUDAaQJMxneaqDf+2pob5LZbLpE3XL1VzA0dnT0MmTz4JcmeetJZt3iLFAFjos/19ngqYnp4vdr1DqUCCEAg3gTMDRyvV6vvfuDWK2R+e7MLMJSAOfRVNnZ0gWzUXBqTERMx/UPebAgVtRuB9kAAAhCohsDmdUvld259lZyzfmk1xesoMy1geu6pwxaTuBHwYtFDT0diTg1PxK0PaS8EIAAB1wlsWb9M3n7ThXL51rXu1WXOgVG7Umd7f+leHXiOFIFIjcSYz9VHxhAxkbpDLRvDnimWaMiAgEMEzMdGl56zVt71movEHIFx9TAyah2Yz6s5MI+7Wg3OI0YgSo+Txiczouv8uEXsFqU5EKhAgH/zFQDVnN3Z1iw3XHyG3HLl2bJ66fya7Ws1MNeBmdz7WfUW0s5aTSkfcwLGhPt7aHn2OGl4LBPz7qT5EIAABOoj0NyQksu2rJWrL9qoRl/WSDrl7iqoM1EaY0dkYp9aB8ajHYln6uU7GgQMXc2DzaqlVZJNrjXIMxEzNMqjJNd6EccQgEDkCCzr6pCLN6+Wi89eJds2r5KGtGf/XedY6kMvyuS+z6mVeIcjx5YGeUfAvH+0KIiY4fFJ76hREwQgAIEQETBX1F2zdIGcpfYzOkfNbzlnw1JZtrDDpxYYkun+kdrM8d/ZC8mnHohStUZGiZgGhxdazAPkmbQfHkPE5HHn1IoAUyisyJAeQgKtTQ2SSGi5xz8drU0y9WmUxfPbZVlXuyxRoy2rl86T5WpTRrOc74f6q3ly/z9LdvBZ30MhgIgQ0N3dU8szETMxye6mEbklaUYegUWdLeoHqEOWLGiTpQvUj9L8Vulsb5J2tcFeh/lRP1zmWyRNak5DKun0qql5gXAKAZsE9KGX1DYCXxJj0v2l4m2GinmYCLi8MahnIiaTVVtyc0AgxASWL2yXLesWy8YVXbJ+xXxZv3yBmEu7c0Ag1ASMrGSO36U+31fNYCg01H0ZwODNx0luHt6JmAwjMW52JL6dJ2COqmzbvEIuPGO5mqew2KUl3J2PG48QqJaAPrxTMoe+IvrY4WpNKAeBmggY0RmJQcTU1PMU9oXAmasWyqvPW6NeY10pq5fM8yUGKoWA6wSyo2ri7nck03OvqorRF9d5x7mCqIzETGYRMXG+j4Pc9rVLO+W6izbINResU/Na2oIcKrFBwCYBQ20b8EDuzSMjM6B8IWBsAsW8AoHcWjEVytjJ9uxxUjbLPxY7HYWtswQa1GJhl6nRltddfoZcsGlZbvKtszXgDQLBIqAP7ZDM0W+JPro/WIERTbQJqC0r3Dw8EzEZRmLc7Ed8V0mga16LvPHKs+QWJV6YlFslNIqFmoA+sluyauIur02HuhvDG3xURIy4sgQCozvhvbO9jXy1emT0juu2yNXqkRGvOnvLntr8IaAPK/HSjXjxhz61zhLQ3V0jzrORmKS5WAYHBFwjUFrQLu1qk7cr8fKaSzcFYzEx19qPYwiYBAzR1UJ1mRM/E3PdFw4I+E5AvcLv5uGdiAniQl+lf/fc5I1vjwjM72iS33rtBXLjto2SDMJKqB61m2riScCYPCXZ/l+J3nu/6OPH4wmBVgeSgBGVkZgEIzGBvMGiFlQqlZDXq/kutykB09KUjlrzaA8EThNQPw760PPqbaNfqfkuz6hBGHf/4j1dMWcQqIFAVObEpJI8Tqqh2ylaB4ELz1wuv//WS3N70tRhjgkEgk9AHxd9eLsadXlc9IGnlG4ZDX7MRBhvAi6La88eJwVic7N430qRbX1bS4O895YL5LWXncGr0pHt5bg2zBBDraZrzm/JDjwnxsgOcXt4Pq6kabdLBDR394zzTMQkE+42xCX8uA04gSu2rpI/eNvlMq+tMeCREh4EKhMwJvuVaDmktgHYL4baEkAf2alGW9TeM8zfqwyPEsEkoCVdjcszEWPu4ssBAacINDYk5fbXXSBvevVmp1ziBwLuEjB0JUiGRDJDuW9jskeMiZPqc2LqM35YjMxgUQyolyIgXIaMgBYVEcMky5DdeQEOd+PK+fLR266W5V3tgYnSmOxTP0Td6keoR2RS/TBlTk39Ba1+sMSYVI8AxtS31dYbDv9QzXE3J6F+bpauLDMs6rIob5EczKGIwmCNwsupdutqzorZ77l7YMKCBckQiC4BQyIyEtPSyEhMdG9T71p2/cXrco+PGtPu/sMo1yLzr2VjbI8a6t+lvg+KMX5ICZaRaZNSv2QlvBUUK7goUbjWJLv+ythbZllm1BZ8SSVQm4vTpYtiKro8XW7mrGKBmYIlvx0NvWQNJEIgfAS0qMyJaWlCxITv9gtOxOar07936yVq8u4m74NSs+vNuQn6yEtqguWLSrQc9T4GaoQABCAQRgKau7/97nrPA97SyJodeTg4rYFAe2uD/Ll6fHTexqU1WNkvaowdUG+EPCL6qSem5jLYd4kHCEAAAvEiEJmRGERMvG5ch1q7YnG7/M37rpMVCzsc8ljejTmXRR98SgkXJV7UoyIOCEAAAhCwQSDZbMO4sqlnIzHmHAZzrRhdt/fcuXKTKBEVAhtXLpBP/vYNnrw+bUyeUCuf/lyJl4fN3WdEuE+jchvRDghAwEcCWlREjLnrQEdro/QPqrc0Qn0gwrzovq0blshfvfdaaXV56wBDvdaa7fuFEi+Pi6HRt170LXVAAAIxIpBscbWxno3EmK0wFyQLv4hxtT9wrghcdNZy+fj/c400uPgGkvlWUabnh2oJ9xemmLMrBvceBCAAAccJRGYkxiQzv61J9skpxyHhMDoELjhjmbsCRq3bkTmpxEvf/Yy8ROe2oSUQgEBACWipVlcj83wkxtXW4DzUBC44Y6n89e3XujYCY+74mzn+bfWmUb8IIy+hvlcIHgIQCAmBKD1OWqBGYjggUIrAGau65OO/5c4jJHMl3czxb4k+urNU1aRBAAIQgIBbBBIReTvJ5DOvHRHj1n0SZr/LF7bJX6tJvE0urOqsDz0tmaPfFMNQy79zxIgAk7Rj1Nk0NcAEtLS7y2N4+jhpPjsNB/hW8yc0U9h+6revl/lOC1wjI5kT35Ns/33+NIxafSZgPi9EyPjcCVQfcwLmlgNaqtNVCp6KmAUd7g4ruUoK544TMLcS+IvbXi3LHN7I0Zg4LpkjXxZ94rDjMeMQAhCAAASqJJCep+YfJqosXF8xT0XMkvnuvi9eHwKs/CLwu2/aJuesW+xo9frwc0rAfEU9PmLHYEfBhs4ZozCh6zICjhwBzRQxLh+eipjF81pYtdflDg2L+9dfsUled7mzmznqA49K5pia/yLZsGAgTtcI8DjJNbQ4hkCVBLT0/CpL1l/M3XGeorhSyYR08UipiEr8LtcunycfeMPFjjbc3DJg8tjXETCOUg2zM0Ziwtx7xB4NAlp6gesN8VTEmK1ZzCMl1zs1yBWYbyB97DevcnAtGENN4P2uWsDuP1Sz+eEKct97GxsLAXnLm9ogMJeA1hCxkRiziUvnu7t631yMpASJwO+9eZusWuzUbHUlYNToS7bv7iA1kVggAAEIQEAR0Bq6XOfg+UjMEkSM650a1AouO2el3Lhtg2Ph5V6hVvNgOCAAAQhAIHgEtMZlrgfluYhZtoCRmNp7NfyPScwdzD/0tstqb7qFRbb3x4zAWLAhGQIQgEAQCGhNS10Pw3MRs3Jxu+uNooLgEfjgGy92bEG77KkHJHvyP4PXSCKCAAQgAIEcAXP3ai3t1NQBa6iei5hVi2ImYsI/iGJ991SZs3XDYrn2wnVVli5fTB96RrLHv1O+ELkQgAAEIOArAa3J/UdJZgM9FzGtTWmZ38EeSr7eXR5Wnkxq8rtqMq/mwMsixsSJ3DowvIXkYQdSFQQgAIE6CGiN7j9KMsPyXMSYla5e7O6GUGYdHMEg8OarNsu6ZQ68ZmfuhXT0X0RtRR2MhhEFBCAAAQhYEkhEdSTGbHHsHilZdnO0M9paGuQd129xpJGZ7jvEGD/oiC+cQAACEICAuwS05uXuVjDt3ZeRGESMJ33reyXvvGGrtCshY/fQB58Q/dTDdt1gDwEIQAACHhFINDszD7JSuL6ImNVLeJxUqWPCnm+uzPyGV51huxnGZI9kjn/Lth8cQAACEICANwS0RINEdmKviZA5Md7cSH7W8uvXniPpVNJ2CNkT/6bmwbAjtW2QOIAABCDgEQGtZY1artebMRJvaikCt6C9iTeUiphE6dJ8++zmSzbabpI+9LToQy/Y9oMDCEAAAhDwjkCixZtHSWaLfBExZsUbls0zvzgiSODWV2+2v8GjPiaZ7jsjSIcmQQACEIg2gUTLWs8a6JuIWY+I8ayTvayouSklt1xufy5MpucHIpl+L0OnLghAAAIQcICAFgsRs9z95Ygd6Atc1EjgerUyr7mgoZ3DmDgmet8DdlxgCwEIQAACfhDQUpJoXu1Zzb6NxGxYzuMkz3rZw4pef4X9UZhs709UxLqHUVMVBCAAAQg4QSDRtkFNVLH3h2wtcfgmYpZ3tUlTQ6qWWCnrKYHaN33asn6xWp3Xnjg1JrpFH3jK05ZSGQQgAAEIOEMg0XqmM46q9OKbiEmozXTs/uBV2UaKeUTghovsz0hnFMajzqIaCEAAAi4QSLTHRMSY7DauYF6MC/eQLy7T6YRcdZ5aG8DGYUyeFH3wSRseMIUABCAAAT8JJFrtTymoJX7fRmLMIM9ataCWWCkbYAKXbl4hbc32noNme3+qNqjOBriVhAYBCEAAAlYEEs0rREt7uyK/vyJmdZcVC9JDRuDKrTZno6tVefVB5sKErNsJFwIQgMAsgUSbt4+SzIp9FTHLFrRJe2vjLABOwkkglUzIts32dizVh5SA0cfDCYCoIQABCEBAEu2bPafgq4hRc3vlzJXzPW80FTpLYOuGxepRUoMtp9lTj9iyxxgCEIAABPwkoEmiY6vnAfgqYszWnsm8GM873ekKLz5zmS2X5k7VxugeWz4whgAEIAAB/wgkWteq+TDeD0r4L2JWM7nXv9vOmZrP3bjEliN9wByFqX1dGluVYgwBCEAAAo4RSHSc55ivWhz5LmLMN5TMx0oc4STQot5I2rjcnhDltepw9j1RQwACEJghkOyMqYhpV3Mpli9sn+HAd8gInLN2kSQS9atQc4VeY+JEyFpNuBCAAAQgMENASzZLos3b9WFm6vZ9JMYM5Jw1C2fi4TtkBM5cZe81eX3kxZC1mHAhAAEIQCCfQKL9HBG18aMfRyBEzJZ1iBg/Ot+JOjettPcoyRh5xYkw8AEBCEAAAj4RSM670KeafV4nZqbViJgZEuH73mhLxBii81ZS+DqdiCEAAQjMEkhIYt5Fs1denwRiJMZc9G5BZ7PXbac+mwTaWhpkYWdL3V6M8aMi2ZG67TGEAAQgAAF/CZgbPmrpeb4FEQgRY7Z+C/NifLsJ6q14hc0J2cbYgXqrxg4CEIAABAJAIDn/Ul+jCIyIOWct82LqvRMMn5ZYWdbVVm/IOTt94pAte4whAAEIQMBPApok52/zMwB/907Kb/nW9YvyLzkPAYFlXfZejTfGj4SglYQIAQhAAAKlCCRa14vW4O8ARGBGYtYs6ZC2FjaDLHWjBDXNznwYs03mGjEcEIAABCAQTgJ+P0oyqQVGxCTUsr3nrLW35kg4b4PwRt3ZZkN0GpMimYHwNp7IIQABCMSagPko6TLfCQRGxJgkLrS5B4/vNGMWwLy2prpbbEz2KlufJvPUHTWGEIAABCBgEki0bRStyd6+eU6QDJSIufhM/4E4ATUuPjpaG+puqsEoTN3sMIQABCDgN4Hkgiv9DiFXf6BEzHI1UXSpzTdeAkE1JkE0pm0sM60PxYQSzYQABCAQLQKalpDkgssD0ahAiRiTyIUbFwcCDEFUJpBOJSsXsihhZBAxFmhIhgAEIBBoAomOrWqBu85AxBg4EXPBpqWBAEMQlQnYETHq1aTKFVACAhCAAAQCRyDZFYxHSSaY4IkYNRKTSGiB6zQCmksgaaefjOxch6RAAAIQgECgCWiJRknOuyQwMQZOxLQ2peW8DUzwDcwd4logiBjX0OIYAhCAgEsEkvPUCr3J+t9MdTqswIkYs4FXbV3hdDuL/PFqbxEQ7y/92ivB+5ZSIwQgAIHIEEguuiZQbQmkiLninJVi61FFoBATDAQgAAEIQCD8BLSGLrU+zDmBakggRUynWn/kvA28pRSoO4VgIAABCEAg1gRSXdeIqNerg3QEK5o8MldtXZl3xSkEIAABCEAAAv4RUNsMdL3av+otag6siLliywoeKVl0GskQgAAEIAABLwkk2zerbQaCtwRKYEVMZ2ujXHzmMi/7iLogAAEIQAACEChBILnw2hKp/icFVsSYaF576Xr/CREBBCAAAQhAIMYEtFS72rE6GNsMFHdDoEXMtjOXysLO5uKYuYYABCAAAQhAwCMCyYXXqKVx0x7VVls1gRYx5mvWN128rrYWURoCEIAABCAAAYcIaJJaeL1Dvpx3E2gRYzb3NZesYxsC5/sdjxCAAAQgAIGKBJId56oJvcGdnxp4EbN4XotcyKaQFW80CkAAAhCAAAScJpBcfJPTLh31F3gRY7b2TVdudLTROIMABCAAAQhAoDyBROMiSXZeUL6Qz7mhEDEXn7FUNq6Y7zMqqocABCAAAQjEh0By8S1qhd5koBscChFjEnzbNWcGGiTBQQACEIAABKJCQEu1qQm9wVwbJp9xaETMVVtWyopF7fmxh+ycnbND1mGECwEIQCC2BFKLbhRJNgW+/aERMQn1uvVbrjwj8EAJEAIQgAAEIBBmApqWkuTim0PRhNCIGJPmjRevZfG7UNxWBAkBCEAAAmElkOy6SrR0OOahhkrEpFMJue2mLWG9L4gbAhCAAAQgEGgCmpaQ1NI3BDrG/OBCJWLMwK+/aA1vKuX3oFfnTOnxijT1QAACEPCNQLLr1YFe3K4YTOhETELT5P2vP6+4HVxDAAIQgAAEIGCDgKZep04te7MND96bhk7EmIjOW79Itp0V3GWQve9GaoQABCAAAQjYI5BUeyRpjUvsOfHYOpQixmT03tdtZU8lj28WqoMABCAAgWgS0NQu1allbwxd40IrYtYu6ZRbeeU6dDccAUMAAhCAQPAIJBe/RrSGruAFViGi0IoYs1233dJMsmoAAB8ISURBVLxVVi/pqNBEsiEAAQhAAAIQsCKgpTslHbK5MDNtCbWIMV+5/tBbtok52ZcDAhCAAAQgAIHaCaRXvlOtzttSu2EALEItYkx+Z6/pklsu3xAAlIQAAQhAAAIQCBeBROt6MV+rDusRehFjgr/9NefK4vmtYe0D4oYABCAAAQh4TkATTdKrblf1hvdpRiRETHNjSj76rsslnYxEczy/kakQAhCAAATiRyC56HpJtG0MdcMj86t/5qoF8r5bWAQv1HcjwUMAAhCAgCcEEo2LJb3y3Z7U5WYlkRExJqQ3vmqTXH/hWjd54RsCEIAABCAQagK5x0jrPqgm8zaFuh1m8JESMWaD/uubL5I1SzvNUw4IQAACEIAABIoIJJe+Xj1G2lyUGs7LyImYpoakfOzdl0tbS0M4e4SoIQABCEAAAi4RSDSvlPTyX3fJu/duIydiTISrFnXIJ29/tTQ3pLwnSo0QgAAEIACBABLQ1OOjhvV/oJ7BpAMYXX0hRVLEmCjMib5/cdurpCGVrI8MVhCAAAQgAIHIEFCvU6/9HdGaV0WmRWZDIitizMZdsHGJfPhtrOhrsuCAAAQgAIH4Ekgvf4sk518WOQCRFjFmb11z/mr5wK+dL1rkWxq5e5MGQQACEICAAwSS8y6SlBIxUTxi8dNuvnr9kbdeIslELJobxfuUNkEAAhCAQB0EEm2bpGHd7ynL8K7KW67ZsflVv+GitfLn73mVNKq3lzggAAEIQAACUSeQaFkjjRv/JBLrwVj1VWxEjAngss3L5G9/+1rpaG204kE6BCAAAQhAIPQEEi2rpeGMj4qkor2vYKxEjHlXmm8t/e0HrpWlC9pCf5PSAAhAAAIQgEAxAU2tBdNwxsdES7UXZ0XuOnYixuzBtUs65Z8+dJNcfd7qyHUoDYIABCAAgfgSSHRskcYzPh4LAWP2cixFjNnwlsa0/Kna+foP336pNDBPxkTCAQEIQAACISaQXHidNGz8fyP/CCm/i2IrYmYgmBN+P/PB62X5wugPu820mW8IQAACEIgQAbWGSGrFb0h6zfvVS0jxenkl9iLGvI03rpgvX/hvN8u7b9wi6RRIIvRPm6ZAAAIQiDQBrXGRNGz6qKSWviHS7bRqHL/Y02Qa0kklYs6Rf/7Ia2TbWcuseJEOAQhAAAIQCAQB8/FR4+a/lUT72YGIx48g2CGxiPryrnb5G7V55IMvHJIv/vAZ6e4dLirBJQQgAAEIQMA/AuboS3rNbyvxssW/IAJSMyLGoiOu3LJSrSuzXO575oDccd92OXh8wKIkyRCAAAQgAAEPCCSbJbXk19Tndeq1HNY7M4kjYsrcd6lkQsyJv9dduEYee/mofPue7fLy/hNlLMiCAAQgAAEIOExAiZfkwuuVeHm9aOlOh52H2x0ipor+S2hablTGHJl5Zne3/OTR3fKrFw/J5GS2CmuKQAACEIAABGonoDUsVOLlOkkuulGt+8ICraUIImJKUSmTdv6GxWJ+hkYn5YHnDuTmzjy7q1syWQRNGWxkQQACEIBANQTUY6Jk50WS7LpSEp3nK4tobtxYDYpqyiBiqqFUokxbc1pee+mG3GdodEKe3HFUntp1XJ5WHyYDlwBGEgQgAAEIlCSgNXRJouNcJVrOk2SHEi7MdynJqVQiIqYUlRrT2pob5Orz1+Q+pml3/7DsONir5s/0yL5jp+RIz6Ac7xsSPWvU6JniEIAABCAQKQLJFkk0LReteZ0kWjeqzybRmpZGqoleNgYR4wLtxfNaxfxctXXVrPdMVs+Jm6M9w3Lk5KCc7B+VgdFx9VhqIvcxC5rnRkmdUzJx1rc7J0V1lggsqeYKcUCgIgGtUbTGKv+TLnGfVfRfbYGiW3quWcUCRSaF5bXCy6Ky9V664jQvmGn/rlZTq/Mayut5TanptLo6qis1VbGmqZ9TcwRFiRQtkVbnDWrx3BZ13SrmSIs5v0VrWJQ7rylUCpcloBnqKFuCTAi4QCDb8yPJ9vy4yHNtt6IhtZUvqqz8pV6v7yrtCooVXJSPq6pcu/7K2FtmWWZIomWTpNf+cVWRUwgCEIBALQRYsbcWWpSFAAQgAAEIQCAwBBAxgekKAoEABCAAAQhAoBYCiJhaaFEWAhCAAAQgAIHAEEDEBKYrCAQCEIAABCAAgVoIIGJqoUVZCEAAAhCAAAQCQwARE5iuIBAIQAACEIAABGohgIiphRZlIQABCEAAAhAIDAFETGC6gkAgAAEIQAACEKiFACKmFlqUhQAEIAABCEAgMAQQMYHpCgKBAAQgAAEIQKAWAoiYWmhRFgIQgAAEIACBwBBAxASmKwgEAhCAAAQgAIFaCCBiaqFFWQhAAAIQgAAEAkMAEROYriAQCEAAAhCAAARqIZCqpTBlIQABCNRKQB/ZKeMvvb86M8OorlxVpYp8FV3OdVGxwFyTvJTKodfjf9qmHtO82KxPa/VfIRAtKU3nfsW6OnIg4DABRmIcBoo7CEAAAhCAAAS8IYCI8YYztUAAAhCAAAQg4DABRIzDQHEHAQhAAAIQgIA3BBAx3nCmFghAAAIQgAAEHCaAiHEYKO4gAAEIQAACEPCGACLGG87UAgEIQAACEICAwwQQMQ4DxR0EIAABCEAAAt4QQMR4w5laIAABCEAAAhBwmAAixmGguIMABCAAAQhAwBsCiBhvOFMLBCAAAQhAAAIOE0DEOAwUdxCAAAQgAAEIeEMAEeMNZ2qBAAQgAAEIQMBhAogYh4HiDgIQgAAEIAABbwggYrzhTC0QgAAEIAABCDhMABHjMFDcQQACEIAABCDgDQFEjDecqQUCEIAABCAAAYcJIGIcBoo7CEAAAhCAAAS8IYCI8YYztUAAAhCAAAQg4DABRIzDQHEHAQhAAAIQgIA3BBAx3nCmFghAAAIQgAAEHCaAiHEYKO4gAAEIQAACEPCGACLGG87UAgEIQAACEICAwwQQMQ4DxR0EIAABCEAAAt4QQMR4w5laIAABCEAAAhBwmAAixmGguIMABCAAAQhAwBsCiBhvOFMLBCAAAQhAAAIOE0DEOAwUdxCAAAQgAAEIeEMAEeMNZ2qBAAQgAAEIQMBhAogYh4HiDgIQgAAEIAABbwikvKmGWiAAAQjEk4CWSIvWvEa0pqWSaFwqkmhTn0YFQ/0NqY+pz7Do48fFGD8mxug+MbIqjQMCEKiKACKmKkwUggAEIFA9AS3VJsl52yTRoT4tG0W08v/VJmddG6IrIaMPPC7ZvkfFmOyZzeEEAhCYS6D8v6y55UmBAAQgAAELAomm5ZJcdIskOy9VwqWep/WaJJrX5T6pJW8TffBZyZz4gehDuy1qJBkC8SaAiIl3/9N6CEDACQKpdkkveYsk51+lvGlOeMz5SbSfLw3qow+9IJNHvibGWLdDvnEDgWgQqOdPhWi0nFZAAAIQcIBAYt7F0rDpvysB82rlzSkBUxhYom2LNG76lKQWXe9aHYU1cgWBcBBgJCYc/USUEIBA0Aiox0WpZe+S5IJrvYlMzatJLftN0VrPlszBL6oJwOPe1EstEAgwAUZiAtw5hAYBCASUgHq7KL3m970TMHkYkh0XSXr9n4qWbs9L5RQC8SSAiIlnv9NqCECgXgLqlWlTwCTazq3Xg227RPNaaVj/Z+qlJ/W6NgcEYkwAERPjzqfpEIBArQQ0Sa18vyRaN9dq6Hh5rXGZpNf+gXoJKu24bxxCICwEEDFh6SnihAAEfCeQXHyzJDsu9j2OmQASLZsktfwdM5d8QyB2BBAxsetyGgwBCNRDQFOPcFKL3lqPqas2yQXXq3Vpzne1DpxDIKgEEDFB7RniggAEgkPAfBNp+XvqXMDO/Waklt8mWrLJ/YqoAQIBI4CICViHEA4EIBA8Aon5V6hVdNcGL7DpiLT0fLVS8GsCGx+BQcAtAogYt8jiFwIQiAYBLSmphb8W+LakFr5Gva3UEvg4CRACThJAxDhJE18QgEDkCCQ6LhCtYVHw25VoUuvWvCr4cRIhBBwkgIhxECauaiCgubM8ew0RUBQCVRGY2g+pqqK+F0rO92j1YMuW8u/aEg0ZrhBAxLiCFaeVCSQrF6EEBPwmkGxVi9pt8TuKquvXGpdLomlp1eWdLqiprRE4IOAlAUSMl7Sp6zQBNc+AAwJBJ5Bo26RCDNfogtZ2tn9YEw3+1U3NsSSAiIlltweg0Rr/2QWgFwihAoFE61kVSgQv29fVhFk9OHg3RMQjQsREvIOD2jz2fAlqzxBXPgGtYUX+ZSjOE00rfYtTS7KXk2/wY1oxIiamHe97sxPswOt7HxBARQLm/kRhO7SGxf4typfk33XY7pewx4uICXsPhjR+LdUR0sgJO04EtFQIf5TVfDO/Vu/l33Wc/nUEo62ImGD0Q+yi0NJdqs3hmjAZu06Ke4PVVgOihXSHaK3Rl97TGkOwno4vZKjULQKIGLfI4rc8AfOvxfSC8mXIhUDdBIy6LU8bhlhk+7QOk9bo3+vdp/uNszgRQMTEqbeD1tYG/sMLWpcQTx4BIytiTOYlhOhUH/MlWK1hiS/1Uml8CSBi4tv3vrc80bTa9xgIAALlCBiZwXLZwcwzdDGyPogY9fgt0bwqmEyIKrIEEDGR7drgN0xrWhP8IIkw1gSM8WOha78xcVyNIOmex51oVK+jJ/yZi+N5Y6kwMAQQMYHpivgFkmhapxod4nkH8euy2LXYmDgcujbr4/7ErLWY/545IOAtAUSMt7ypLZ9AskW0Joaf85Fw7hQBZ8SxPvyyUwF55scY3u5ZXfkVJdp93O4gPxDOY0UAEROr7g5eY8O4rHvwKBKRWwT0oZ3KtRNvOrkV4Vy/+uBLcxNdT9Ek0XqO67VQAQSKCSBiiolw7SmBROt5ntZHZRCoiUB2SPQhP0RBTVHOFjbGj4o+dnT22quTRPNqtWRCp1fVUQ8EZgkgYmZRcOIHAU29oaSlF/pRNXVCoCoC2f5fVlUuCIWyfff7EkZi3iW+1EulEEDEcA/4TiDRcaHvMRAABKwI6KeeVsvF9FplByddrQ2T7X3Al3iSndt8qZdKIYCI4R7wnUCi43IVgzMTMX1vDAFEj4CRkezJHwS+XZmen4mRGfY8zkTLBmGlXs+xU+E0AUQMt4LvBMzHSVrrmb7HQQAQsCKQ7X1QzTU5ZJXte7qR6Zds9498iSPZda0v9VIpBEwCiBjug0AQSM7jP8JAdARBlCagtiDIHPk/Ki+YbypljnzDl1V6NbVMQnLeZaWZkQoBDwggYjyATBWVCSRaz1ZD0qwZU5kUJfwiYIzskcyJ7/tVvWW92b4HJdv/hGW+mxnJrhvUn8INblaBbwiUJYCIKYuHTC8JJLtu9rI66oJAzQSy3T8UffDZmu3cMtBH90nm8Nfccl/ebyItyUU3lS9DLgRcJoCIcRkw7qsnkGg7T7TmDdUbUBICXhNQexJNHvwnCcJKvuYeSZP7/qfaJmnCawq5+lILrhUt1eFL3VQKgRkCiJgZEnwHgIAmqcVvVXHwplIAOoMQrAjokzJ54B+UkPFneX8zLHOS8cTuT6tXv/3ZZVtLNElyyRusCJEOAc8IIGI8Q01F1RAw58UkOlk4qxpWlPGRQHZUjYL8vZqL8pDnQehDL8jk7k8qAdPved0zFSaX/BqjMDMw+PaVACLGV/xUXopAskv9hcdkwVJoSAsSAbV+TObQ/5bJI19WQyPj7kdmviF1/Dsysfcz6k2kUffrs6jBXBMmtfA1FrkkQ8BbApqhDm+rpDYIVCaQPfVLyar/sMsdhpuvu+r1/rOo0q6gWMFFuSZXmWfXXxl7yyzLjCpjni7m6H9HRTEVXc4NrGKBuSYzKWpuSGrJrZKc/+qZFEe/9ZFdagLvV0UfPeio39lXxqtuuiENG/5EEm1s9uhwR+CuTgKImDrBYeY+gcyRL6rN956zrAgRY4Wm6l8kCwdl7C2zLDMs6rBIDquIUc0xQ0+0rFVv7NwiydxWGvbndumjeyR74i712Mp8I8ohxgXop31W6Tq58HpJr3hPgQcuIOAnAUSMn/SpuzyB7LBM7P+USOZUyXKImJJYVGKVv0hW5uXsLV1bZljWUjIj5CJmpk1a4wJJdl6am9+VUJuc1jJZ3dyJOjv4uOh9j6gJvEemXDqEdya+09/Tjqvwn2hcKQ1n/CWPek/D4ywABBAxAegEQrAmkBtGP/RZVWDu/7KIGCtuc1lZlSydXsbeMssyo3QVVqkRETH5zdNSLWqEZr1azHGZaA1LRZJtoiWbVJGEej1azW3JjogxcUxM8aIP71H7Hw3kmU9zdQhvnuPp0+r8a2qOWsOmvxKtaflcF6RAwEcCiBgf4VN1dQSyPT+UbM9P5hRGxMxBMp1g9xevjL1llmWGVZCl0yMoYk43tB5G0zb1mJ6uuMxZdf7Tq94ryQXuzPcpExxZEKhIgLeTKiKigN8Ekl23SKJjm99hUD8EYkkgOf9KBEwsez4cjUbEhKOfYh6lWgRvybtFazkr5hxoPgS8JZBoO1vSq273tlJqg0ANBBAxNcCiqI8EtKSkl79PzStY4WMQVA2B+BBINK+ThnV/oOYkJ+PTaFoaOgKImNB1WYwDVkudp5b/jkh6QYwh0HQIuE/AnICcXv9hNffYnIDMAYHgEkDEBLdviKwEAS09X9IrP6Te8lhUIpckCEDALgGtYYFa0O4P2VbALkjsPSGAiPEEM5U4SUBTIzGplR9WOxPwuqeTXPEFAa1xkTSs/zP+SOBWCA0BXrEOTVcR6BwCan2NycOfUwuC7ZuTZTuBbQdKI7R81dcyo7Qfq1ResS4iU90r0EVGNVye9p9oXqseIX2EEZga6FHUfwKIGP/7gAjsEFCLhU0e/pLaU2aHHS9zbRExc5mYKZZaxTKjtB+rVERMEZnTIqMow6HLKf8J9eZfw7oPqYX4mh3yixsIeEMAEeMNZ2pxk4C5u++J76r9Ze5zrhZETGmWllrFMqO0H6tUREwRGfdFTHLeZWqe2fvUJN50Ud1cQiD4BBAxwe8jIqySgK72m8kc/aYaLJis0qJMMURMaTiWWsUyo7Qfq1RETBEZF0WMlpDU0rdISm1YyQGBsBJAxIS154i7JAFj7KBMqt2vjUxvyfyqExExpVFZahXLjNJ+rFIdEzEl4imRVBhGxQKFxYuuKodej/9pm3pMi+LLv9RS7ZJe/UExF7PjgECYCSBiwtx7xF6aQHZQJo99U22m93zp/GpSETGlKVn+mFpmlPZjlVpZCVhZlkgviqnocq5BxQJzTfJSKodej/9pm3pM82LLP020nqkEzH8RLd2Zn8w5BEJJABETym4j6GoI6AOPSub4HWIY49UULyyDiCnkMXNl+WNqmTFjWd13ZSVQnZ9cqaKYii7nOqpYYK5JXkrl0OvxP21Tj2lebOappua8JJe8SVILX2teFOVyCYFwEkDEhLPfiLpKAsZkj2SOfU29vbSrSovpYoiY0rwsf0wtM0r7sUqtrASsLIvSS8RTIqnQqGKBwuJFV5VDr8f/tE09pnnxJZpWqT2Q3i9a8+q8VE4hEH4CiJjw9yEtqERAvb2U7btHsj0/UqMyE5VKT+UjYkpzsvwxtcwo7ccqtbISsLIskV4UU9HlXIOKBeaa5KVUDr0e/9M29ZiasWkptXmqGn1ZZI6+sAdSXndxGhECiJiIdCTNqEzAmOyT7Il/l+zQM5ULI2JKM7L8MbXMKO3HKrWyErCyLJFeFFPR5VyDigXmmuSlVA69Hv/TNnWYJtq2qE1T3yVa07K8KDmFQLQIIGKi1Z+0pgoC+sgOyR7/juiTx6xLI2JKs7H8MbXMKO3HKrWyErCyLJFeFFPR5VyDigXmmuSlVA69Hv/TNjWYao1LJK1enU50XpIXHacQiCYBREw0+5VWVSJgZKYeMfX+TAy16u+cAxEzB0kuwfLH1DKjtB+r1MpKwMqyKL1EPCWSCo0qFigsXnRVOfR6/E/bVGGqqdV2k4vfoCbu3sSjo6K+4TK6BBAx0e1bWlYNAbX/Urbv5+pzX+F8GURMaXqWP6aWGaX9WKVWVgJWlkXpJeIpkVRoVLFAYfGiq8qh1+N/2qaMqZZolGTXdZJc9Do1Baa9KCouIRBtAoiYaPcvrauWQHZICZm7Jdt7j1rxNyOCiClNzvLH1DKjtB+r1MpKwMqyRHpRTEWXcw0qFphrkpdSOfR6/E/blDJVk3aT86/MTdzV0vPyIuEUAvEhgIiJT1/T0ioIGJMnlZD5hdqH6RG12WGVbzIV+C31a1NQYOqioFjBRYnCtSbZ9VfG3jLLMqO24CsrgRr8FcVUdDnXUcUCc03yUiqHXo//aZs809zIy4Kr1cjLLSxYl8ef03gSQMTEs99pdSUCuZGZ+9XozP1iqPPqj7xfm3JGBcUKLspZVZln118Ze8ssy4wqY54uVlkJ1OCvKKaiy7mOKhaYa5KXUjn0evxP26gvc7QlueAa9ejoBvXYqC2vZk4hEF8CiJj49j0tr4aAPiHZgYfU6My9amDmRBUWVf5QFRQruKiijkpF7PorY2+ZZZlRKdjC/MpKoLB82auimIou55pWLDDXJC+lcuj1+Dck0bxekmqybrJzGxN283hzCgGTACKG+wACVREw1F5ML6vHTA+IPvScetSkW1hV+UNVUKzgwsJvLcl2/ZWxt8yyzKglcMXVIT+5Wot8FV3ODaxigbkmeSmVQ6/ev5Zoyr0inVSPjRIt6/Nq4RQCEMgngIjJp8E5BKogYGQGRB94RD1qekDMbQ0Kjyp/qAqKFVwUuqvryq6/MvaWWZYZtbWgshKowV9RTEWXcx1VLDDXJC+lcuiV/Sea1qrHReqR0bxLRZSQ4YAABMoTQMSU50MuBMoQMEdndog++LgSNU+rwZkxVbbyD1XOYUGxgosy9VWbZddfGXvLLMuMaoOeKldZCdTgryimosu5jioWmGuSl1I59NL+Ew2LJaFES3LeFaI1Ls3zyCkEIFCJACKmEiHyIVANAbV4nj78khI0T0l2UG1roFfYObvg96zgopraKpSx66+MvWWWZUaFWIuyKyuBIoNyl0UxFV3OtaxYYK5JXkrl0E/719ILJNlxoXpktE0SrZuUFy3PE6cQgEC1BBAx1ZKiHASqJaBGZPTh55WgeVbNn3mp9IrAp3/PlNeCi2prKVPOrr8y9pZZlhll4iyRVVkJlDAqlVQinhJJhZYVCxQWL7qqFHqicZkkOi5QHyVeWtYpa4RLEUIuIVAzAURMzcgwgEAtBHTRR/ZOixr1yGmie8q44Pey4KIW5xZl7forY2+ZZZlhEaNFciUlYGFWOrkopqLLuTYVC8w1yUspDl3TNNGaNyjRcr4adblAPSpiI8Y8XJxCwBECiBhHMOIEAtURMMYPK1Hzcm6ERh/ZpR47mQvq2fvxnFuzXX9l7C2zLDPmhlcupVgJlCtbNq9EPCWSCl1ULFBYvOjKDD3RuEISbWdLon2zekx0FpNzixhxCQGnCSBinCaKPwhUS8DISk7UDG9XIzVK2Iy+okRNtlrrMuXs/RiXFVWWri0zysRZIitsIibdqdZxOUOJFiVc2raqBekWlGgUSRCAgFsEEDFukcUvBGoloDaj1Ed3qZGanWKoURp9/ECdosauoChjb5llmVEbBcdEjFltUUxFl3MDq1hAtIYlorVsVKMs5mezul481w0pEICAZwQQMZ6hpiII1EhAveGkj+4VY3TnlLAZ3a8mCVd46ylXReUf4/KRlLG3zLLMKF9VcW6gRExKzWlZOy1YNuXmt2ipjuKIuYYABHwkgIjxET5VQ6A2Arp6/HRU9LF9StgoQTO6T43WHFIDDsWrB9sVFGXsLbMsM2prol8iRkuqUZWlSqisUY+HVoumFp1LtKxVLxCla4uf0hCAgKcEEDGe4qYyCDhMwJgUY+ygEjMH1ffh3Byb3Lc+aqOiMoLEMssyo7Y4vBAxibR6U2ilEiqrpwWLKVxWIlhq6ylKQyAQBBAxgegGgoCAswTM7RCM8SNTokZ96+PH1evdJ9Ucm2p25C4jSCyzLDNqa5hjIkbFk2pXoytqbRb1arP5erO5Gm5utKVhoYqJNVpq6xhKQyCYBBAxwewXooKAOwSyo7m1aozJ7qlvtTO3MdknRuaU+u5Vj6bMOTdlBIlllmVGbe2oRcQkm0VLdSlhoj7phep7gfruUuJlgRIuasJtsq22uikNAQiEjgAiJnRdRsAQcJGAWm14VtRk+kQyg2rKzYhIdlh9RpTYGRJDCSHz2tBVmnpNXA3zqIDsiJikEhyNomlqw0NzDkpCnSdblBjpUN9KiKTa1LcaVUmrSbUJdW6OsKTnq3M2SHTxTsA1BEJBABETim4iSAgEnMCsmFGTj02RU+nQ1Js/SqzkhIiWqFSafAhAAAIlCSBiSmIhEQIQgAAEIACBoBPgT6Cg9xDxQQACEIAABCBQkgAipiQWEiEAAQhAAAIQCDoBREzQe4j4IAABCEAAAhAoSQARUxILiRCAAAQgAAEIBJ0AIiboPUR8EIAABCAAAQiUJICIKYmFRAhAAAIQgAAEgk4AERP0HiI+CEAAAhCAAARKEkDElMRCIgQgAAEIQAACQSeAiAl6DxEfBCAAAQhAAAIlCfxfU6Mh20c0n6wAAAAASUVORK5CYII=;" parent="1" vertex="1">
          <mxGeometry x="135.01" y="320.28" width="43.74" height="40" as="geometry" />
        </mxCell>
        <mxCell id="k-FW7ElJ1eN7muQu-FQ2-15" style="edgeStyle=orthogonalEdgeStyle;rounded=0;orthogonalLoop=1;jettySize=auto;html=1;exitX=0.5;exitY=1;exitDx=0;exitDy=0;entryX=0.5;entryY=0;entryDx=0;entryDy=0;entryPerimeter=0;" parent="1" target="k-FW7ElJ1eN7muQu-FQ2-13" edge="1">
          <mxGeometry relative="1" as="geometry">
            <mxPoint x="156" y="220" as="sourcePoint" />
          </mxGeometry>
        </mxCell>
        <object label="Write time" id="write-time">
          <mxCell style="text;html=1;align=center;verticalAlign=middle;whiteSpace=wrap;rounded=0;" parent="1" vertex="1">
            <mxGeometry x="365" y="240" width="60" height="30" as="geometry" />
          </mxCell>
        </object>
        <object label="Mem usage" id="mem-usage">
          <mxCell style="text;html=1;align=center;verticalAlign=middle;resizable=0;points=[];autosize=1;strokeColor=none;fillColor=none;" parent="1" vertex="1">
            <mxGeometry x="349" y="416" width="90" height="30" as="geometry" />
          </mxCell>
        </object>
        <mxCell id="k-FW7ElJ1eN7muQu-FQ2-20" value="Controller script" style="sketch=0;pointerEvents=1;shadow=0;dashed=0;html=1;strokeColor=none;fillColor=#505050;labelPosition=center;verticalLabelPosition=bottom;verticalAlign=top;outlineConnect=0;align=center;shape=mxgraph.office.devices.laptop;" parent="1" vertex="1">
          <mxGeometry x="127" y="146" width="58" height="34" as="geometry" />
        </mxCell>
        <object label="" id="telegraf-arrow">
          <mxCell style="shape=flexArrow;endArrow=classic;html=1;rounded=0;" edge="1" parent="1">
            <mxGeometry width="50" height="50" relative="1" as="geometry">
              <mxPoint x="164" y="490" as="sourcePoint" />
              <mxPoint x="634" y="490" as="targetPoint" />
            </mxGeometry>
          </mxCell>
        </object>
        <mxCell id="k-FW7ElJ1eN7muQu-FQ2-4" value="" style="aspect=fixed;sketch=0;html=1;dashed=0;whitespace=wrap;verticalLabelPosition=bottom;verticalAlign=top;fillColor=#2875E2;strokeColor=#ffffff;points=[[0.005,0.63,0],[0.1,0.2,0],[0.9,0.2,0],[0.5,0,0],[0.995,0.63,0],[0.72,0.99,0],[0.5,1,0],[0.28,0.99,0]];shape=mxgraph.kubernetes.icon2;kubernetesLabel=1;prIcon=pod;container=0;" parent="1" vertex="1">
          <mxGeometry x="359.8965517241379" y="310.188679245283" width="93.10344827586206" height="89.37931034482759" as="geometry" />
        </mxCell>
        <mxCell id="k-FW7ElJ1eN7muQu-FQ2-5" value="influx-proxy" style="aspect=fixed;sketch=0;html=1;dashed=0;whitespace=wrap;verticalLabelPosition=bottom;verticalAlign=top;fillColor=#2875E2;strokeColor=#ffffff;points=[[0.005,0.63,0],[0.1,0.2,0],[0.9,0.2,0],[0.5,0,0],[0.995,0.63,0],[0.72,0.99,0],[0.5,1,0],[0.28,0.99,0]];shape=mxgraph.kubernetes.icon2;kubernetesLabel=1;prIcon=pod;container=0;" parent="1" vertex="1">
          <mxGeometry x="348" y="303" width="93.10344827586206" height="89.37931034482759" as="geometry" />
        </mxCell>
        <mxCell id="k-FW7ElJ1eN7muQu-FQ2-6" value="" style="shape=image;verticalLabelPosition=bottom;labelBackgroundColor=default;verticalAlign=top;aspect=fixed;imageAspect=0;image=data:image/png,iVBORw0KGgoAAAANSUhEUgAAAl4AAAGcCAYAAAAI6a6kAAAMS2lDQ1BJQ0MgUHJvZmlsZQAASImVVwdYU8kWnltSIQQIREBK6E0QkRJASggtgPQiiEpIAoQSY0JQsaOLCq5dRLCiqyCKHRCxYVcWxe5aFgsqK+tiwa68CQF02Ve+N983d/77z5l/zjl35t47ANDb+VJpDqoJQK4kTxYT7M8al5TMInUCAjAEZOAJAF8gl3KiosIBLAPt38u7mwBRttcclFr/7P+vRUsokgsAQKIgThPKBbkQHwQAbxJIZXkAEKWQN5+aJ1Xi1RDryKCDEFcpcYYKNylxmgpf6bOJi+FC/AQAsjqfL8sAQKMb8qx8QQbUocNogZNEKJZA7AexT27uZCHEcyG2gTZwTrpSn532g07G3zTTBjX5/IxBrIqlr5ADxHJpDn/6/5mO/11ycxQDc1jDqp4pC4lRxgzz9iR7cpgSq0P8QZIWEQmxNgAoLhb22SsxM1MREq+yR20Eci7MGWBCPEaeE8vr52OE/IAwiA0hTpfkRIT32xSmi4OUNjB/aJk4jxcHsR7EVSJ5YGy/zQnZ5JiBeW+my7icfv45X9bng1L/myI7nqPSx7QzRbx+fcyxIDMuEWIqxAH54oQIiDUgjpBnx4b126QUZHIjBmxkihhlLBYQy0SSYH+VPlaaLguK6bffmSsfiB07kSnmRfTjq3mZcSGqXGFPBPw+/2EsWLdIwokf0BHJx4UPxCIUBQSqYsfJIkl8rIrH9aR5/jGqsbidNCeq3x73F+UEK3kziOPk+bEDY/Pz4OJU6eNF0ryoOJWfeHkWPzRK5Q++F4QDLggALKCANQ1MBllA3NpV3wXvVD1BgA9kIAOIgEM/MzAisa9HAq+xoAD8CZEIyAfH+ff1ikA+5L8OYZWceJBTXR1Aen+fUiUbPIU4F4SBHHiv6FOSDHqQAJ5ARvwPj/iwCmAMObAq+/89P8B+ZziQCe9nFAMzsugDlsRAYgAxhBhEtMUNcB/cCw+HVz9YnXE27jEQx3d7wlNCG+ER4QahnXBnkrhQNsTLsaAd6gf15yftx/zgVlDTFffHvaE6VMaZuAFwwF3gPBzcF87sClluv9/KrLCGaP8tgh+eUL8dxYmCUoZR/Cg2Q0dq2Gm4Dqooc/1jflS+pg3mmzvYM3R+7g/ZF8I2bKgltgg7gJ3DTmIXsCasHrCw41gD1oIdVeLBFfekb8UNzBbT50821Bm6Zr4/WWUm5U41Tp1OX1R9eaJpecrNyJ0snS4TZ2TmsTjwiyFi8SQCxxEsZydnVwCU3x/V6+1NdN93BWG2fOfm/w6A9/He3t4j37nQ4wDsc4evhMPfORs2/LSoAXD+sEAhy1dxuPJCgG8OOtx9+sAYmAMbGI8zcANewA8EglAQCeJAEpgIvc+E61wGpoKZYB4oAiVgOVgDysEmsBVUgd1gP6gHTeAkOAsugSvgBrgLV08HeAG6wTvwGUEQEkJDGIg+YoJYIvaIM8JGfJBAJByJQZKQVCQDkSAKZCYyHylBViLlyBakGtmHHEZOIheQNuQO8hDpRF4jn1AMVUd1UCPUCh2JslEOGobGoRPQDHQKWoAuQJeiZWglugutQ0+il9AbaDv6Au3BAKaGMTFTzAFjY1wsEkvG0jEZNhsrxkqxSqwWa4TP+RrWjnVhH3EizsBZuANcwSF4PC7Ap+Cz8SV4OV6F1+Gn8Wv4Q7wb/0agEQwJ9gRPAo8wjpBBmEooIpQSthMOEc7AvdRBeEckEplEa6I73ItJxCziDOIS4gbiHuIJYhvxMbGHRCLpk+xJ3qRIEp+URyoirSPtIh0nXSV1kD6Q1cgmZGdyEDmZLCEXkkvJO8nHyFfJz8ifKZoUS4onJZIipEynLKNsozRSLlM6KJ+pWlRrqjc1jppFnUcto9ZSz1DvUd+oqamZqXmoRauJ1eaqlantVTuv9lDto7q2up06Vz1FXaG+VH2H+gn1O+pvaDSaFc2PlkzLoy2lVdNO0R7QPmgwNBw1eBpCjTkaFRp1Glc1XtIpdEs6hz6RXkAvpR+gX6Z3aVI0rTS5mnzN2ZoVmoc1b2n2aDG0RmlFauVqLdHaqXVB67k2SdtKO1BbqL1Ae6v2Ke3HDIxhzuAyBIz5jG2MM4wOHaKOtQ5PJ0unRGe3TqtOt662rotugu403Qrdo7rtTIxpxeQxc5jLmPuZN5mfhhkN4wwTDVs8rHbY1WHv9Ybr+emJ9Ir19ujd0Pukz9IP1M/WX6Ffr3/fADewM4g2mGqw0eCMQddwneFewwXDi4fvH/6bIWpoZxhjOMNwq2GLYY+RsVGwkdRondEpoy5jprGfcZbxauNjxp0mDBMfE7HJapPjJn+wdFkcVg6rjHWa1W1qaBpiqjDdYtpq+tnM2izerNBsj9l9c6o52zzdfLV5s3m3hYnFWIuZFjUWv1lSLNmWmZZrLc9Zvreytkq0WmhVb/XcWs+aZ11gXWN9z4Zm42szxabS5rot0ZZtm227wfaKHWrnapdpV2F32R61d7MX22+wbxtBGOExQjKicsQtB3UHjkO+Q43DQ0emY7hjoWO948uRFiOTR64YeW7kNydXpxynbU53R2mPCh1VOKpx1GtnO2eBc4Xz9dG00UGj54xuGP3Kxd5F5LLR5bYrw3Ws60LXZtevbu5uMrdat053C/dU9/Xut9g67Cj2EvZ5D4KHv8ccjyaPj55unnme+z3/8nLwyvba6fV8jPUY0ZhtYx57m3nzvbd4t/uwfFJ9Nvu0+5r68n0rfR/5mfsJ/bb7PePYcrI4uzgv/Z38Zf6H/N9zPbmzuCcCsIDggOKA1kDtwPjA8sAHQWZBGUE1Qd3BrsEzgk+EEELCQlaE3OIZ8QS8al53qHvorNDTYephsWHlYY/C7cJl4Y1j0bGhY1eNvRdhGSGJqI8EkbzIVZH3o6yjpkQdiSZGR0VXRD+NGRUzM+ZcLCN2UuzO2Hdx/nHL4u7G28Qr4psT6AkpCdUJ7xMDElcmto8bOW7WuEtJBknipIZkUnJC8vbknvGB49eM70hxTSlKuTnBesK0CRcmGkzMmXh0En0Sf9KBVEJqYurO1C/8SH4lvyeNl7Y+rVvAFawVvBD6CVcLO0XeopWiZ+ne6SvTn2d4Z6zK6Mz0zSzN7BJzxeXiV1khWZuy3mdHZu/I7s1JzNmTS85NzT0s0ZZkS05PNp48bXKb1F5aJG2f4jllzZRuWZhsuxyRT5A35OnAH/0WhY3iJ8XDfJ/8ivwPUxOmHpimNU0yrWW63fTF058VBBX8MgOfIZjRPNN05ryZD2dxZm2ZjcxOm908x3zOgjkdc4PnVs2jzsue92uhU+HKwrfzE+c3LjBaMHfB45+Cf6op0iiSFd1a6LVw0yJ8kXhR6+LRi9ct/lYsLL5Y4lRSWvJliWDJxZ9H/Vz2c+/S9KWty9yWbVxOXC5ZfnOF74qqlVorC1Y+XjV2Vd1q1uri1W/XTFpzodSldNNa6lrF2vay8LKGdRbrlq/7Up5ZfqPCv2LPesP1i9e/3yDccHWj38baTUabSjZ92izefHtL8Ja6SqvK0q3Erflbn25L2HbuF/Yv1dsNtpds/7pDsqO9KqbqdLV7dfVOw53LatAaRU3nrpRdV3YH7G6odajdsoe5p2Qv2KvY+8e+1H0394ftbz7APlB70PLg+kOMQ8V1SN30uu76zPr2hqSGtsOhh5sbvRoPHXE8sqPJtKniqO7RZceoxxYc6z1ecLznhPRE18mMk4+bJzXfPTXu1PXT0adbz4SdOX826Oypc5xzx897n2+64Hnh8EX2xfpLbpfqWlxbDv3q+uuhVrfWusvulxuueFxpbBvTduyq79WT1wKunb3Ou37pRsSNtpvxN2/fSrnVflt4+/mdnDuvfsv/7fPdufcI94rva94vfWD4oPJ329/3tLu1H30Y8LDlUeyju48Fj188kT/50rHgKe1p6TOTZ9XPnZ83dQZ1Xvlj/B8dL6QvPncV/an15/qXNi8P/uX3V0v3uO6OV7JXva+XvNF/s+Oty9vmnqieB+9y331+X/xB/0PVR/bHc58SPz37PPUL6UvZV9uvjd/Cvt3rze3tlfJl/L5fAQwojzbpALzeAQAtCQAGPDdSx6vOh30FUZ1p+xD4T1h1huwrbgDUwn/66C74d3MLgL3bALCC+vQUAKJoAMR5AHT06ME6cJbrO3cqCxGeDTYnfU3LTQP/pqjOpD/4PbQFSlUXMLT9F8WngyBMewIsAAAAVmVYSWZNTQAqAAAACAABh2kABAAAAAEAAAAaAAAAAAADkoYABwAAABIAAABEoAIABAAAAAEAAAJeoAMABAAAAAEAAAGcAAAAAEFTQ0lJAAAAU2NyZWVuc2hvdK7HhmMAAAHWaVRYdFhNTDpjb20uYWRvYmUueG1wAAAAAAA8eDp4bXBtZXRhIHhtbG5zOng9ImFkb2JlOm5zOm1ldGEvIiB4OnhtcHRrPSJYTVAgQ29yZSA2LjAuMCI+CiAgIDxyZGY6UkRGIHhtbG5zOnJkZj0iaHR0cDovL3d3dy53My5vcmcvMTk5OS8wMi8yMi1yZGYtc3ludGF4LW5zIyI+CiAgICAgIDxyZGY6RGVzY3JpcHRpb24gcmRmOmFib3V0PSIiCiAgICAgICAgICAgIHhtbG5zOmV4aWY9Imh0dHA6Ly9ucy5hZG9iZS5jb20vZXhpZi8xLjAvIj4KICAgICAgICAgPGV4aWY6UGl4ZWxZRGltZW5zaW9uPjQxMjwvZXhpZjpQaXhlbFlEaW1lbnNpb24+CiAgICAgICAgIDxleGlmOlBpeGVsWERpbWVuc2lvbj42MDY8L2V4aWY6UGl4ZWxYRGltZW5zaW9uPgogICAgICAgICA8ZXhpZjpVc2VyQ29tbWVudD5TY3JlZW5zaG90PC9leGlmOlVzZXJDb21tZW50PgogICAgICA8L3JkZjpEZXNjcmlwdGlvbj4KICAgPC9yZGY6UkRGPgo8L3g6eG1wbWV0YT4KzySrCQAAQABJREFUeAHsvemTG1eW5fkisMbKRRK1rxRJ7fu+ZyqVe1lldXVNdY+VtU3bmPWH+TL/Qv8FYzZmYzNfxmbrsaru6eru6qrMrMxSKrVvXESRFEWtJCVqoShKIhkR2IGY87tghIIRDocDcDiAiHfNwiICcLg/v+7wd9695547tihz3mL1QPHwQVc8dNBVPjnqat9+6xrlsnONRqzHGKWdjaXGnUtn3Hg269y4/m5n2mYslbKfdpuO6vvj0zMuNTPrxjKZlqcwls+79OwmNzYxaduMpdMuc+VVLjU7q8/qdf3vzXvAe8B7wHtgtDzgn9wxXa/6ubOu+M5BV3r/XVf96itX/+a0qy/MO1evx3SE0d3NErLfuNBz7bUDcI1lwoGogU+B1WWANTbuxqem3JheG5+cdJlLtrnstdfbT3rL1rUH8a94D3gPeA94DwydB8Z8xKu3a9IQuCp/ctxAV/nD913li8+cq9V626n/tPdAOw8oIpiamXHpSy51mcuucNmrrnb5m25xmW2XRosqttu/f997wHvAe8B7oC8e8MCrB7dWT37pSh+854oH97uSQNdiqdTD3vxHvQe69IBSjkS8Jm67w+V33uRy23cYKHPjqS536D/mPeA94D3gPdAvD3jg1YVnFxt1V/38c7ew5w1X2L/X1U591cVe/Ee8B2L2gLhx6UsvczOPPekmbr5N0bBtlpaM+Sh+d94D3gPeA94DPXjAA68OnbcozhZA67u//feu9JGPcnXoPr95Ah6AAzb98GNu6qFHXfbqa5pcsgSO6w/hPeA94D3gPdDeAx54tffR91uoMrF25jt3+n//31zl00/cYrXy/Xv+L++BIfPA5N33upmnf+LyN+50bmxsyEbnh+M94D3gPbAxPeCrGju47rXTX7tv/t3/4SonBLpq1Q4+6Tf1HkjeA6X3j4hoL56XFgz5XTcnPwB/RO8B7wHvAe+BNR7wwGuNS4JfqH39lZt79UVXPn7ULVZ8pCvYS/7VYfJAo1h0pSOHrcoxffE2l77oomEanh+L94D3gPfAhvRABDXLDemXC04ayYjShx+4wt7dHnRd4Bn/z1B7QNrIjcKCtOWOuHN/+Mfmvev1kof6kvnBeQ94D6x/D3jgFeEaVz474Qpv7XGkGr15D4yaBxpz51zh7bf0s0+8RJ8iH7Xr58frPeA9sL484IFXm+tZF5m+9N5h0+lqs6l/23tgOD2gKFdd4GvuhT/Y4mGx7gV+h/NC+VF5D3gPbAQPeOAVcpWRjii+964riifjxVFDHOXfGn4PKNJVPvqxKxx82zXm1crKm/eA94D3gPfAQDzggVeI25vRrndVxfhpyFb+Le+BEfGAIl9zz/3eVb/8wrGo8OY94D3gPeA9kLwHPPAK8Xnx3XeaoMv3Xgzxkn9rlDxAM/eF3a8LfH0+SsP2Y/Ue8B7wHlg3HvDAq8WlrHwuQv2+3Y5+jN68B9aTB4qHDriqCkYW/YJiPV1Wfy7eA94DI+IBD7xaXKiF11521S8UFfBCqS085F8eVQ80SkVXEPgqH/1oVE/Bj9t7wHvAe2BkPbBGQLV+9oyrfXPaNRYWAk9qLJNx4xOTbmxiYvn9cf09PjnlxlJSyR5xIwpQ+eSYkerr83MjfjZ++N4Daz0Av6v84fsuc9ll+rncpWY3rd1oFF4RZw15DJ5Zi+f1ySgcQHdvtdHqC+HjsXRaz68Jl9q02WUu1blv0rn7dkqr3eX/9x7wHuijB5aBV1WNn0k/0A6n+tVJ1ygWAg/Lg2tMwGs8n19+HyDGw2wspffSKTeWy9vPuJr18h4PtvEpAbNczo1n9aO/h9L08OahPffS8yq7P+2cJyAP5WXyg+rRA7qvASuIAmevud5N3nl3jzuM9+MsfhqlkiqJi/pdNMBkr0kMlt+L5bKEYfV8WgJe4q0tLjZsECwYEY1dbfUzZ1xDvVV5Rhnwmp11mcuvdNMPPuLS27bpuZVZ/RH/v/eA94D3QF88YMCrevILt7DnTVc88JaBrl5a4oxlBLYErManps8/4LSiHB936S1bDLClFBlLbdlq0bExgbfxvAAbgEw/ADbAGtsPwnjIlz/6sCk0qYe7N++B9eyB6hefmUZdfvsONz49neipLgEoGs0buAJM6WexXDJQVdcCiOgV+mOALJ5JgEXAk0W1BLZ6tdK7h11Kz6qphx9zqRkPvHr1p/+894D3QDQPGPACdM2//II92KJ9rPVWPEjrZ/j5rvVGAlZEzFLqH5e5+BLrIZfavPX87y0CYYqYKaU5JhDW/C1QRhqznykBRQGqJ0+6cy88aytqVtPevAfWswcac3Om7VX64D03ec99/TlVosgVLWKIVAk8kRqkwXxdoKr2zTeuce6Mq379tZ4X37rat/oRzYFIVxK22KibMPLk3Tr3mdkkDumP4T3gPeA94JZTjYn6otGwVWzj0+Ouqp8LLCVQNjmtNMAVLnft9fY7e821FiUbVzTNomECbmNExWIEYjWtrEsfvufKH7x/wXD8P94D69kDRL3m33jVTSjd2DNHk9Sfvtu2aLHf+p4XS6786TEDWZVPjrqaFjdVNZwfChFXjbeu1KSNeT1fZH9u3gPeA0PlgcEArzAX1PWwFqm9/PGHrnLsqAGtMQNjUy59yTaXvfoal73uBpe7YbtLb9oSW1qyKpHUhddeCRuZf897YN15YLFSVaT3C0uvTxH56SHNj0ZYWYUpCLRSEUyP0/p330isFTDWWP7tAGXevAe8B7wHNqgHhg94cSFI8yn1t6SuTdIPsi2rU4j/hbf2OvhhAK/stdeJHHupRcYy2y5TtExk/g6NiYK2QKzEvXkPbCwPKOrz3bdu7vk/uIldtzQLXyJEkvk+1k6fErj61FU//8zS9NALKMqxdKLSiw2lFkkxevMe8B7wHvAe+N4Dwwm8vh/f939plQz3oy7y7dKKufbVV64iBW6rqpyaFEF2k3hiF7vslVe5tErFMwJkVDCFreIh+ZZUWl9858DoTRJEAqkojZmf0jgnQnNASf73F8P/tZ48AFBi8VE4uN9N3n2v3VNrzk+LISJY1a++dHzvWKQY2V0VhFYxSMWh9jM03EiBR4p2KOSpfX0q+Lut6F5WchrwSL15D3gPeA8k5YFIwIuoUn7XzVoNzwSOixXzYl0rW0WpGkWVgOshTIWS6WChs4Melt7r2YiE8XPejMj/7Teu7r5pviICPnpigC+qKNHqSRt5X/+LyM/rq6Usysc+dqV3DzUfzks7HpHflMZnr7zaTT30qOkTxTXswoH9AqIHuyI5WxpYVXKrtaEqx+Xnjz8SmbrzarSZHz6ja6m08nlbVDSFjgJ0FujUuP7ICCCL0g8jSltTeq0uovjSAqEfx4l1n/pOUVkI1ytzxVW2cGGxQuqwJpmZ2jdfm7+RWCGqZT/iRBrQIjUZx3c77IR0rVIsLvT9Tp2vljY9wemZ5etIsQ4yN3wnsDGidhlJR+iZdeZv/8bOZfUh2GacfWi/3rwHvAe8B5LygD2lACg81AJNDye0fmae+KFxrIK2sUokUgoAL1bAqliiLLzGJCsOiZWE68FupeKUjAuc1UlJqEy8ru0tHbECUAUdI9JrHF8TQoWf481PLIOvSyUWqVRkeutWA2Qp6fiIoa+05R6r7BqZSXKlI+QzhCMBm/kdu5ppViacXo1JV4C2G2Xz3PXb3exTT1v6d+UwqJo1fbgugNf0I08Yt29pf0TjCgcPdAW8iIAAVNMIZ8ZskLSJ/sy/8Yr9Hql7St/fipTs5199ScDrSitcocoQ/hfgy7o4BPkrJtBF1NZkaKhmRlYGIIU0zQzgKmNCpwAktkuJTtB8b3Y5WkVk20ScVwJqroeeBWeRqAkyfVdsgdDq2Rf0Gf+a94D3gPdAjx4w4JW5QhEAKgZb2FhWoXhWti2MSFI7IxJG5AtgRIqi9t13Kh/XCpqScjR7KDVHwwfhRP7mdwztejgWP5D1OQdSc9mrrjZOGGCTRti8PwhDLoMxLVYBrZ1zYYg4VI4fc+d+92sDvPmdNym1Ir2086v+bs+JatLy9Td0Bbxs8hQQHFYjcjJx2x2KiG6NdYhEX1mAEP1FpmGkQNd5T3A/zb/0R+cALwiSQoqP07Rfk4rJSSYGIWX9kA4keoWKvEWkBaq4RuNaGAGkoAt0a8hFAPahEwSagJcXTw30jH/Re8B7oI8eaEa8FL43eYY+HshWpPCtVJm42gBkS2kNuCZMYPwGEJnQoiYEQJg9QFlhdxsd0woYkFd6/4j9rB5HIv/rYU8BwJiEY0mDMhEZOFQkyBS5FRnsZNIm7VY+ftRVT51000/+0FGZtrTfllHMNicKeKOClMmR/Uc2UkKKnvZdjFORyjGlkTo2gLcm81hBF/eUorhVcQ0X9jb18LoWICZaSfSF39zn2vdArBVQ6WQw8rVp8GkRYBwqnRf3Bi2KMpeg3acfgSru1dVp6U4O09u24oFpwWlpyd525D/tPeA94D0Q2QPNiJc0syyqFflj8W6YEs+Cn6z4Je6ue5s7F7gi+gWZl6gOXCzaGdVOf20RMduoWwAW7/Cj700TKtWYM0//2E0/9Jit8Pkw0RKr1ty3x82rOXd9TinaTqIN+EoVn+d++w9u4ZWXbP9T9z+0vP/oA2xuSWond9W1Ln/zLepmsD/yxzNK5xoXJ/InutsQ4Jq96pqOP2xpZ40xTmPRQLp6/tWXXWW1Jl0nB+LesMjPZQbKa5DXlbIfqapAAON5S21WxbH09/hOk35Gl886VqxMBS5tPKDfLDZz115nUbcBDcEf1nvAe2ADemA5bADw4cFvhNmVjhCXvfLpJ0aaX/ly3//WQxyeBxNs5rIr3NR9DxqBn/YhgBTjnkjxGh4SZe1dRxn6fiLnD6DzYeLf+i//lTTIbhTQ/L5FC0CHiWn2mZ+5KfWOW3jzNbVweqMrwj9A4Nzvf6NWMO+azybuusdAbaenmRIXLnvNdR0BL86LCEYSBjme9FRV1z4quZsoXk4acD0bQFdRrsL+vQaUq5+fsP+72q/OI3v1tW7qnvtcbufNVhSyFPGqSFsOzlXxsAodFPUdWuMc9D01oKVz4XdawMsR7VKky/q7qoerG2/BIx3aE/MD8x7wHvAeiN8Dy8AL0iqco7UPeBG4ST2cb0Ib/xBC9kgUQA/1lRVoRFRIhTGBEimCzG+pSQjAALLP1Oi7l8hDyHB6eSu19SK36Wd/4uBhmcTFiugAEy28rLFJcWAENqcf/4GJxBZV3l88fMh4Q5GPTepL4NQAqfhG1g7mznuM12ScspXHDdkpIJFIBbIcNUUdo1jmyqvs2kTZttdtOJfcrptcTa1mlvTe2u2TFKMRx9ttGPI+PMTy0Y/dueeftfuNIoRuQX/+pltMMd78rPuD/qYr7/U8UiGK7lF5t/DmqwHfzZCB9vEt0uSkDA1s6ZpnxJmk5yr39Rgkd/qv6ns7cNN3oUbFdUDKlvsnQxGBol7evAe8B7wHkvTA8tMxrQc/1UROKauhNj0oebA7fs4bEbHs9ZKwUGqmfvY78Z1UAi/tHn7Kx46aEv7StoP4PT67yU3cerubVPRpDehaPSCdH5WXkNQhGwMwi4peIXkBoIpq8MVqAqJoclXlh9JHH1hUJaOIBOCunTFxkjpkzETQ2hnRLqQtKF5IwvAj6VQAJtIS7VJyAEikLlbKUnQyTriB3EvFg2+7itrsVMSrs+KP79VNou1OESAAy8Rtt1slauaKq5WelUxLAAAgLU3UcUoRNhYZREIHYU2QooIURQzTuid4VpBKhJvV/BnOPocArgaFMyLZr7ExcdDsXv0+PbpmG/+C94D3gPdAHzywDLyIJBkJNuAgtPCJGlUI+HjfX6IyKq0fp4iG0+o7v0MVZlrpUmFW/kT9IDVRUg4PX6zb6ETXJ6EJFZFGUqWd8J/GdT5UX6YvushSrVR3AZ5swkcRPIqRElNEsCJ+XI1iBUVncjt3OSItSGu0ut5Lu2ZSnVQPv/LHH4jAfywY3AhIMLaphx+zKEhSmkjGQ7tOMidPPu3mX3/Z1NMBm0GW1rlO3f+gm7j51rbnvPrz7LOsCGpZIrsI7ZY//siqb1dv1+5/u0eVhiW6hf/zN+5U5d6mthpSgB5SkZO6fypKaRLRTdJIHU/e+4BxoYjaAroonui1cjaRc+D+57ui36ttTKlPIqBj4x54rfaN/997wHugvx5YBl6ml9NCUgLBxLUpyP4OrOu9k7YTaLHqKQGenPStiHyhTL+w501XUS+5JI3IQE7pRSJC3RgRpNyNOyRseaVFPwpv72sWGajyE8mNSMYEJN00PguIIEI0cfNtmtAVbdl6ccvJfynSMfvDH7vCobdVeSrRTGQ+FH0hPWrpJaXCOD8AGjzBxIzrrKrL6Yeb4rGAUmtZo6hgsxJT74uzSDQpv+MmS+lxT0Q1FhrwCOE3Fg685crav8lERN3B0naKHAJWiFyRZqZgIXOJJBI0/qhGhBIS+NQDD7szEaJ7UfcbZTsoCJN33KV7cGeUzYdrm4baIUm+JjDVKF6lyeAo8uXNe8B7wHsgSQ8sA6/0ZqW3iBoFGKDL0ipwJQJSIgEfGZqXLGWmCZfID6miRIGXJl1A04QmrnbRpVCHAXKUeqSdS27HTld8+y0DA4ACJpao5HKOQdRr/qXnxf1639KIpBIhqbfqccmkT8Rj4vY7xaX7Rpwq9ePTMcdElCYCghBtcwKLDiRCz7XDN5EDmH7kcfNNHW04Vb0iTWLAUD4jrZfavFmco0ykPXOfI4IKb3Bh9+vy834730gfXrmRvidwtixdq+s/IZ5dJ8Bv5a74m2jppKRCGFOU1Orqz3f7P/dLYf8+A452D3cAGLs9ZlyfM/CsSK+rBaUamwuHuI7l9+M94D3gPRDVA8vAa2xCvJ8QQiyrfcL2UfhBUQ+e1Ha0Q7F+jCKrJ2lEOiZUqYYgaVxGVGn6sSctXcUkPP/GawIKIhC3SKm0Om5N0Zxzz54UZ2l/k/Sv9BfRNSNFB0yuRJeovORnGI2x80NksCuDDyQfUkgw9/ILVlVqqcuANFXo/uU7wCCRNoDS9KOPWxue0M9EeVNALq2Ch9kf/9yd+U//ITHRXzTmiJRO6FxyEtVNKpUcxSXtt1GKUcLEYsit2dTu56uv0fn4iNca5/gXvAe8B/rqgWXgBTE6pQhBK6sLeFkKJwIxu9U+BvU6lX2ld99JPF1KpCunHpf9MKJMsz/5hZuUDAHga05VdlTcBcwxrQ8vrTCEar/5d/+nANXlNqnnb7r1AqmL1h9eX+9QkAF5nX6FRLwCCdkRTtlI/w884ugvaRwipTvjMlLo0yooIGKJbptFoePaech+rO3O73/tLvnX/0aVt62fESG7GMhbVGO35CaK24V4sUKjAxmbP6j3gPfAxvXAMvAySQM4XiJLB6WuAF0mKzFivqI1UfGdQ5ZmTHLoVNDl0WUSQOqLEVnRtUqLLzSrSX7ytjuNZE5aiAq8yKaIDte28vln7rv/+DdKKd5lWmK5667vLT0aeQCD3dBSilKcp1qRFB4p6W4U4+FI5sWbm3niB5ZeNGkIvktxmyJfFvX6u7+1opG4dx+0P6KpFbXcouMDwNwqc4M2HMbXoEcE2LgAMWngUaNOBJyKf8l7wHtgxDzwPfDSwKlio6UKHJ7VZgR72tmMmBVFCi8f/fA84TqZwcOFmbr3fvFiru17agbwtXTdZuE06Zg0kKb6kWrUyKboANe4cGCftb+hGABeF4TwOAzxUlKBQ2GajOGBFY8cNoFYOiJYe6ouREohn+cV1aT/IwR6Kjx74vNFcBAN0bMi28O3WwQo9tusOKPo5l54TpHRK0cCeJEmNi5ckG9EqTBgHGM0Mugw/jXvAe8B74EgD1wIvFRejaJ6EPBCnqFRjFhFF3SkAbyG8jeq31Q1JmlUgFFNCSBKyqyIQPwrSv2ZHNG3QnzVmoPT9y+ioftVnp83kjr9BxGjnVDFYka99XqJDphmUgiHMOLwetqM6jYAFj5B2Z/iBM6xK4kRnUuz2m9XsyWOCjhaFSj0NOiAD3OcqfsesGuEzEUiJt/RtovqTu6xRCtYuzhBovNc6yCDgwdg9uY94D3gPTAID1wAvKicMxHVgJHAe4GkPirGg3dh7xuqYjxuzacTGTfpP/FGph96tBn56Eeqqc2JmLK/JhWT01D0pSgdprIiOlWB0MgGQFE0pajIZ0X6Z7XTpy2qQ/oxivZU0HGomO2YmC1/Al47/lzAAJiEAeIGusT5o7F4O9HVNbvReEizmbTH1dcZvw6NrUGk3nI3So9th9pliZvWCmCsGX+PLxBFWlBfSkRUU9t39ATEexxK249bdSrVrQHFEdyLsTZKbzsav4H3gPeA98D3HrgQeIk43ypNghjp4ogAL8rIK5+dMN5OUpMSLmUlbeKYUqknlTFIA7AgYZBVRWVRhQWFfbtNRJZejkEcvsCxyo91ySrMvfAHi3ZM3nW35DF2GahLcX4dSIsgO2H9KYl6CRRHMgFXooeQyrs11P6JeFpVq7TckBTp5j4mTYqYaEaVcJPiwaHHZR0UBMYGYVQX5yUIS3EEOmPd8NK6GbfxvBTNRcUejbphNaKYrSLd3E+0xPLmPeA94D0wCA9cCLyUwmg1ycGJqVNJpck4jghE304WPop4L/MvPifl+u8Sm5AAIajM049xWLhMXCfI/TOPPiGwcKc7++zvRJB+11JUJpWgyFYkk0/hjPGT33WLqcBbKlX6WAY+IuwE7mDmiqtc+mNFaQTm2hrRJU2QcKc69qfGS8QTjltJacWF11+x1GsnLZeWxyceEKm9vDhv6JkBdoYlzYYKfnXnCetoEEQPWD6HOP+QX4uHDpj2GxpwnYDvOIfRbl8GvE5/HbgZafmk0sKBA/Aveg94D2xoD1wAvFIzIteHEKCJHqHnhSDlsJpVYIm7s7DnjUTlI0jxQUYnHTd0JlBIdGLrX/xLAZCP3dxLf3Ql8b8s+hUVfJ0/KYBb+ZNjLrf9RmlUCdDdcbe0v1S9F0EBfOLWO6y1D6TwdlE3BE+p2Jy4RdHDTiRMdD4NyWpArD73h9+povVgdIX/lReOSJaAK22bpiQPAZ+LiNcwGdHprO43oqwFVWYGpdX6MV5L1+q4iAMnyWPs5FzsHlCaPMgnyEgM27Xs5Nz8tt4D3gOj7YELgBfl1emQ9EFNKtb1c2eGGnhRBHDu2X9MtrekJmiERacff2ro7waq4bb+5V9Z78H5V19SGvJQx+Ry9MJIOdH/siAZhk0/+qmdv4mvhngge+VVbvZHP7F09vxrL7fckpQtgGLLn/2FCZFGjaoQ5YLTN//qiyb6CQjntY4NoKpU7ewzP1PXgTv1nVBPvwEXBrQ6B1LJU9Jyo1ggsaiXBkPhBuCFdlLDZkTliXpbB4Ogwen7ioCqN+8B7wHvgUF44ALgxQQHUXgsPxHIg7F0oyrehtUQeqTKi6hOUpwXfIGEANGuvml2xehw0o9jusb0V2S8VCwW1IKI9FFk0VAIywI0REBL6F+p8hGV9imJe6aRU9AxAg2AKvA1/dTTth0E9+rnIu9/q9SjJktaEFkER70V84qmZC6TSn6rfa06ACK5BRG/qbpjgYDAaMcmFfP0lousldKUCiQMcJF+jziGjo8XwwcYG1E5CjpYcCRltGaiYXhVUUzTw0rqwBGOQ19S2lsFRbv4OGnv7JB2YIhwen4T7wHvgRH3wIXASyfDSp9UYu3k2grG+tmzlmocxnM2Qr1SjHOKdpiCe0KDpJF0Vlybybvu1QS9xp0JjaLzw5C+G9fkA8mYCkjT/5L4au2rk80m2FF2SVpPkQV+FlTxhh7WhAoL8koPAkaDzKJZ4nqRmoUv1RCQt2pZgTkbk+4/oq7Go2oHeOCeSfi1eGC/yPPvmaAoHRa6Ad3pbZcprXmrCYRmrlBrJPWvHBVLKSIH8C+o/RNVjq0AR6znI+AN56+glP6mX/4q1l33ujPuqapaPwWawPV4LtuSyxr4Gf+i94D3gPdAjB5YgxTQtwF81cSRWW00zE2ySnD18cP+r339lbUFQpspSUM0E9X4keSMEOGUJlNu6gaXkoYbAIwUItEj/OnUUiiqQZiHu8VvUpCIimZv2KEI0trKN7hJ9LHkpxsjhVhVpSLCuOUPP7CKRbsvFTXr1ACeuZ2SZtB4cxovPhjmCFfQ+QH+SXVPPfCwO/e7XyfGbSStX1SKc0Ike5qRD4uxEGhVwEExyLj6nXrzHvAe8B4YlAfWAK/UJiJeaydLBkgrmpoaMlMdNkxVQYtSHCftAV+pHWk7TkcDUiduuU1iqTvj3G3y+xIxHl2j9H0PuqyiUQbA3jsiSY5PHWA7sgn4VBWBQverLAA8cfuX0pqSyrpSYaZ1FYGAH3Ys+FpEXSsnjotj9I54TYetQrPjCBeAk3STVP5zau1EuhX+GdG4UTXOZ0pVl6SMK5+fcK4LFf6Oz13XG8mGwt7dFiFsJUXT8X57/ABp5tqpYNFkZF5YZHjzHvAe8B4YlAfWAi+BrrBIBMKaVUVDciL1DotVT520KA2RlsRMk3degAuu1LBWdnXjC8RB4WnlpZ+18NZeVT8edFUBKdO+gtsVwUj1VqRyXv3iM+NcEYkhMojchjUmpmKwE1NKkxRi9eQXJp1QUqUiyvwdmwEu6XGpWjKn8cDjAhQSMRp1g/xP1BWu19l/+k1TSiXi9erl3OFVkuJEaoOo26CLEJrgXJFXIrYBBvAKKyAK+Ih/yXvAe8B7IFYPrAVeiuKkEReEXxOQukEbCx7JsAAvol00hiZFlqSRopuQlALK5evNmDyplksr7YaO1tzzElAV0DH5CUWdonKI0AorSbwV+YFJRZUm73tI98110fvkCTg01MCbrglEchbefNXa/HTsbwE9ojGkFfMi7k8//qTSijd2vJth/wDXbfKee62iszE3H52r18uJEfVSepkK2U0//xPj7rlOgXUvx1/1WYAgxHqeC0FGdw4vnhrkGf+a94D3QFIeWAO8eHiTbiT1ROXSaoPHA79mWAz5ACrZUNZP0ibvuMfAZ0caU0kOMIZjEZ0iVUj0CwB19ne/sVY7iwJDnZi1mtn9hinoT0j1Hf0v9tvOiF4U9u1x537/m+Y9F7AQaLcP3gd05W++zY47IcX5dSslIMCT2rRF0af7jYuJqn0StlgqCZw/ay2U0AEcZMqRymu4Z62MlLfv09jKO/517wHvgSQ8sAZ4cdBxCanC8wkCXqQaW7XiSGLAK4/RUERl/rWXuouCrNxRJ38zuSkqOP2w5AYuDa7c62R3I7Gtzhml+ouUoqPp+DyRp2NHOx56Y6EgyYe9AsofSsX+Comw7nC5q5WC3Eb7mc0mAVH79lvddyLOK1VZOvKuUoznrGoyKPoaZQAQv6fEXYPLxYJilHlcUc6XbSbvvNeKDpDVsA4FUT/Y43bzL79g3w1SjoOyOvdPizQjY0oLmGY2yvd2UBfBH9d7wHsg1APBwEvaRSnpGQUafBuiXp+dcBnxYwZpxUNvKwJzzKHbk5gpIjjzxA/O61UFui+xoSR5IHhQ6YsvbnJ5dN1RsC++vd8kJCKPY7FhUh+1byoCVJDkP3ULREjUGmhcUSkiXKSISC9SwEHLn46J8xoMES3uTfhOuRu2m16ZtTYSx2sjWGpmRtGn+y3yg65dUkZxCyr6LExIxQ/Cat98LS7gycBDU83I2EZJ9iXwRPyL3gPeAyPtgUDkQPQB0nErQyGbireBAS/An0rG5197pbuqtlYn1u51gS5EPSfvuc+q4tptvu7eF3Ch2TUVremtW60CEjkB0oGU8EcGSbp+pKfq/LgOqibbOJRoFtEWeGlE6KhaTKnaL6ryfZvdj87bFH4oPVz59Ji1TkpK0R79rIK4eHxHctM3Ju4vJEWI0tu9GHB07tlUgLxJwKb+Je8B7wHvgb55IBh4abIi/UMFEBISq61+TsBLcgFUhQ3C6MO2IM5Q5fjHiYqlIuo5/ejj8s1lA6/eGoTfl44JDzB90SUCYRJfFdDJXLLNFZUWrEjB3u4XAatETYUgjIHUJREXfo9CF4F++mhcUa/cjbvUV/MTq0zt57FW7rvZx/EGq2BtJUuzcvs4/4bTZvSIFvcfVZ90R/DmPeA94D0wSA8EAi8iBCmBLlqBBJXt1wXGKpIKaBSLTX2mBM9gsVaVKvVJN/fiH6V4XkrsyLRRop3N1P0Pb2jQtdLhkKgzl1/Z/JH+V+mIKhiPqQ2QxHctTbhy4z79zWSaufJql5cIKg21kcPw1vQAFbcT6g5Qla4X9IAkrCFye0kpx8xll1kD9SSjjXQxCOOfIpOS0f3izXvAe8B7YJAeCAZeGpEJTKoVThDwsj59epDD0aGnXmIPV8kLmLTAgf1S1k+mYssujoAoxQbTDzyiVjaD4a4M8iaJcmxrFSRNM1TvF/a+aU2bu1WTb3s8XQ+q54hq0app8v4H7e9RU5xve549bkBaOL/rJlskLYQ0Je/xMGs+XlalceaD95sFDS3EmNd8qMcX4AZaxKtFReOYWmTRBsqLp/boaP9x7wHvgZ490JJtPK6HNqvlVpo8RL0gty+2COv3PLKAHfBwhVs298qLAe/27yUm+ZyiXXCHvLX2ABEwANiWP/1zt+knvxAZf1v8oJxorPS44Nld8j/8j27Tz35pfSE96Aq+LmlFrfkeJynxgNiupRzF/4uq+RY8+uivInGDnlirKk6qWsOEoaMfyW/pPeA94D3QmwdaAy9pOBHlMZ6GJrvV1igULbqR1IOV45PCKijalRRZeOmcc9tvtD54VN95a+8BgNH0I4+7i//Vf2/p6jgjohC3Z3/8c7f1L/+qqUAecG+2H+HG2QItNsRwpx5+LNGTJr1ZeOeAyYEkceCSQB7yGa0MLuJ66jDR6jz9694D3gPD74G1iGrFmAEa+V0SnFQkY43Va/agAwwhA9Bva2gVXfr4A0kY7EtsFc05QcaFpLweFer7ds2k+8U9k736GnfRX/3r5oSn13o1qhRnnvyhm35QPDvuyRj22euYRuHziCHTx9EWDgn5jGcCLbyKB99OxEWV40ddQ1WNrSyLjpsn1rdyj3/de8B7IEEPhAIvVsuTd98b3MtOfCvC+kX1zbM+fn0edEmckeLbb5m+U58PdcHuSZ2RYlwP/fwuOLF+/wP4kvZX5qprrAk1rVp6MlVS5nferGtxp1Xb9rSvDfZhQCpFB7NP/0TgK5/M2ev5QIXhghpom4J+vygJHEeRLlKNVDsHWX7XzSZxMe4j1kHu8a95D3gPJOyBUODFAxsBSkQH3bh6N64yKgyLhw/1vbqQByupBOQKkjQaO0+o1UxG1VDeuvAA4Ev3EBMfPLlejHuQdBFaTN469ICuA9IwCMpaVZ9AbBLGwqyilOPCvt1usct2T23HKeBFQQfVlK105HLSNKPQwEdI23rTb+A94D2QgAdCgZfJSjDhSSogcLWoVWz180+taXan/fs6OTcaYNOPETXzpAz1c9rNZNXU2dJaSR14nR1nTJM+/QOt6XoP50Y1GgUfcfLFehjOyH2U4gPkFCbUrBw9uqQMMdOC6AFIwPSDkrDYqFuRD8U+awzgr2pGWzz2GnFds3P/gveA94D3QHceCAde5/c5ccttagES8LDWahMwVD76satLtbofRrSrKJJu9cvP+7H7lvsEcE1IjNOXn7d0UfQ3NDn2arQU8q1eevSigMjUAw83Cx4SinohPVOjKEZRr1aK8l2fle6r+tmz9vyhE8IaE9jMatGYlc5bYinWNYPwL3gPeA94D1zogfbASw/ridvvFDFVKZ4WFWRliK1qIxR3hSPpiYU9UqiXLtBipXLhyPv1H6tkcZNmHnvSqjq9TEFvjl4UOK+TBuqxAAMATsPsuO+x3s5u9D5NpXJOqd90QvpaeIhIFxIwcUe9GqWyxFrfafZq1X222sb1PaZnpQddqz3j//ce8B4YpAfaAy+NjjJsqvqM6xUwWvS8aEwbayqBCfu7b1xh/97QMvGA4fT0Eu1wsjfc2OQliRfjrUcPCDyjZN5rI3MUyU2nKSkA3uNpD/PHZx5/Sl0YbkiO80RkXOB74XX1Vj0V3MC6G39R6Vw8fDAY1FuacULFQfc0qzm7OYD/jPeA94D3QB88EAl4cdxJVfYhxtjKyp8ca/ZJa7VBh68jlnruj88299kvYm7AmMZEAt/653/p6HXnrTcPmOCt2rgUDh2MhZ9XUTuiwE4KvQ1zw32aBRT0gaQlUgoH3nIV9VOMY4HGvVU79VWzqlp/rzYWi1P3PSiqwEVKUa8tDFq9vf/fe8B7wHsgKQ9EBl5ZtQ+yiqgWD7GSVp5VTbJxGGlFgFwRsdSFhTh2GWkf8NgmRagnHeP5RJFcFrpRfW5O4PmfmqArIBUU+uGAN0lplz58zzHpeuvBA9AH1Ncyt2OXc0lxvTRcrlvhrT2ucuzjHgbf/GhdrYEK0ghrdS8gX0I17VgLekTPA/A78B7wHvAe6NIDkYHXuKqDstffYKAk6FjV06dd+cRxpQe/DXq7o9fgBM0990+u9p0a+/ZL/2f1iPSApuHy9CNPqIoxm1waZvU41sn/FF1Ujn1kHBwnsd04rKHKNQo5Sh++H8fuNvQ+Ups2ufxNN0sceGdifgAkld5/zxZVrTS3ogwG7mdVGmGWZgz4wNjEhDVOp6m9l5AIcJB/yXvAe2CgHogMvBhlXg9ptK0CTZpelePHXPnTTwLfjvoiURI0u4pHDgt09V4NF/W4gC6iXait+4d1VK+12A6ZEckHLOx50zXm5+IjxGu/lc9ONCOh4vd468EDWmjk1EqIlGNirbB0/SjCQR6ml6hXQ8+Iqnq2wvsLMtqc5cTTTFI2I2gc/jXvAe8B74EgD3QEvNLbLrOHtfVvDNhbRanGilKEjaDS7oDtV79kK1nJRlDJaGr4MaSnVh8j6H+qnnJKpVpblQRTL0FjWQ+vEbFEd634nsBzBENfKnPV1eLVtdfpson7o/dt8o6wa79JiAfoqcliKrc9uagXwyFqWTysasQuaQTVr760yJkL4n6m0iaXkd+pNKo37wHvAe+BIfRAR8DLKv6kb5WHGxJgTIqVE580W4QEvN/upbp6rTFhlz/+sN2msb5P0QB8EACAt948AHiuKOpJpetisU1UigpSRV1oqD37g2esPRWRx3YRR1rRzEuewColEwLnvXlleD9NN4Cphx6R0OhEYoMkCloWz6t8tPPvuanhK9rV6hmR3rLF5bfvcFm1qvLmPeA94D0wjB7oCHhxAvR8y2k12ap3IY1xkQ/olJvFhM3DuKB+jK0Is/1wIKr0E7tucvRk9Na7BwDPRaWKSSeFmoo0aMV08X/3b9zsj3/upqWbtuXP/sJ+W+Qr5MOIZQLuOAZtq7x174HxySmLYue239hSp6/7vbf+JNp882+8Jn2+cuuNAt6h7yOfDZQnUdFAfqe+y+rn6c17wHvAe2BYPdAx8BrXyjh3jbghLR5utTPfGXm2PifRzA6MKIZxP5SqTNJyN+4SyfhW1yp9muRY1sOxaA9TPLi/7amkL9nmNv3sTwTkr1gu9wcEIAGAzlQ7o1PC2d/+gybgAMXydh/271/ggbTaMc3+6KeJAi8AV/ULSY2oMrETKxEp00+Qcf9kxNFkcejNe8B7wHtgWD3QMfDiRNLbtlnPt8CTkko1shLzr74c+HarFwv7mbA7ewi32lfU16lenLzzLiPiRv2M3661B0gzlz/8oK3gLRpp+R03yfd3r9kZiup5Eb5bAfvlD9Sr1kaqsH+PFO1F4PfWtQeIXlNUQhNtdOySMhZbcy/+sckJjZAypmADUj5CukGWv/lWi94Fvedf8x7wHvAeGBYPdAW8iHrRA83SEwrvrzaiXsV3DkZu8VISCbv0wZFma5nVO+vj/3Bb0DIaV/m5t948gPZaYe9uRSOOukDS84rdZ6642k3d/2BwKxelILOKWEw98FDLdLbtatFZSnpB6SomcFLV3rr0gL7DRItmnnzawZFq1Rqsy723/BiUgprAFNpeUVqCIR9hVdMB1xrKAM2w0eDz5j3gPeA9MMwe6Ap48WBOX3SRm3r4cfUTClCF1oOxhsDh3jc1OYb3WOThWziglkMizLabsGNzpCaaFPIRd0os9RIR6gPAY2zH2iA7KqkoAn2t+rkzoWdMipHm4y1lSfTpcUVdeJ+Ch8D7a+kIipIgL4H8SP1M+HGXPuJ/B3sAdXdSdHldm1RSXRt0/eqqbCTqVVN7sDDwTJSrzP31bXC0C4FnCPXcO968B7wHvAeG2QPdAS+dEQ+4ifOhfVabqw0Bzfk3X9NErMbG0u9pZcbrkiI5nJ3ETMBxSs1zkTBITMMosZNL+ECaPOmZt7D7dWl3fRkOnlPSjpK+EoUMoVFGgLFSjtOPPuHGp9Qvc6z1bQpXiH6elc8+8UT7Hi89VctT9z+kqNEVySnao/9HlwpFyBHIbWWmeH/iU0dV4xoTaJy8426TkUgqWrdmDP4F7wHvAe+BiB5oPaO124HAi/VDEy+ENMUFpskYHS6rcFQkpBEkK7DYMG7O/KsvSYVaQoj6TCKmySUj+QgmmMRW9omc2GAOQlVh6d13XEmCt4024JkJHcHOzJVXtR0swAzOzgRtX/K50O2ZuAHwrbg/oR/2b17gAYAxUS+4domZvvsG3OnjqAj4BaZFG6nkBaWxiaKvMYH0zOWqtN6x055Ha973L3gPeA94DwyZB7oHXjoRIl2Td92ttN3Fa1fIpO/0A7CqCVitTiMsVqquKNkJUlSNNlGxOH2WUgSFtkCAr7H02khdnMda9/vSpFg/e9ad/affKmXUOlqBHyBwI1CbU7k/kZUoRvHDzFPiHV2k+0tAP8xIN5Y/+nDtxB32If9eoAdIwQPAkuzjiERE8cg7ShmrTdgKayjChaCygWoV7qy2pShdeutFbe+R1Z/1/3sPeA94DwzCA+GzWbsRkRKa3eym7r5PpNytF25tUa+SK3/wnojz71urkOUN9F5dIopzv/+tGign1wSbiQSO0fTjT4YTt5cH6v8I8wBaSvC60NRyqyMVqz6YEf8mp0pGmyBXvdfqX3hH9BJE8oMG5mFWO/WVgXhLd4Zt6N9r6wEikvjdxGzbbh3fBoXdb+heOr5MTWCxRu9XKqQDnxMC41TITt17v28PFN9l8HvyHvAe6LMHegNe5weXk1J0mOjlgkj21ZPi/5y3uhTujZdz8gvnAlaxS9vF/RvBzuknnnJUZXpCfe/erZ0+7c7+5r8uT5Rhe5yRQCrVit0Yul6ZS8Or1UhRQb4uKu3prXcPIETKT5JW+/Ybu36Vz0/YYemEsbBbVasi3gcV3pCOnrzr3iYobxMRTfI8/LG8B7wHvAfCPBAL8KKaKHfd9S3BF7peREZIF7CKrZ486eZeeC7wYRo22F7eoxggd90NRsLtZT/+s00PWBPsvUoBabIM5edBfFZElFL/8cnuKs4yl12m63aXS7eRCmAscM1KirJ6680DVn166x0mt9Lbnjr4tCLhljKWFhwRror6ts4rChYEutgr3NLphx/z0esOXOw39R7wHhi8B2IBXvB3ADXGxQk4JyQligf2m+J0TVGuhT2vJ06EpoJxgtWxLzcPuEKdvUQlIYT2gq5pq0nR9qhUNNHFaUWseuHgwMVDVDV3zbXh8hKAeoF8xHij6EJ1dtYba2vryyp/U4EaVLXcL2+gAVhSE3SuYenwIUs1BgH78Sm1OhKYp2BjzEe7+nU5/H69B7wH+uCBWIAX44ITQvsXJ8mAIKsKcAG+5l9/VaXjByKlp4L2081rcFWopjPB12524D9zgQcq6sdJSo9qszAjIjH1oERqFQ0dy4ZXJobth/dIE8P1apdyhDtIA2WKNoIm7HbH8e9/7wGqliHZZ6+/4fsX+/2XqAfl48esKMfaCbWQoknNbJLO2y3NaJcAvjfvAe8B74FR8UAwSupi9ES7slde41KbgsvQ4eCgTr8gler6twFl4V0cM9JHtBpGnZ6Ve6oNQTvS/jb4RqSA4FJRNBEa7VLFa+byy9V38clmlLHHydGiqgL3eRq0Z7KtrwLivcgPqBLOol5KX3nrzgNEvVCCn7z7/qbeXY/XMOooINSXpe2Hqn2gKX2dkoAziz1v3gPeA94Do+aB2IAXJ55VaiJMkRx18XqLPmv9chzRLhTQM1de3a9DbKj9Eo0oHnm3baqYaEn+Zml2qbVUOymIqA5EAoQoh0VWQz4EOKQNVeUzCW4mWLwRMqSRfSs1M9sUSr5hR3iaN84zJMolAN3KWEBl9X3mfvDmPeA94D0wah6IJqgU8axotEtayVKJwzDhacXeJHbfGFk7KuKpbsjNkI8ovLVXellK44UYnCAqGPF9nEYEJqe0F3pgpDtbSlgoyoWYKwUcm3/1z5v8soSiNXGe71DsSxFj+HmzT//YUW1IpeGgU7hp0s6qpPbmPeA9MOQe0LN4kYWU8IBpeTaaC6rFekOv6+8WGQme9cvcTZ7deg6NpZpwhffiWswPynuxAi+I66Qm4OFUz5eED+rEOG7mYvUFvO0OvzKO5SIsNptgH5VIabkUukeUxCfVkil7ZXuF+tAdBbyZkl4cIqxU0laOfRywRfMl0oyooVtBhbhmoS2KWu7Fv4EHaKuVv+lmu57ljz9SCjegbU9SrtJD2Ph+229M6oj+ON4D3gNRPQCQMjAlwAXoklB6/ewZtZM7qQr4002xdO2LIhpeD2wBpvczl1+hzjKzzaMKaJFBWSrey6pQbrlbjp4HxvAEnC39RB3rALeLFXhxHky69HAcBuA1/eQPPOiK5eaS4K0U6gtv73O1r9XeKcyISmlSnJD8Q7+M9PH0w4+6b0OA19Kx5158TkKgF7vctdcvveR/d+EBVpuzz/zUffvtX4t79b0mXxe76ukjPF9oiO35mj250X/YeyB2D5jgscAU/Eyq3stHPzZqUQNxbVEHLPKlVoFmRMEAZgbS1g6lcuKTFVqbAlfjAlbjKdsQYW04v6lNm1xq68UG0HjGZ6++1gI/KVoYapthttiBl5HslQ4i3bSm71pSntDkP3nbnQYA2ymeJzWkkT5OY9HNv/aypffaXVMT3qSQgZu/T8ZqB64XqUyaKyNX0soq4qRRDJBW0Udq8+ZWm/nX23mAIhWl9yYU+VpQyrlx7my7T/Tl/fQll7iMuk94AeS+uNfv1HugIw80SiVrCUgkvHj4oFp+nXEN9WmmPzP9mm2+aAGuwg60mpu7pkRK0S2iZuPSBAWEYUgXGSATBxQgRtQMuRk0CZeiZWHHTPK92IEXgIuIRFa6Xkx4iZsuSEoaP9NP/EDclIuVFx5u5Ju4fzo8IF8A2vDQaaBOT82QLxEgl2hnThGJfubguaa0qJqSeGbpw/dCgRdpUXhp1qDbA68Or/6Fm/Ngm7zvQXG9PnPlQQAvLahsVesLZS68MP4/74GEPdAo0C5O7QDff0+C6F+Y3l7t669Dn8WxDpF5SJG0huYnV1A0TBG05XIc6T5CLRmfnrbIOAt1xLvhoGe2XaaK6Is1f2wZqKZn7MAL55KbJfIxCOCFgycU7UJ/aAkJx3rBN9jOqBCcf+n5ZsunmkLGIZbfdZOiIjsTSQONZTOW0uQ+Kx457Ba1wmpllROfmrYXPQjX9BRt9SH/eqAHstdeZ1XCdAmo6ydJA/hB9E+pP6M37wHvgYQ9ILBD03oqxqlurxz9qFlwo0KmgRkAbHUwQPNUY46fc06wbNnKRy9rPj/gi/Ec0Q/zAdXRRMWSjKL3BXgR9Qrr3bjsibj/oALrIvF/Hn3CjYsQnKQj4z6VYdgfIePKsaPSxHqzrRI8Ny5989DuSsTGxhXZnLaWMbSgqpZU5bj6C3h+IJDBS+8fkQzFlS6lisjlaplEBrq+DjKey9vChlVuQaF+VpqJGsfjR991b94D3gPJeIBipdrpU9LiVFcJaXHC42pFjE9mRJ0fBV3AJW1AtCDHZ2eNtmBRdM0NgDBeg5Zi7e36+IzpC/DigtS+CVc179xt7T8B4TZ34w7jorTf2m8R6gFNbrVTX7n5N151jYU2KxrdoJMCNEQZl6tNQnce05tKK+dvusUkJurnxC0IWXmVRfbMKDLGGIct3x+TNxLbjcnGSNerrOKGJMWQG+pKAK8D/ggtg7x5D3gP9NkDWszW9VytShOxcOAt6yjBEdtxffs8qp53Dy8YTVF+6A+L0aGDavmsCrGyKuJJbd6k+Wy6CcJ6PuKFO4gfeGnCrov/Uf1UVQlJmng/OGz6saeSPGr8x5L/rPqDKpClChA7iio70uKrCeSMKdrT72ieKdQjlirCZKhpPKlNm93U/Q9a+DZ02z68SSuiGfH5rMffu4f1RGgRgREXAKBA26qZp55OJmKih5Zdy4bYB1zX8xE5u36spriW/KYMeoSMiDbyEnD/5l9+oWWksR+nRFUtK+/s1PX92L3fp/eA98CSBwBdc3NWzT7/yguqVDy+9M66/E12hx+nZ5oJr4uvPMHCXq3qxjLSFdNcYxpiMTyvYwdegK6SSPUlWsokaGj75G+51YQ7EzxsvIfSjV5TOW5dq3p4SQ3I7EumC08j8tTWrS69eUt425ylz/TwuyzgTEi5nY0p9TT7k583QRcgYgAG4M5dc52raMwm8NliDNUvlR5Tn9DJe+83sNhis9heJjxfVfsiIoe1M9+6xYWCwJYahxPONoLnVq2qFN7O52M7ZlI7Qjk+v/Nma2Yd5vO4xwN4LqlMnWvuzXvAe6B/HuD5hQj1/KsvmuZW/440fHum7dz8Ky+qt/QrRtSHSzz9yBPnszqTPQ84duAFYCgoqtCKb9PziIN2gHaUHDOJdlQMaDToEP16DaBaFkmxePiQqyhvbmW4RLsgskvdd9l0XkQaqOiDP0fKbOJWNf4WGBsX1ylOgzgNcKbZdFhImTw5IqlT9z00WIFS+WbizntcVQCnsG93a1cI2FZVkXfuD793W/78L1tv1+U7pNgrAnclRQlL8h09ByGjmoYNLXAU9TK1PyJdKX319Dulyhu0qUyGQ62tWGmNhMnndBGYefwpd/a3f5/YkGtKDdA5obJjp6UFEjuwP5D3wAbyAM8yvtcLe3dbBivR+XxY/EyGQpkSKCzFdw5pPvzIFuxE+yc138AN67aAL1bgRUSh+O47Nrkl6bvctaq0EvBC1XxUrHryS1c89LYBHCYTAFhjYaE5Obc7CUXELDetpuPkoifuvNtAJ6HQOIwG2CUBQVY8YZZS5G1aEy/yHcqZhW3a9/doUZS7YbuBWABPK6ur0gWifeWLz1xWGi9xkLRRYC599KErvSvw/NmJ5rXUl9X0xfjyhhjRzdppgQmFuGnsjQzL1AMPG+kToD3MxvWnDyqN72u6nxMxAVgWKoX9+zzwSsTh/iAbygN6XvHcN9DF9/o7VS6zYNzIhk8kS1TnR/OHPe/fO+JoXTapzjgTd9/rxpl7Owj6pP6tLA6fovdU2L/HJo+GJqKkbExpmmnpOU3edU+yxO5uTlAXEP2Thb1vuoU3X1Vk8G2lx447/GUgp80kvXxIfRFYkSBiaWX9mrghOY+rzJ62Tb1olwGeabVD9UpYo+JxleRO3H6Hm3nsSROuWx7bgP6w3l4CKnDTSDm2NL5E0n8BFJEqs5x9y43D3yAqWf74Y13L11xBoKks8FX7+qumtAURrihm46lYAUNNgBEOE6Cc64ssC9dzWA1+moFD/V4iqCYxVr4r8OSItsIv9OY94D0Qjwd47szreTb/6ksqkDsdOgfEc8QR2wvPa4nGAr4oICQlWdOcSRYK0fCoc29swKsqiX8mIFajSYYlJ2653U0/9KhJBQzzJbR2Ct99JwX4l9yC8sbw4Ez9u9fVhAAvNwGAiYgZE3bgW2UAAEAASURBVDXpq26iJYv1mlt4QyDi4H4Dgy39qYk2e811Al1PmShdy+0SfoOKSvxszZxDKjGb1+JbkSalOaYvTNQvy8rTsYXG2/tdQQC6KH/h/zAF/ZWfbfm3famLFj1ipQnA4HoiTDusEhjcZ/jQ2oPg817v55bOWfEGftJ9T9qWSPew+mbFiP2f3gND74GGOlKUJYp69tl/bLaGi7p4HPoz69MA5R9a6VVU8Yn0EkEgm3vPK+mHHTUW4EXbAFrKkJ6ydFnYEWN8j9Uu/ePoDQjfaFiNVUT1y8/dgvhH5579naJTMa8kmIg0SVch5FukZKYJKDpMVREpmn/pORH7FTHSPlsZDUsnbr9TlYwPdQXwWu2319cBUHCn8AUk7JbnYBN31ehW5OlNsyVqmJjPKlpWUqj5nB5QcOH6cc9TWAGYcwLDFFMAbjoJZffqy6ifB/SM6z4jckhFUFINtLnG+J0uCdyPHnxFvWJ+O++BtR6wDiWiX5z7w+8Evj5IZgG1dhij+YoWm3CHEfGmLR06YO0yKbEQc0iXQQ630GRSrtMDn8nfyOWKdAytCRWTOqI65Ow//BddHFW2hYCaXs+jqNY+hInpUWgE/Sg7BEwQYqZk+PPPNdmH5PSJdomHNKF+jAZYouw/wW0gp0+K82Yk9TAwpesCp8pWKzr3qNYEdUfdd3/3H11Z2mD83y9Dtwrx2rkX1Tng1MmhfRjCLZx84CFrUNtNpLUr/+lhh4TI3It/tPR9P79TXY3Pf8h7YIQ8QNYEfnbx0IERGvVwDRXf8byufKE5tM0c3zPwIm0zp7JLKsoSM1bZqJY//qTJKyR23C4OVFMoEi0sJvmkzG4AVaNUpdQbxbiGVOGVJDDaThqAyAv9GCFVD6MR9UqrBYRpdenvMAM0Fd5+y3hZ7b4oth9WNtKu+vav/+9mAQnprj4b4rWFt3a7s7/5e1cXf20oTQAXRXv6OCZZ4MIKE74k1yTyImMoHegH5T0wOA/w/IcqsKAFu7fePEBVfUHPJNK2YdYT8CI8WZbqKz2bLJITdqQY30P3aEZtgTKXXKqQXibGPce7K0jchb1vWPi2n5GR1aPmuExIRL6ipH4Y27nf/bpZNrx6Z6v+n1R6MX/LbateHa5/6WAweff9StGpyrUN+MJP8BIbqlhpZywuSKnbIqPNiqbdvjp5H4kRpD3mX9GDMcHjdjJGtp1+5DHj/o3RrispY+H3/B+kfZdcQU9Sp+aP4z2QhAesSpgKxoR7ryZxboM4Bvzthd3hgZbugZdW/0ggfPf3/9kEPxObEMQloYxz5ofPDHXFFxccuQjCt0mCrqUbjfJXZCEW3nx96aXA31QB0goC/bUwzS4+bClGtKYk/jnUpggMJMdNf/Ir/W7TUFmLByKEpGbDzPx5XKtChZITIZCvHIzAFmk1K16RevSwRndYBNHBgJZCiZmeQ3BLidj2g2uX2Hn4A3kPDMADPPNZ1AEWEpvDB3CeSR3SuHLic+PPuqgiraxr4MWEXTz4tqsqn9luwm518G5eZ9KffvwHzTJypRyH1eC7mSgqE6VW5YmbJmsiM0VpS7XstQhPRlIUcy8+Z1UZYV88uDtT6sfIpNqOOJj4uQYckPFO3HaHyzBepcHCjDA7JHk0tVoZaduyJDbgXQ3EdA/VVJSBinSj2D46N5Ax6qB5VYrmtu+w8uqkxkBYv6AVJilHb94D3gPRPVART9WEu0OqwKPvzW/JHEqghap0sFEr6wq5GKoj7fL6y72X0LcaWcDrlGsy8U+KVD/sRvjWiNvwcgRwBmFWTSliv61mAgZAaLnw9j6LdoWOUREkJtPczl1qd7MpYE9D+JJFvWYMLKbVZinMAKboUJWkiB5kfJEQOEV4dZDGOIjOVU9KukJ/D6PBvczf3OyokOT4ysc+aq4yQ8BzkuPxx/IeGAUPWIcSdA8HNEeNgo+6GSNSUSat1eLDXQEvlMELinZZeiZBzknm0svdxB13D71oopHVNUkTTRq0wX0piGgPWF5pzdTZUbXYUT/GVe+t3A4JA7SkEKk1Tl0bztQFnx2Cf4h60V6pXVulisqBKS4IqswlzQeIRixvoKaHo/VC1b1VH+IVak59FPM336LCl4sScxfCxIBSALI1Jk/syP5A3gOj6QGeZ1Rmh3X6GM0zG/yo65ID4lnUyjoGXpC1y+opCHM/SbOVtCIuoxDtqiuSROuYgaWlVlwYUsJEcviSrUx5kjor0d5J0ZMwoxcVkS6kO8anhli2o8VJmOaYuhqgch6mg7UoATzuazh5q1d/hIxrEStEWwwjnpcFgqna5Lq1qz6N54Dd7QWZkfz2nc3K1wTpANZAWwKQlMZ78x7wHgj3AJkQW0z6aFe4o7p4l2wTbf1aiWp3BrzgDZG6OvJuU9m2iwF19RE9vFEZn7hNk/8wa3adP7mmqKZUvIfELEUlAvJSesoEQD/8QI0/D4aPUH6HU7fpZ39iqrzhGw/vuxM33eqyRL3atN+pwYmTCn1t5cSte954EIqIDdzO8wcQuGVFtRogDnx8KwaQvlzRaaJeamOVmClya3w9UsJ+MknM7f5AI+gBnmuK4jfmBsRZHUGXdTpkOsHU1K0myDoCXjZhC3TBC0rSLNqlajpSRqNgTIxIAAyLWU/Box8uV8Mt8ZXaRQZSs9LsIlUnwVQU4UfViNrld+xy2etvCD0FgCkKxGixLBUaNPQaPRSHIXq5NHjGiUifga+lF4fsN7petJWauPOeREdWUceC4oH91sw20QP7g3kPjJAHaHFTpvJu5SJzhMY/CkMlw9QqjdsR8CopSlL64Ig1Ik7yxKfuvd9NCHglpord08mp9F/crlYhxp523eWHLeJ18IBFvPgb0VCicqGmlFbm8ivd9KNPhm42Km8i+DpJxFTk7zAj2oUGC7wuoiY0QB3GtF793JlmJWrYyQz4vfRFl7ipe+5vcjKVJk3KUPmH7+XNe8B7YK0HAARF8VnhRXobjAciAy80ctClMqa+wpRJGSrk+ZtukRr5paEcnaTG0/Y4ck3t9KnltF7b7ZPYwFJUZQOEVKKy0oHTFGYZaaWR2rXWO2Ebjsh7gHYqMynOCDWlqyDYI09AD9LqN1+LyD58ivF8HwHRw2z4HPA+8+QPE5UgIWW8IEFIa90xzA7yY/MeGIQHNB/URBka9ufHIFwT5zHh49JPOsgiA6+CegAS8UoaJU89+IjLqkpqmJtgr3as3dBDyDEhyoUAqPX9CwHPpObwOf0YR0Gza7X/W/2fEYifuPU2l2ojAIsuFAAVDgSNw4cpzbh8bmjDLQ5GpmR5DO3+oCJWQraT99zn0gJgSUWs+f6tThm3G6p/33tgw3hAzw0KUaJ069gwPon7RMWPRj8yvWVL4J4jEXfguBQU7ap9fSpwJ315EUK9ODmkh1qhxr4cdx3vtCiF+irROEVywix71TVu4pbbrENA2Haj9t6SDhyAcv6l51sPX6CmqhTj3MvPu4ZI7ES+vHXnAYB7+uJtBr7mnv/OLap3aRKG3Abpxonb73LZq64a6tZiSfjDH8N7wDxg2Q8tTPR8G1jES5Gg9CXbVLh1iUtNTapwa0JFOLNrLhCyMGRm4EvzN3wpZJGQ1EEnK0nh9jWDa/MCbQ0z27a1FO9uD7x0oYriBFU/O+HQfkrEWCmrehF+UfqSS6yEPpHjrvODQPpvZ2Oq/CO1m99x07r0e0r9GyclL4EYqi0kQiKTxf37rBIySr/Ldn7dyO8TcofrRV/XMg/RJFKkaoWCkv2CIpfpX/6ZHuzD29N1I98b/tyT9QD8LnislrkKefb1ZVRUyQtwZa++VoVy2132iquswwUyRekta0WuGStySI35eZNC4nnNs4MOHvCoKQygLQ+VmXBeE3muRHTMuFrVcZ6tLBR4GStfJOP5V160yq5WO4n79bFszqJdJh/RRgIg7mPHsj+t8k0zKiSdF8tx+rCT3HXXu5wqAFNt1N77cOhEdslKhGq7qQceduee/V0o140VVb2aTIQmkZMf1EH0wCXNO6kKR6LnSWmi8SBe2LfHrjXXPalU56Dc7I/rPdDOAyZxINCSNE0B+krmsiv0XXzITd73oEvDfdJzIcyMI6VI2FI0LHvV1cubW+RLzxI0FtHMbArBfiMgNm9gzUBY0sByaXQKHDHm7DVdAi/Q5twfn1V6SordcEqSMA2aFi+zP/qp8UPCRC+TGE7HxzjvdERUhzkUGnRefDng1I2KbEfQOUR5jWgqzZwRAa6eEkE9qXs7yuCibqMokhsLf3BF3VVS203e94B4ou9ptZrQ80QPXipS5199yc2qmjVz2eVJnao/jvfAcHpA34lFVTMuJhkUYOEl0LXln/8Ll995UyxFckZhIF2pn4k7VTCl86p+JR3GwwfU/u2IRbvBL4vVWlNhIEEQxjxKUWDuuu0t74GWES+LdimUN/+a+jEmlWLUMAk7InZJ+f/Iga7zbjZOWlqpDUVMRsmIAhHxIjqwno2VVHrrxQYy5154LrQ59rD6Ia12PCjEj5KhCzd59/3y95nQPmZxnxMVjpN33WsVuuupWCRuP/n9rX8PAESsW0mCQARwRKQrLtAVeJUM3F2myPqlbuapH1nUi2hY8cg7riDKSFJRdsaWufJq40iP5XKBQ+XFlsCL/Cl9/KjwWhKTbLmXGN+gH+MM2lGKHI2q0cibqpE6vhsFOx+lm7z3AVOqH4Uh9zpGJuCpBx6x1RFNskctOpm+SMBLi5TRsjHjD5Yl5lv+9Hh4j9A4T0yTzPwbr5i/kBTx5j2wcT2w2Ix2LSbnAYtKIePT7zmd/etnTCAsJY7VuAI4gCD6DFe/+ELt4A65Mu3zaOXTJ57p2MSE2qXtUODollAHBwIvI+CJyFbQSjFJ0GUX6NY7VIX0fS43dPRD+mZOfeoW1JiadOMoGFId04//wMiOoyTb0ZNvAZubNyvq9bCpnFc/P9HT7pL8cGrzFovYoQ4/apaSvMTEHXcZORZdwCQMUE0xBSvujJ4to+i3JPzkj+E9ELcHxuE6iUTPQjFRE/gi5ZfiR8+c1KYtLnPFla7x0KP27CmfOC4Q9qGKBj+1SslYxqbF/ORd96mCW6LROmaYBQIveBH0p6smKR+h9A+taXgoh4Xowk5mWN6jIXNak7qFdFX+OszWFLm83E2Jf4PmUt9XJUPkDFKOyGZYhaN4R0mm1HtxA2l4wFc7cmovx+jbZ/VAzF17g6vedLOlG4k29t0U8aIkvaQHLVIp9H315j3gPdB/D0Ayp9/vGNSbQZkW2eOKRPHj3OVafF3jstdJp1LV+9WvTkrz73NFwb5WluqoImHl7kZJBkVFA9MPP+qY/9s9mwOBF6G40tGPEiUdo5BOGiBzxRXdnfgQfYoUUO767dZQ3IjEQzS21UOh7HVKq4C0lOo3Iv8FAGNfQOnasNgYetMXnP6Z8KVG1ez7IeJpbsdOk6pJ6jzoulGWMHBW301AtzfvAe+B/noAvvCwUSJsTCq0odgmv0uaZgJfSFRkP1YETH+jF1b7Vv15FYBqa6Q1Zze5/M23uunHnnQ5SUhECRytBV5aHda++UaT0PG2x4xzAyrpcttvHOlmzCv9kZdIJyWulM8Pa9UcwnUo1EOq38gTUQ7dMqUaa19/1dS3WXkhh+lvga6sFOC5ZuO6dqNsmcuvMHmJ8gfvGxG27+eiytW6FpTVL2kufjZQN6jvY/AH8B7YaB7QAmeYF/SkI+Fk8zNxy+1qM/ZZU6LixKf2rKA1m/2U1WJvRSUoETwyRKQws9de66Yfeux8ZG8tpAq65Gu2aiBQ9p30MJLkJzGhXHudol0K0a0Ty4rUR0qlcuKEEPQQcr0kRQDin1a1CUTEjWyI90GGRA+mpOaxQ2mEy01U+PFmtEsrrVE2VsEIDGbVnaJ0+FBip0K7rMrxox54JeZxf6Ch8gDPEYENl1TtmgI5cMZHwaDd5LSo5WfxAS3UtEBDOL7Cohwqis5lyeBwmRCsIveIvHdqa4AXB6OiMUlLQxZWuG6YkXGn/gBJo5BO7nj+jVdNZ6TTffRz+/HJiSanTi2ZvDnxftRA++QXjn6WwxihpOghqyjR1IOPjny0a+l+43s/dfd9yQIvpZTLH34gWYv7lobhf3sPbBgPAC7QmGrHQYrLIaY8HyVlF9cBY9qPSQ5pQc6ifOL2+OfINctmIl1J85JQqnepNRgwJhcObjdUUUzefa+13xncKIKPDMEYEVEAojc9h5S6wydDOSErXE8ofPOf/TdNgqhWrevBCNXD86KHZlJFHaQN4HMslrsk0a4Hx/tz2LAeGFOmg+bNYwk9Q/i+1dXv1tuFHlgDvKyVwIqQ2oWb9+e/utoSmV5Yf3Y/uL0qHYQYLIrdKSHnYbGUxDfzagtkLQ0S+gIOy7m3HIf8QOp1kqraIQOjXKfZHz7TlFlZT9dL5zKWVTNZVuACl4mYeBqNQtFVxffy5j2w4Tyg7xkV90l1vaBZPYLJ3i70wBrgVRM6rZ9Ntj9dQx3IK9LTqJ766sLRrYP/UuKyTIhoP/vjnzdDvEMwccJnyu+8WZNea2XddeD6jk+BqBcgZ5iiXhDppx9+3IRH12OvQb4OSd+HpD8g2XvzHthoHiCFRiX3WA6eVwKRc4pa5s8lnkUb9uu6BnihZQQQStQUYSu9964rSVmWh+K6MoV26T05de/9btNPfuHy0o2KUm7aLx+Q/pxQ6avvWxfgYT2IaMWDqCpE9kQeTAHDsJf0gKRJ/MwPfmQcA2Q/1p0RfVLKz6gNCUbZF2tVq1Rad/70J+Q90M4DesYhIJzaIkFTFbUlYfX5OVfxC50LXL0GeI2JazUIkntVpNeFfXtc4cD+xMn9F3ikH/8IfNG/kQbUsz/8sbhVD5mKbtIrfdI5E2rdQCXZIMFfP1wc1z7hP2SvkbieGq9G8pHSyeMzak8RFzAC/CnlOaX2TTNKL8IRBAyuR6vPz6tp9vumm0OTW2/eA94DCXhAzxjU5McTyng09D2nb6K37z2wBvKauJgpvH6/USJ/KSRZloDZovobEvXK71B7D3E/jG+jG2U9GIAW8cuMlG0Lb7/lyqqgI73amDtrytqd9I/CL/SFwhpzc5GqJlHUnVSFBkrC3lp7AIXj2R/9pNm9QYJ6oVWO8PjUhgY9l9rpU8YfYoVnkVvKqFdov7Q8ou5vridCfHABJwX6SHfyN33H1qM1CgXrmzb/6ovr8fT8OXkPDK8HeGZJvql4+KBzCXSO4HlowIvF1Tp9nnV6sdcCr6lpKc0OKK2hiaqCcNlXf2sikZt+9kvJ76u3mqqfiMQNNPXTqWdDtqdEdVYppMZDj1ibAnSM0JBCwBPNE9MLaWjSbpzvZAru1A1rIqdUpZCnl9I/YpqNUsGamYeCNiZ2lRHP/uinLqPP2H5CxrfR3wIgW2sZteapC9SGKhirJVRqdrObefJp405UPj1mjbdpkm7Nt5XWWqzpWgLCVpuuI9cC0JW5ZJtSinepz9e9tr/1cq+vPmWAKBWFyHbMvficqxw7umYT/4L3gPdA/zxARWP2mutUyZ13AU+l2A+8qEUW7fMg2tNCyJuyvKudQHplfGKwzXcBEWWlIE7pBxn+6ceesqjCeiMXj09MWq9A+gVSTUo/uYpSrouK+NW+/trVz/PdAJ2pTfS8ukTXZtLa+/ClqSlaNvfKi+07rQMkrrvBCNrD1r5h9f03TP9v/ukvXVULgXIbHRqaPae3Xuw2/+rPjc83ede9dhpo4tG5gNUebbhWW0bgOaVrmpEAn/VeXL3BOvyf7/bCvjcFuv6YeHeMdehOf0reA517QIv4nCJe0CqSssVSyb7vNtf5qNda4MXEPLCIV8BdsLDnTSPeI2JGT0Eaaa9LUyQLUMUXgkjX4o4LI16WchpXyT3RK0VJFqtVixoU9u1u646UiOKbf/GrJmG87dZ+gyUPkPqbFCeuLuBVI+XYwgDMtIciipPfedPyVnQEgKSfveyKQPVmizwuRTKXP7V+/1jY/brjp/LpJ7b6Xb9n6s/Me2D4PUD2g8V7Eo3qGwCvT49bT8P1QRzq7fquiXilVe2Qvmh4yLxUWdbUMXxh725rOj1x6x1Kx9w/VGPs7RKs+DSg6nwX93Y3JzcxlaDWC3LFLlb/Oa7QLkTxHIT6hKpYVo9hZP8XKJoQ16p84pNm5V1QupCTU/qM67Gw901bGBgvkdcBVazu5Pd215PN16Ohz8d9CqcRH9Uk0GzipVG4b31yCCt90v3evAc2sgeyV14pXvUHyQAvpRnhlM0+87PkNPuG+OKuAV7WUkDka9oKhK3yEz0nPaTh2UC+B2iUQc47d6kljwjI4n+tWz5MCycj91F89x2rCAvkDi19TpM+aazphx+LVqG39LlOfoswWVOLKeOYJTmZ6tzQSOu37AOLkLwU7auf0zz1s5aeYdVYOa6ol9Lj6LZtdEOxGm2+4pHDrvT+u9LNUgpdq95IxQZ9dh5p+m76q/V5WH733gOJegCNwNTMvkTm+UVxYaunTrnSR++7/HZ1qxgykepEHa+DrQFeDAC+Su767YlckE5OmMm9dvJLiz4wEdZOnzbeUk6il+MqCtgoVj76sXHgUPwPs7Q4RCYfISJlnIYOEr5fimDUv/tOBHKRyBMEXkSSEDylAjG1aZMm0m3SJrvCZDviPFfSgfmbbjHgQNWiAcygA+jc0aNaePM1l7the7OfoiKYG82IZlXEaYOjWfrwPeN1JN37NdTnij4SBU5t9hGvUD/5N9e9ByjO4tlplYb9lnPR83FRAYPC/n1WMJfywGvt/YVuUO6GG5vVctXK2g0G/QromY7hp05aFKIqcnpe401vu8wm4kEPr5/HJ7JSPKC0jSIIoUandfHhppSWjTPFCEm8otRb6QNNrO8dNo4AfLNBGi2QrApRkam8ml1n1EzaImExDQqxWcBX+fhRRbVaV+FxbUrvHzHfQCJdb8UgYe6kGrf29Slx3Y660pF3DXgl3fM1bHxL78G7o4KUqJc374GN7AHUAliw8ruRQD9Fol6l9464OhXg6B5Cw9igFhjxQhASkjd6U2ETzaB9xoRfPPj28kQ39cBDViaLWGmcYGPQ57ny+EUU/gV6GqqYCzMq5nLbdzTbFIVtGPU9UopEdPa8oZ83h6rlCo3di/ohpVW6YYeqYJ8woGRf7qjn12a73HXXK7V9j513WINl9LuQSUAzzYRP1/nDZbFes4c2enQFLQgK+/aoRYh05RKMfra5dBe8zUSDhpE37wHvAWcL1vTF21wlAeCFSHLtqy8taJLesiXWxfGoXcvUv5UFDRrgwqqweOjA0D5El8dNBEwRIDhgRB3g5aDKa8Tm9ZLuIVSrVOu3//7/bXKNwkLDuna0KEIpHx5Uz0YaTY1Ov/tP/8HNK5VWF89uKI2oi9KBVBhSyZlVe6S47gFSmiITKo32Wfj5MwZFBbNXX2P34brlMuj+436EtzH/+ivuu//vr00QlXSCqdAPI/ASCJ6UVtr0I+I8bvBUx1B+f/2gEvcAC0UkcxLlc49LR+zqa00wOvETHpIDtoz10QKF0niiR6MSEqQLOrpWp/7X/9mdffYfmxVUrSrRhuQCRB0GPe3OPf+sVXa2S+1x3ZDfIOoVhyHo+u1f/19G6F+UdMKwGxGwM7/+O1XRHBI4KMc23Myll1q7p7Y7FOjgPqy14eC13c8Qb0CRy7k/PutO/S//kzv3+98Yf2NYo1xLbqRjg6WhNxAfdOnc/W/vgSAPwI/ObNsW9FbfXqMwbKh4n30709Y7bhnxWvrIooQ9K58cd07k6ZEwVuKSoIB8D8GXySAtPaZmxGIkzmDNIMmNw2c783d/6xDlDJvgxjJZU8VHdiOOVT0rItq6kF6kndOoGGT/qrho+Ztvi63ydVy+JQqMrheptbDr0FC6LbPtUks3ric+EWnE+ZdecGcFtkjzm6p/WPR1iG6YyXvuc5PqgYk+mzfvAe8BxfBVPFQ/K6Fn8TNDO3TE6CyOmVaLNbi5qQ26CArkeC35eEyTzLTSVRCGae0RZ/Rg6Rhhv42crFQhwKOjJrqaCJj4yipfpxEvACyvHokTN986kg9dwNbCG6821c/bRPAm7pJmF1V1k5Nhro30XrMEWOr4z/+hqfUyjOmjVmdSbxg4IlVO2jElTkHPplRVautWCfnqOyGxVNLarcAXabj5N1938Cfyt8yMdpsmXXckTBbeeE3nrWfBiRN6WKuSVec4KpZStIuCIcCwN+8B74HzHtD8SvU70fwwuZw4/WXi39IPy6kYaqN+H8OBF8hUDyz4QnXxVhKtUtKxTfjz2hsUYTgr3s5xuzGsIXTUu0BRD8h89XNnbBKuSjE7L42l/I5dI1NxtqT4SxmuA4C2Mn2B6IM1dc8DVt0Zh7YZK6CSdJhQNx5JEwAv7N9jmm+xAC85Ae4g1aJUOSIIGJZ6pfIWwn9T6uLykXQh0T2auZc+/MCVj35oXMpRAlxLTqcwAuAVRxR4aZ/+t/fAevAAnOh0kgsSPZern0kOSvPKInPxBuRbhgIvu6k0oU/cdqeIsyKuK9WEMGIipuPSo5AHphMIy0mMsfzxR0bgRZgxrLJs9fiYHKnOpAl1laqKLz83UUz4HmOaSIfZuDkLb+1tD3rVTgigmr3u+tjSqky6RDtH2az5uDhfkN1Jw/ZsinpRfj2t9lX0YKyWv1Q0NrjVLAAF1fbMFapw1MMtluP3fALRdgAHAz2uytGPjNtXUcECZtHnaLtoboW/lE7g/KtfSEQ1Rs5d1GHwPecZ5kVTo3rMb7eRPEDqncj8mAqIwhaScfqEbAGFShQi8f3caNaW44VDltJW8IzaiXbG5kClNxDmzIr8l9XExcSZvepql96slJHeYwJo8BDvIP1FiNO0hj4WiBRZnS7ttOghpWl982IbfDw7aihNWhCPZv7lF0ygtOVeVcVIqJh+jGgUxXUuVYnV2rFRHB9V0+oqh7bXtsvduBrAx2FUStJyhkqg+renQxcBNDpPKe3Lw4WI5LBbo1CwxUnxnQNu4bWX1dB6TzPiKT92ku7nO5WSj5Clye+6Rffn5c1omb53iVpq3M1IN2gCrt8G5ZMk6m9/sJHzAPPFItWNCkgkWrGuYEH64otNemfknNbjgCMBL46B2jMTTe0rhQcTEsxcRLxV4AhF8rQUdsfVY40JLC+u1rjCk0TgaJmzWKOhtCaGqCbQRgltWat5jkHvNiZl0/5Ss+qhMAFKok0Lb7yiSsZwsVRWLDNP/tBNKuIVZ9iW486/9PxQuKOXQVDliSYdSvdxGQ+rlPTubNWGvEarBYDuy0VFxJj0Leom0DZ0trSQEZcQDtfci3+UAv/rVqASmt4OOhGLCM6YPhBE9tmnf2xR6+KBtxXxOpHYs8OGpmuUkajy5j/5Z6rwvXjDtRYLujz+Ne+BIA8s6kXm07IoBUkZNBq0DmnJFlewIKmx93qc9qnG80egJ+LELbebnAG8n6SseOhtrZhv1gNUCrsiSWNUKM489bQ90FmRA04qqmLsVD8IdH/u2d+Z7MDUAw87flKKqA3DTUBErnxMqVVF50JN0S5SKNOPP2XRu9Bt/ZuxeiArrhcE0apFvr5puW8qbAuKIMELG7qwuqqWudeIbp77g74L74Tz1lqeJG8ARiU/M6N7ke8SpF2rLlXKsnhovyOalqSR4tzyZ3+xIYRsk/SrP9b680B6dtYyS8YNbrWIjPm00fzj2Qn9h84jG8kiAy+cktux0+XElSp/9EFiK1ciUuh+WKRLkYuVRp8pHvKQZhd2v2ZcqG5SoRQNzEkjC5A39eCjbuaJHwx8dVwScRuF+nbRxYyamU8/9pRFA+Mg1K/0r/+7vQcmJMhpzaDFIwuz6mcn3PxrL7ktf/4vwjZL9D2rWhUonFfF7MKbrzarFInI8dNJBJmUvbiSMz98RjpnDyq6pHS3Uo0Y6XL2b9zQhB7oHBe+CtW9yIksjYXXvXkPeA+s9QDfXwrpKARKspiKor2Ksk8eeK29JsuvkKqZkCwDPKmF3a8vv97XPxQDLSvlVlS/PFbQ1oZl6YBKC5Jag/uV2vQzI9DCTZmXeGUnlVeAmzqcsULRNE2oVpt56kf24I4zPbU07Ha/WQUsvK1+jNKhCjO+LNkrrzY17n6ALvhv1sdLk+co27jU+0lN98OyELfFYaJzAg3cW5kVKlhl4MdqQH/DwIF9RRW+C/t2u5IWNbXvvvm+aEYgqhMjwjWpqufJO++x9lTw2JbadfG9YjW7sPsN42R2st9et01vuci4XQa6OjynXo/tP+89MHIe0HeEQMbEHXe5uT/8PrHhV1XwBuVn+uHHEjvmMByoo4iX8a1EdLdSejVITqKxJk4i94xukpHrlRNebTxcAWT05ktLZ4kqsuKB/fYZxFTbGitxeC6NilVZoJtVn5uzCdLK0CVpMRYTMbvtWLRB4a090k37OJS0zX4oPEAUEmDRD6OogtYOSaaW4z4PzgGxPnh8/TCAP6lwuF7zIcALLiIrSYoV6BU4qHS29VRUep6odUVyF6YgvTK6FTEqhZ4Zsix50Q+Q1yDdTRXySiP6TLQ6KWHGpWNDF6BJee767QMHuEtj8r+9B4bdA+OT0+Jb7UoUeC2K58VzkQrxjFq8bRSLTK5fckiTgD6mh+mctDhOLL3c998Q8Yg+5RTdGp8IFgc1wrPAFxVUBsRUVbWoCa9BmxtFtCKbPgP/i75/9W8UDdDnAXcAHOv9F3lHHW6oSQ/5g7kXnmsS6ldOiKt2xeQyeXdTiTuuar1Vh7B/4egQFRlVy23fKT/da1WI/ToH7sslsdmw5uU0lK6rjDp7hYpFNquR+yqg0q/xMTbS6ciSLOx90xX377Vo6iKcq4hAa2ls8KZySvlPK6UIeX5Cf6c4l1VFA7ZYUqR6/pWXTMx46fN9/61xQD2g2GSjijP23cf+AOvSA7YYVMC7oOeDUVw6fDZ06xQWr1Tjb6R0Y8fAC+eO5bICIlkjf4NYEzEBAEAUJP/sNde1PiR8EwjnSktSRcb24wJNfHa5gW/rT1/wDulK0Dg/6I6gHTaWVZk8wC/u9IVucvhs5577JxPdDNVT0eRCeTx8GhpB98sMbCrSV1b0LUylvV/H72m/3AcaO0UYpuSvLgz9Mh5YtBPifiFs3hLM8CDTfQwooZLHFhBx30crT1LAnZ6KpOp5mC689oqqlo50zrfClyx6BGgmb7/Dmq9P0gtUFYNLacWVh+Vvil2gI5QUGU/S+N7bguSe+9eAwSTH4Y/lPTByHrBn0ZgV2hB0IEqfjPF8yTcpM8kccOBH6Q54oX0llEqVkvVxTAgZA0YAUHmR/KP0XgQ4mAaYeFBEq4jesPo3EccOxky/QgjU5ePH7Gak9x6TLZPO6pV+t1eUsZXFuzn72793DfXOCjP0kaYfecyqTFtNfGGfj/oe58Z1RsajonNfLNMiRuBhFEzXJn/DDjcrwrfxAvsJcOQPHhz4C+5UWNRL+Wxpf33jctt3NCtodY/GbgJc1k9SvLPiwf1u/sXnXfHtfZ2DZwCXrj2rUdKK+HJaxScUunBftDLS+6YDJuAVuoBotYMuX4eTOHnH3dbSyfT+utyP/5j3wEb1gD0mNbeVjrzbluoSl4+Y+3guTj/wSJOC0edndVzj7mU/XQEvDkjECxHJgvgiprfVyyiiflZ6SIRAmeCIGESNOiFDkbvuepfXZMdnlngtgLiW0YnVYyIiJeBH9AeAxBhSqpyihUwzRNsZKfmC3eumqymleVZNsMl1h640dNyp+5TmuUvpswC+2wX7jeEfwGtGwJV2S6RfLQQdw377ugtdY0jfW371z40XyDn027gfAOQAfKpjQ+8roq962GSvvKrZOzSuBw33qESFiXLRYmpOUinwBbtqZC2fwZmkE8LMEz90sz/5hfT0Lo9UIViRyj0pTVTvkzSr8H3oEVuQJHlcfyzvgfXigTEVrMGLLex5Izn5Fz23wBO2GNVzm2fperfugZecQ1UdPBE0gJICX6T76mqAjU6QRXs6mLQMgN24w6ofKZknhRiJfL/yLtBN0lA7ldLhQ8bHYqLtVS2eiBqtZc790z+2LeNHLHXzL39laZ+Vw+rn33wRsqrEQ1OsfuZMOKjo50Ai7ntcgIGiiJkfPBMJKETcbdvN+D7A9yq8ta9tVJUKSMjf9EgjUhOHsZCgUvHMf/mP9uC03qosLkK4gq2Oy0Nw9pmfuU0//nlT4FARxKgLHUR3CwJeSYP06SeesjTjUqeNVufmX/ce8B5o4QHNpzzDmN8sQCFeaiKm40LjMTFVnjXr3LoGXviFCZlVMJpTgKHQVX5cjhTwaQqlNqv6Oo1mMOYUfJVrr7fqMiM8qydhJ/ITdu5KtVgDYUkEkIYj6tWtOCbVZWd//V8jtWPa/Kd/rqbPN1t0JS6XRtkP6Ub4clZwoFZOQ2u6DnD7tv7Ff6tWPar27ACYx3JOOj59CUvvHWm7GKlLpiNz0SU9k8Dh3xUlanzmH/6ztMJetsrcjopJVpw4Cv/occ0KtCIO2ymfEeX7hb27TV5jxW77/mdevRgpSTfOo1bt3rwHvAe69wDtgyygkhSH2xJGY25KBTuj1NO2Ww/3BLyY1OC2LJHQidwkYValJS2xiVvvkM5UF5WGAl9wVIge5a65rllNodcsQhA1OgAAJGWkG5Oy+arAE1WeqS1bOqp+5OaGhGzpKaITrUyrAHoOMiFSyp94OFbXGn8tpbIQxhxGozJmVoR6S0XrmiZtBuxV5YdcA8A8LG3M94V0MSkyVpmdWqNUNJHduRefE3H+JVUqqiWPQFjHES7A4taLDXChXzchhX3AI2n0ToArzwE6QRjoTLAZNt/lTT/9ZXO1nKDsS6fXy2/vPTAyHtDixZ5hklZKxDTv8vyYfujRZlAh6QVzIif5/UF6A17aD42m4dNUPj1upOGOH/rfjyX6XwI9AB5SjdnLr1xuJRR9B80t+Tz99phkSBfCWQPURVK/B3idN/g6RPwAbtbPUmq8lN2PT04IIKWWNlvzm+NYtRnK3kzSIUYF3OZf/Kk4Nzf0TQw05PD2FtHFJfBVFfAl7TtMZhVt0jUjDd0NkInlXPR9oMIRMADXyapBW+0Y4K6HDSK1RliPCBRJ4VWOHXULr79ioL380fuufvq0VUy2OlTg62ogjVo1PT5nfiDAJXFkNPBI1YXdt4H70otFNXRnEYEadWImn1HFOE2LIi16OgGKiY3RH8h7YMQ8wDMA+gvc40TmdPwjrjN9mCmM6WfR2DBcip6BFycBdwqtK4BHUqKqHBfgghglVX69XCgABRebtCkgkkm7IWkHethFvukAg5pEa6fUSFzcsfqcVgoCcYxrmYDPoM8bvjLQJRKjEeqX3gj4TWUZkgizz/zcCP2DnFwMUOYnTRKBhulhEZ2AU+nbS0ReiYBOacVEBGmgJvAFiCdcbwUJui9ambXScYsW+WpXLMGiwPo+ijBfeGu3AR3+7wYAA7jyN93qJu97wE0JuFjjeX2Pu4qk6t5HZ4+KXKo6nYBhIibQxfd18y+1IJGsSlxcuUTG7g/iPTDEHmBOpJK/JmX5xCSj9H1Ge88Wf3qer2eLBXjhoNTMJlf79rTlhdV/JxGfocsFSOJiEYnpyYhU6GJnBb5Qa0eUFN4WYIqfTvhr1vxT/adqWvmTkqsrpQQwXUpL0puKMn9aqVT1dzsjIoceVV7gy/rotftAn99PqaEq3B9azXDNO/FNX4amLyypxemHHmumm/T/oK3JPVw0rlNoBFWVusiyAJ5ot5NSsYZFm3Q/LhkpxerJkxb6L4g8T0ssZFxMl25po4i/Ac4USiAqCydqUr0m2wG+dru2fqriec6JVG+pznYfiOl9JGUooph+5InBRThjOhe/G++BYfMAi0JbPCrAkZTxfMrv3GV0naSOOYjjxFY+QKseKqEgmpNiScqQs8iKp2WVhXHwOzRpA3Rmn/6JuC63NpW+Dx9qRvPgsK1IMbY7R9Kv/BARpB0CkRiiaPinBkEd/ZIIxs1IGkgzcoSt+78JgNRkBsQHAlTQp7ATv8Q9QlKM0w8/qqjNLT1FPuMeF9pXqMVzD4RFBqkeWlAUqyZfArA5H0uVKsLVOB9FLRw6YBGuhlLaHZvuaSou4R/S3ocm8HDhwrS4Ih9D3IyaKl3P/f43ApDJcDxtbIokpyXgikJ9LOcR+YT9ht4DG8MDtKQjcl85fjSZ57vm1urJL+yZt949HBvwwlGQcimTp0qv26qqTh1uUgzvHzFNJIBfnEaF1yZF0/K33NYkwCtKRSVap+fGGCEq8tONGRdNEgnDZAADhGwhNX/zN/9PMxzdASiN7VwUEkdnKq9G1VReDpMBmNPiDqKHZaXZIYNDI44SbvpiEnElhc5nSCXyuytpBqJmaksEjxHANfvMT7Xf62MFp3VF68ofvtdMMSZ4/YnSweXDV968B7wH4vcAmSSCEETvLesT/yEu3CPAC+qEIvy2kF8R9b9ww9H/L1bgRbqPhsFlpUGQmEjKUMmGn8VDOO7VLzcdwqtwSKbuvd+d++OzrqgJslPw1YsvFhVVIFJGKnSYDML/hMr4qbSce/GP4UTyfgxcX0zKjyfuuNO4Pv04RK/7JH2I1ls74LV8HF3ryolPjF+hp484hvrpEtDQ5odm0US4aPdjPMiY07BwQM7+9h+6HuPyeXfyhyKuGRXVUAHlzXvAe6B/HkgrS8PiEUCUlFXFf+b7vZ71+GLjeNlF0URoFVH6x3q0hckjxHkVdRyqK8e1sgeAxW7aNwAstUnAUlwiAF5d/CZLrWii7Lch8mqkZY2D6AlVc4Mk2C+fr/klbcr2kKtraoXTsSDt8s46/IPJVw+FLX/xL5s9A/X/sBmrxIJa9ZQ/+rCzFSNAa+mni5Ni8TGh6qDZH/3ETT/6hFX+2oJE1ytOMymUN14xDbFuwWE34yESPXX/Q/ZdHIrvQTcn4T/jPTACHmgKpH9hBWNJDZc5NnPp5UMXaIjz/GONeDEwoiDwR/JKO1JenohpkiJKUHznkPWUg1MVuwEyxJNJS/ByUueYEQ+n9MF7rqD0o4GiPoJMiPml9yntPe3mX31ZIFCXLcIkCkkbAvJ4r4UHEZxJNWeSUUDuM8jhi7W6q36lYw+VcT+qt6dSy6X337MK0ESGJ/BJynXy7ntscZC+WGlORdv6UZCBSj6UggLf8T7e+6v9RuNzKAWTd9wV6Tuw+vP+f+8B74HoHkgppZ/aJJmWBA0JCwqKUm5zgkdN9lCxAy8AQXrbNjf14CM28QAaklgNNxt2HzPtkcl77u+fF3V+cHdM1RvxSzUMLoljBgjrWzhWwJKKyKrKe6PR8c+fvoFFNbkWSOm30QGAL0tSBueppEiSNS5P6qAdHAeQTBouifufKHPm/GInr5QixSYWpo8Azjs4pQs2hQTLfc95Jmlj4qzRRL7w9ltJHtYfq5UHkMsRBWL1YpcMgWU/EOGVIVOChEmUBWOrQ/nXk/cAci0U5TgyCgktsMgmJSZhkbxL7YjxAy/tli8h4UJ0lUi1dEUM7sIhNYl6UkXGitjkJfo48TA8CL7cmOiOEBotiGtW+eyEtMyk4ZVACrKtiwBs4obV9bPejJQmkhwb2caIvIoAm5M8BDpc+Z03NUF2n+97yswRV0ShPqmH8dJ1RqyYRvWVBDknS8f2v9d6YCydcmNE1VdlGUxEWAsCZHnMVJGdvvhi4S5oGxIY1uvW21S/KdQhFW774XUVyVA57W3wHgBUM5fCU01Ko7M+NycdzfU3Z628mn0BXhyAL+K0SL1llaKa1lO9/1woqx48+pFSjgdNSDOJLy/HgGuUVpsYKtEKB96ySACiqN0IW668OP5v74EgDyAUyiRGhSIVtwCuXrW4go7T6jVL6797WF0avmy1Sd9ehzdXR1fP28h6gKIP+r4ymZM9sAIUQJomeDis9p7mDwDYuBonj+lvA3ICAfZM7/PCYmQd26eBc31oKVY5F95dJa7D19X2bLHSUW4nrkMntp++AS9WMFRS5VTl2Ni/L7GKt7qiTfMvv2C6V9ww/eC3BF2dprq8zlfnjObS3HO/N9BpIVOI0t68B3r1ANECTUZU2EKaR9stpY4LSRpFFMV3D0n4Vwr13rwHuvAAcgE1aAmqXmtl43QSEY82pQVt5sqrrbOISbPomW7RMS0+xgBl/Fa601v/PEBRWUb0IdPz6t9hlvdMZC0R+YrlIyb/R1/v2DH1gpt59Em7YFYBmAAAsT52atWyoFY8KJnTBy9pm7z9TingX+HO/Pq/KPW5Z93fREn7d0MeD9ClFT99FTf94s8U8ZK+joonkraSQBcpxsjyGEkP0B9vXXigITHh8pJi+t7dy+eUEk8MsezMVVeLy3i96TdaizCiYOP6jiAy7SNiy/6K4w+LQm7eGseuIu2D/rZ0w1jP1lfghdJ69tpr3dR9D7p58YzgYCVhpPjOPfuPqnC8yWXEP0gi5bj6vKzNz+NPCXSVjXe2+n3/v/dAJx6AZ0HByqaf/dI4MUlFcleOkWjX/GsvWxuRla/7v70HkvIAvU8B/VSSF/a8qbqtRavcJdNA6h2+Y1q8R+v8kNSg1vtxRKehWMJbfB7oL/DSOKlCmrjjbiPEovOUCBlXX8a6wpVIPUwr4mXVNPH5LNqeVMWD3tfkXfdae6CKCMHevAe68QAthCa1eJl96uk1JOZu9tfNZ5CPKKpQBumOpIpluhmn/8w69wBFS/ppUGFHEbWe9bTRgmJSVMEHZHDa3FDslFF1L901BvL8X0eXgaxR0pSGdeS+wFPpO/DiqOSHUbSvnfqq2dcvcCgxv6gvZ2G/Khy1CqKpM5U0SZtpDqlf34QifRCSu9G5sh57EoZ1Maw4qEazlG9CZcFJ+3s9Hg8+S1btfhAMTWlCGYjpu8TENqfm3NbwOwHKwEDO0x90dDyw8h4EiOnZ5vQjOGbzDDp64+gsiuoB8MpKdJeIGFXAPJe9RfcAhQ1Jd02hb21dgJo053q0RIAXoAdBVcLDVYGvRKJeulooa5fUR47Qc18U7SPcEWmRRHPXbzf1cANfET7DJuiD2YNCXDF67ZmOSsTPttoMoj/pIi0XW23S0+tERQB2jfKK/DzRR+myUN3aiTYLGkA5Ves1y9TjVVzv5iThHDSKBd1UnVXbUBpdP3emqefVBeC1qKl4XZnL+9CRIaIj6rqmC2++Zt/f9U56jegSv9kQe4CILOlIftA+hBuZkZhwmrZyeq6a/I+AGJXAnpgf4ULSZixheY//v7336pLjyNIELXRGpIAGCK1IkFCUAKhZLFaRVWR1VXXP9PbOdM3M6TnzMj9jnvZpn/ZhVs2cM3t6Z7e3prtrurq6FDULZFFrEhTQhNZIHXq/70YmmEiEcgt3C3ePe3nAzIxwdzP/zN3s2hXfZe1aYQVQxauLAWpzCE2/tHqVSAJ66ps2R/r4FRa6GaS980Vjdkxf/P4kDsQLzhiEbhUvEmAWWIMQQfoMHI3K5FCvgEQVuxRR7uaGkXUmS6D4KMPqV6XS16UwzZwxTZwoGSvYbxE+tGkEfS5UKrvoFCd/utgrly+a8pkz2Ayc6XrjMW8xJRs9Xfb9ECqcpEaZfP212Ae89gNfbTNgBLDx4yLOuZf/ZkFNwZJTEhOG7GC68Zk1KRYdDcpvORgkwKUBJe5B7y0B8PkLZ7M5lQdavSpIIR53GCfCHQ/T32nxouWpH0IfOV/2biSJ1N3R7zxl8rByCB1GNyeF5BiOMWMBbsq1g+JFCyeJFD3Z2bDDopmZCns/Asn9hpRBwaQZYXC6pGUvdJW0aCy9ao2U32I6d18EfaxcuSJEtQwTUFEEoo7APNdj6cQxoWbJgXuRbnwpBr1sBbLgwR8GigqVmxGg0sVayFXGaav0jIAzxYs9nbf8pLGYUiFyJSxSPIuSKqwh2Y/sDLrLunJ1Ylcx/MCDwkIeNaWr5VjS4of0b8+TGQh363DtMWup/47GlnfX9ReMzxp56FFxIV/8X/+XRqxdB+Urt227HN91Iz4fWEN2cOnEcTP55hs+X1kvpwj0EQFsBBkWQbc5ybb5jxvjwr6HTGH33sZ8RQZ9x+61PiLSsWluqln319PmueNVB/cA5z6c7MZNZuSRx5wiTi199vNPJd7LacNzjfEFZpB0R6HidQBB1A6KWnfsi48HiBkf9+ZFxMV1DsWvOygnXq7Z72MlUB7K/8jDj3ZVP5NBwUwM6ZeUwYfHsky1CTeM1f26T21XEWCd3eu//Dtz8T/9R3P9t79qhAQoLDcQYB1eeqtU/EHA22roQ5u05AzdfifcjjudEt2xhuLMhx+Et4wPyDDTqALPVOioxHR19ThAcWKcE4toexVEZ3g9JfTHJzJwue/c01VmFRMz+pXVw0QCFn6f/uTD0GOqHVQEfEEAcxWLvrPyyaX//L+by//vXzeSgizmLl/6E6aLzFkIXXWJrk3PXhJXnfOhHaeuRumvuJ5WoeTJdzCxf+nMoiG+fWTWzcDyVbjvAR+g8/cSZPmXKvAsfxGnIE9OZtegeFW8K17+IhyOqzFIni5E0oS0ExZfZ2Znv+Lb+J7MfPyhp0zUdvej30UXgdTy5cJHmN9zT4MzaxJJJlRGsBgLhxYyd+eFm6zaNEIEuFDDVU1KAJYIiozwniQze1YoVBiPmd+9xxTu3y/xpv0IVQkDdrIFduh9YFwra3nGVdwrXkCS2YXMKmGWY/HI125K6iDIu3LpgvC65PfsbWjTYVJw0Be+1Ph/7J41Idz0+NLyHKl0UEdwfpwE48yYvwTKm7QTTjr92vGRq6v49ZemdNpR9nE7IAL4jgkseWSK5sCx161MvXkQc9Xhbg/v7ThsvliLk4klTRd6vEuzX34upZtYXiVo4SYhA1qbPOKfasXZhtegBns05lRW5qjjs3mpIYOwxnIv+J68hYwTrFdAwYI+i0JDpQx0NjUoa/xbMqFxD8yEFss4C6B7nCvm2/b1JxUwuNhLkqU9I8TBrIQytHO3ZJr72lbIL0aONI6NS5G1kEaImEp/7gxWL8YxjT7xXXmgmfHl4mXjTqwIBvnZL78QV2e/FraYPkstbgsT7gzIDZnd6EG4o65ev+7kufDQLXeHkj7CY1ycX52jtUs2RFhE4ygpKL5Uujj/dCulY0edKV6MCc3vvls2pk2JK6GYUJkpHT8G4tDgFa+FGCVRpN3wn1eh4gXLF+dgzgVV1uMjVxOVsxsWJhRHxoZLKGn4HRQ68uBVaEWDAmRoZXMdfYB+M7aJ/8pnzwo3ZH7XbpAab+9r/KVX+Hs5nlbLKrKbVfxDoD+KF/pPjZam6xyYhWc/+6TxQvp3X82vhJdIGLhfe1myxRhP1a/FrXkH4/cpIBe2c3U1RmNsaWWcZmmgs+AbcyjCETRnGXHYrDblCgFaevOFG0klzHRuJbS4UuGiQsaYq/LF8yBhxmcoA1cvgQQark7O47Sued3QtWqz7edzYRJlWIAr6Evp5HFT2P8grKY7Qc4dHZ7FtvfY5ksqvRUaRxxJAiEWcTeK9E3xYhwTs7xoUq9cQEkdPMwurF6MO5j57GPElz1gCqghGWc/sqP3pH0z3OnO7XLbH7joW5wnZH2ud7iLujFIf1I5niRDPRJRxD3s4uY5DyB1P71ilVgVFrqtXDSvbYQPAeECRGLJYqlcutSIuwIRKj0XlfNnYTmbFkuaUM+wqgR3egEKKShoDWbN0vI332D9elw28ULO3ScLdYC3K3iSAFqInwNt6NuLs6yTxLd++1Hsfuuf4jUHZR4ZXtPvviPxPNzhOBH47ydefgH1uzaaLAOYMfmrBIgA4z08+ggkxguknXHh8QoQXV8uzbgbulNY31Rc/75ctfNFaPnO3b5DOPam3nnTVBfEC3U+2+4IPlNBlc2y65G3uGUhAABAAElEQVSe1Q0C6ZUrwTS/UpJTSDJN12UJNBDFLw8hfOSQWGkZKzYf+B+kEkYr0CTj/o5+bZb8yZ+ZoR13NjKQY6Z8MaaPlSucVZvBgyAxsD7UJu7mmerXMX1XvHjjI49/B5lvV83spx+5wQETr5SPQIAqeZK08nqAsAPrypVLsKB4zGpEHAgDc70qbAHeSawvTUvw+Au/bTBTe4zH6wUYloZa+txPnXLsMViYC7ZKtBGglWkI1Uhym7aYse/9QNYQek5YGHv2i0Piqgz0DrGBZz3gy//XfzKjTz7VSIhAEkKchOTjRcQSuhSuxwmbOEKXneyxrVAoXqwczxR7stnTv+9EsLhMvnFQ6jjmm5i1nfRhEBqB4sV4DaaXexdaylSCRoCxMlyopj96X7LLgm5v/vrC5v/wY7B2bYTlwFHGIBsXi5e3ZI/5PuvPkCEACxPrCFJYd5FJW8yYZ0xS6ZuTZvYQiLO/+LyROc9x91twTWZ2ci1hfOTwg48idvnu5tmofrcd8PXoViWXH8sruZQMxpEs+XGWUCheDKzN79ojJs3pd99yhncZriymzWfWrMFL2zrY00mHkMVGpvJYBvuL0mUx6cFFWbl8WdK3Y0Uq6+SB6q4RUgKQZmXi1ZckaNlJsDK6RhdjZu16M7zvwUZVB3X3dzdgfTiK7jsWuQ+7SIUQLNhctMmDx1ihIW7oUYtRMnVhvalevRxI/CJdj3R3VmFNZUzU8AP7I+9JmUbVCq6PzkKA5h4wroNMxIizhELxIsCchFlEuwSrVwXmWyeCLCoG2mfWrgN56Yq+1uYSAlWWCurA7+QEFz8bwY6QmUk2WY2MxWH2UmbVKvQoNI+qn+j0/Vo1UHbQ2iUWJ4cuxjQWxQIKwbM4sUrIEZijfAh5L2/qHjdqtH6xUkoGsbxUwsrg4GLiSPHwV2INo6XKT2ESEWlH6MomzQfj0KT8WwQ3FcRo6u0/NrKbg7AUtgA+QaV5OdZiJNzEWUKzmpGvZghBtkxjn+Duyso15X2oGOvBnQprSGbWbfB+Ad/OQHaXEMbFK9BflKfrcB/PpWTfBBcmJAZSStZjU6JU8hWRu8fCWnZTQ/pHMwSIben0SYmJcZlNmCCB8tbbGy4ZPvM6vs2GRz/zAwHMMZxXs5u3yr8h8LcVN20xM4jvZTwY1xvGN/olUmP2zCkzOZcoVrj3ftnY06sTBWFISOXCOTPxh5cle5Olw5wJXMZZrMFUluNeoNx5rcZ2g8hdcB67EnG5tTvQz+/woM0iPZimaBurjJ9did21sKC2o4SQCXH9BkyMqea3Dn1LmLF1YW6OT4+f0hI5c+hzt/FV6HMGYz60c5fE5MzfQhI73PlYnfnP9Kci4DcCjCss7Dtglv7Jn5qxp54RLklaXUlt5Ft2O+YrZgaz2DZd+NzcM14q1II+U8kqgaZjAjyX0x990Ag9cNlpKMnZLVtNAkaYuEuoFC9quZnb1qKW4j643FosxgGMCF2bDMCsIOZLxT8EuHuqok5jS4tGOmOyCIRtSZYHK5hQG9DqpeIrAqTrmD30mZCl+nrhDhfjpFpA8DHLzywUBkaH2iqAWqqxjL9cOAgD9DtjwIYR+7X8L/+NGfv+D2GB3W6SIyP+rjuY/yYPvmomX39NQmj8dm36NVxC3QNFcfbzz8zVX/6dmXjpeakq4Nf1u74OFC+WpkpGxDrY9X01OTBUihf7R0bjkYceNellINDDQLiSIjI3Jl57qbWS4KojMWpHzNbIUq03dSMywDot6eAmm2l+19w5MiPSYexR847E79My3CGzCJytgrvLpbBaBWu0Lg6elZiOuew0l/3pti0u1KmR0W4P1+OigACeN44pS0et/Hf/3ow8/Dhiff1fd6befMNc//UvkSH4ZXjWF3oRMK9yjia10rV//IW59F/+D3CifdG3kUsgwYwer7iTpxLg0MR4LRxtViYf+8GPzNW/+xtf/e8L21j8O4u2FhEYWTx5Arwwm31V+piuT3LKgRO+2CTExDveXBB/AQtIduNmUyyhWDpLgKgEjgB33lPvvSup4oE3tqCBJGI3CnvvkWDnBR87/5WLjdeYNmZhmpiTOjofiBA1yLiiJc/9xOTxfE798aAhma9f1RsYbjEDj4oUEEfQ/fCDj/T3zqF0kXl/BqX6Zj75sEE8i5g0v+7X5uYY95nfsxeVZGh1DJ09yOaW2p4TSsWLu2F5AZBVwQBIJ/5xPIxMq5+E1Sv3s7/yVfFi7FhtBgrIgAkL+Yr7toXFSjI5waFG83IZnDvVRYpXHXQSdDVq7J2/D04ji/HrRuFhfy/d9mojWHCyW7YZxnP1U6h0VbwW/XVofaclgnUB6f4yzeJd0BcmpRiEZqj4hAAWe9JQ5PB8MhMxu3WbmYQCVjp6pPcGaF2Ca7+ETT2vyXgyCafp/codr0BuMRa5rk2MmzJK87H0D2M7mXVZnZjET3gUGH/GPvZRmFzHwvCyweljP1w1HUrFixovH37uDPiQVEtuCnQyu46EcTPIchzafkcj4NKXkcBD3cLd5svlw3oRLCBVvPAtX2rE8bFQOasHNDI6F90IY7xAJ+Eqw3VR67H8k6nuU++9jYX9lLganNxkIokQglUmf/e9Jo1UcZchBE3vj5ZYWCHCLCyH045TTdi9XVngUE6KisMgCJWiDILtWcM3vXS5mXr/bTPz8Ydzmde9KSe0NJMFPpF+TegS8rtujnNshy/nUSkSjueCPxcKg+LJtSUWKz7baKcCmhjOu/I5FCt+JnUtoWhJcXFYfUMjcDEy6YFuxqbrQGg66l9Hwql44f4YaE8GYCpCs59/Itwo/t12iytRUUBM0uQbfxDel1AsEi26GoWPaamqXG0R44VdO18yxvZkENcnWUWLbwrjUUYhXLV4LQbG8m9MxFOoxcgivy5JERnLN/IIigmvW998nC1vZ5BPS6KkSsJRAlINC7dsgAYFcMxNdD0OMd6IJeWWLAPlyrswAiBcpEeFhcW8+f5x7qNbjfWCb1E28J7SClUGrQN5x6rXr8k/bppIfVGdo6qYH446CG5ZU1HmSdlUlJ1bs+f7YvOTG2/GfVL5GhQJreLFXTEVn+H790sphtL0sdaWEx9Hi7uGWfi+S/c+IAHAgxDo5yN8N12KWLa0rGDi4eRGkXTuZrW5MAFV4RKiqTyNCS/u3C43gefzH5LocPE84lf+IJO4z5dvfTky1EPhGj7wsEkxfkMleghgA1WFa2rQRAq4w/WYRjgE3ZDTH7yHeKjTPccd07MygwzCBEJqSLJK7qr5jSe/I7dYCa5mluqhkla5xFq34bbQWj8bXOfBVF+ANXyQJLyK19woDO24C1xDn4ryRb904ELzLNphcCXdI9kNmwYi2M93XOEmZKkRkvE1E+7YGdtFYcaYTDx4CZu5JSuITciiskGC6d4DIqJkEg8/ZO6ZpiWXO2gnMZPsN/pP5VqyxTDGbYNmGVDr1/36gZleQxGYQ4Bu3bHvPSPhL1NvvSFxx0L63ANCjDOcwvtIa9fok98X9ybXHWYaT739ptSYdPae9nAfvZ4qVj+ssUywGiQJveJFbhWmoDNImwzzzRbmIAZsGi4ZmpqlbpTu1D1DXC+V4Z4Ah1cL4Q4yu3GjfMuUbv7jJNQss4a7zOodOxo8Oy2uF7ePGWPiV6ApXRDl8+fNxCsvulO6MCDsf5bWLtDD3OJOWThgULiYUMNki9AKFEMleA3t6ATeMXLM0V3O9YCkqDOffuw5M7ZZJ0k1kVl9m7gwZxBSM/HyCxLu0uzY2H2G956EqQXUtZy3+MXuHlvcUIhnum97PHTXTpPbjoUXk7NLmUYQMjNRVLwjwODg6sXWFBqJLGK7OOHMSXbDRrF8zf+98CeDW4VIdeGHMf+d7o1EM/erxX0zQWXyjdcaLhJYv1wJrcVjTz9rmLHUSVhLj89EWCUNi11SebzCOjzO+kUPzNIf/5kZeeJJX9pk0Pu1X/3CXPw//+NgKV1Aj+s5s0hZxmnQJBKKVxITMgPtSTHhUooon8DgflabV/GGADGb+uj9lifR4pVBfcx5YRwQA1mbSRk0H1QevHIvNbtWdD5D8oEPnWU2FKsy0ILrUpLISs4hMziHygRdiWM3I2PeGLTcrQWdFg+/LJCd8GB9U6GfGcRM6E7g9Pt7PKfp1avN6KPfkU1FW/d5l31lwDwD9wcqgQHY5O+5zxTwbxBDDELvapRnlybJ9etN7vYdUubE1QNKHzuLqWZgjZEMxy5fpCgcJinHCFxn5gxffMZbsVyTH4sLg+FLJ45LLEQzLEiQm9285aZgaxYoJ4VIU8EiOfXeOzDzr0D2y66mh3j6EOnxTMkuHgZpa7UidBYZxJAxliNuUgI/2tS7bzknp83BhZBHgkpYXQj1CooBI4NZEjy6UfpwTKKb4/x4gKB4kVOwhuSUVkxdnI/8eFf96O6gXYMM61Jh5bHviDV3HO7BGuY8a6EVusdsSeu2+3Ridut2MabMx/n2qRt9azYaihfgoduFk/kQaryRWdiVlM+cEYsB036pmMRByoiXI2tx8atDjZI8iAFiSi8zSId27WmtAHVx81KCAqSDtLC0YqJnMH2W1i4GVM8J+bzSSNumZaFZBk/x6GFYH79EEOranhQkKlqMFxx//reSPVSHEpYEazItbvm77xMumfk+Rf0nrYRFWGypfLkUZqkO3bULiSmNGD6XbXfdFqxJEk/o0PXafd9g8cJmqB33X3IUiSaIiXQmUFRZd5WbpkG0UCzGmTGLdI8PP/yYZHxOY2MoFtTFB+rftyCQgLejgE0ZreFh3Zjd0mmfP3D45vbe8zQe9Pzee00RmR+uSvAI7wosIzNYmJnlyN1O1GUWCtfkwVdMGRluC4Vlk1LYSUtNugVK0cJjOv1ekVIUH6P80pHmh+K66RWroESDlXuB8AUUyyLGmKzdi6UO7hoGn3KnX7h/n3W8H62l03CBTiI7yUDhnBfWK6uXKyaDYs3czUZdaK1lMgozguuIt3Mm4N8b2rFTLJPdxHY561fMGpJ5yJUFDtgJHQkthGOoV5loZYeLGcidbkfmspVm5NEnhFNt+sP3nK1LnboW2u+hsBbuuR8s9XuEpiO0/Qy4Y9+aHAJuyI/L0zKRg4sqf+/9flyu62uw7ALjZEhrEAcpI2GAXDGLhVYl0g3Ypkqz/tfU++/Igk/3ZTORchyohZlZ26CSWHhMbvvtMr4LLWELv6f7cgplpGYPoe4ZqCq8iiwe586Z6XffuUnp4nVITlg6fRL3H7x1iP0IWlgahFZN19Yuumzzu3ZjfONhHQ56nCJzfVgGWQIsjAbCfmPIJJIRFNouYF2KY7iCb/hC6aKVi0XJ6bloNc/71l6ILxQpxYs48sEe3v8QArFh8ra0yngdD7q+aB3ijoauqqhLHezGrcqRUPkqg2jTk+B6kjmHOpeTr7/WVKmT62G8WH+OsXrNhFmODLhvmT0GhYU8N+PP/0asnsLr5mEl4PG0bPHfLULrAVmfYSkKVMhvNjkJLxLGICDhPUx/9IEp0eroQMmbvw1aLUcefhSTK8ptWViGhXLC0Ts93+duf0rfYM1TUQSaIcAyQ8MPPSYB43SlqSxCgK5ZYLT02R9LmMmguhjnUYmc4jXvWx/77vclNmf+RoL+Wbl6WZiLK5eR4Rjgohn0ffD67TK0Zj//VALju1IwuQtGAHAF2WFX/+7/A2XBQTDNt84AZSBzHjF6TMluJgwWZnpxHvQhLeNIoEgUjx81V/7mr80krF8M5BcLUicFDGNG688MLJdNBYsqqxSQ0C9IqVdRBokJDQvcnH63V0Rh+dlDn4ky7Pe1210vu2mLjG1qKchSLYRxfrRqh1EY2yQueFed4/PsjvnD1V3Fuh3GrY7sfxhxonu0gPnCkcamluEbS577icR+hpk2ZmG3g/w9cooXweDkTL+60A+42iFjwaxcvWKm3nw90EUzyMGev3bmtttMGrFMzYQ1/CZxjwwW7SRVxIRNHHzFnP+f/ycz/fEHSIGfbnvK8EOPmByVqjaS3QxCvX0PCVFhy8OgRNHCdu0Xf2su/ef/DXXUENjaIauoSDcl4rroMm4qUISShWGJM2v6fRQ+xGJNF+z4738jJUdcd3n0u0/jubKPj2PdTqcB4x4AkgxCV0Wp0S/W32sXXO+h63qoQwSy27absWeelTgmh82GuinJAIU1kAH1rrxUoQYEnYtmpDiUrdToqBlFOi9TeatYhF0IU4a5eDP7Lbse9bUcTsR+3l961RoJoi+fOX3rZbF4M7h9/MXfwTJz3hTAn5aFFYpCFxn5uRg/VDx2VALoWVRcsnk6WAEZl8fEiPSyFbe2ueATlsrJwXIy+uT3zLVf/n1r1x/6SV4vukYrcI2mcF0S8TGbjveXXt4ouCpB5lC2JlGjcPYLVD5o4XpLwkrD1Ob5+pELuhSZX2mlJOkvx69VjF0QN0O3Ad+J3NZt2BR1Jktt3Qc/mMtaX33hN3wuyrCA5qDod1cD1F3faFHnM92sisPCe0hy/iHbPzaFKuFAgM8S4xzJcs+QBm4Qo+4h6QVZJqQNH3hI8BB3fS8Xi9G50VS8OADJFEoNHJBiozVkqnWapHwZM06IUDQmD74qZtP5xd2Xazu8SBbB7Vxwioe/auysF7Uti9LpU0I1QQsRqSYoxJgWFQbfVyeuG2ZBdpxUoCQzy230CRSDRRBqNy8fLZksE1W9etWMv/riLYHwC7sr5IMkIESqOyc5uhLJiJwcarCg07VXvXalUesT1rxWktsEqhK4QLtbhFtdpX+f3ygL9NrL4vp1FgUNNwKVVdabEx42VxboXqGmdRCKe1hF5jP0sZ2kQL9C6z8TQwIX0m8EHf8Y+E24aSAJyy03q0sQz3T1F/+twfHVYSzd9MxtKyQ9L5CiaMedN9YQtz0Ib2vRVbyAqVAL3PcALC5Xscs/5QZlWExmPvlQyN/Ivs5/fggXfCkWnQx+Z81YFSoZ3JGxHE8z4cRPS2Iv1kRaBDPgPxt96vtgMb9dFolmbS3+jFjQFcpdI/mMxI0JBva2ygRchYwvaxdjtrid+b+Fdwp1OUPNOzXf2RY/pbA7Yt5KsHYZjJ0robJV2PcgYvO2dKVUu+rXILST4ObCIonBBhvGUcq7Rcs23k+VNghwMzI8DCvwvRLPyeL0NRA2D4zMZS+yRmsevJBBx81GEddIxngtBJplhJgpl+jJxbHwih1+x86F7rXp99/1N3iZiheCi135wBkIOnzgYcOYBN8FEw+zTod27TVjcBnm8dNr0LQobeBOG3vqaTOCftJ9GMSEzwwkWtfyd+6M7ATBupjFE8fA7v92W+ug7+PMTCXQgoyARJIJGy0TInxvWC/oGgFRvGjhHkDLjRXWDIfBBnfksSdlk8ui97EXzPsJWGALCDtgqAirjKjS1XzUI23x4i0xEypH6w12+qVjR5vfZQCf0uo1dMcOsboxG66d0A3ExbGt8KFFrAxWr7aH+fUlX4g8rDycSK/PFmVntpBQ1LYd3kN6xUq8dDtNAbQfQy2oI7q6PiavDGLpRr//A3EfTn/6kSFBKxMAehYqh7T8oX8FWE3TEa1KQOb9snCTvY2i5G555ljIO4e4umacbDbjw2cntK5ePIuJROT3qTbDoufYIoA5JoNsvpGHH2+UKDtyGPF40acjagoHNmEyH4Cna+zpZ2VOiGoMdNP78/nDyCtexKMAqxcXZLobXcUhcPEnr1d6JZSMu6DA4CVrJXXERLFMTdiEigcD3pnee/3X/yCB80Ke2iIAvV3/aXHkdVhWiTxrww/s9223Q+V67AfPSn3HybffQBmcL0WRlQByrztwjhMmCaG2wHMzxkw8sOWHdsFvBzq+Y8JD8esvnBfBNnAjM45lGHGWfkl6WSNmKXh6We89ZtxOY2Pk/VzbM1gsWyX6CDDWicTMVWTFS8WVOI0r5lNmI7N8UuG+fQgrecbwXWm3HkZ/RHu/g1goXqQBIClnDvxOs2DrdiWzX37RaHf7DueTsl/3yBi1wj33GgbckypjEnUwydQv0m6CuEnRTCBVeB+UuLvFghQEezNdWeJWhoWlBJ4q9nMGiq8w2M/3c/5nM3Dm+svFk0H+DHwdgsWvm2D/ZpcLy2cszUS3t6sNx/x9ZzduFqZuv6xdvK7w+6TdxA8hJ3b+Vrr6yfhLZlK7FG4s6OKL6qbAJVZhb2sEGfjMip949SXn72pg2GBO5dpLxZKuRbLSq3SHQCwUL94q47wK99wnjOauFiGW0GDWX2bdBmm7O8hDeBRcKDQTk4cpDwy5OysdPyaEo+VzZ5G9+G1gKM3HXIRoJSL9Qo7lf/AvNbZUdjpBKzLcTXGsSedR+/GfiRJWQgkkJgqQV4yT2w3FEVCz/iOVNlomsxu3iILJc5n5GHRfgx7p8tnTZuZT1MWEIupS+AwwJo6Bs5GVCoqlX7oIV3t4qRjYPyanpEZGmsLMRS+ZzZjw3kHTbg/kh41g+/skLpgbpagLN7BDeP/p3RiC4SHpeFMSdfxio3iRPyi7YbPwOLXK1PN9sGBhYVBz5ovPJN6LE2FkBTEstH5RmUovXQ7L1Z0gRJ3B7gy7bixS85Kg5SidgZKFeJzckATNi5vRVaYT2ufCz3+MU2N8HakxGEPHftJCsFDxTqKPBpminCgY4M9/QtQ5f0MR/cms05lPPhKGej9i87zAQEshY/ii/LxHIVicfWynGDKjlO+gEyGdhNBveLMUOulbFBrB5paVHZhoVDxyuMF9GIV+L+wjLVzzyUjI2Mwg+Ym8jJLZz3VBpWsEYqN40afMwrzUwIuHv54r9Bz8JFGHckI+rOkP3xf6g66RD+mBdGskkIETlSwcyZaEMuXGQRWeQWPNyhkUC2c1BZeSBGcXs0Dpmo50HAemBhLO0jsd1SWDFttE0s2TLzxxoJep1+qRxcvle9KsLRoHctvvkFioiVdeaHZIKD/jxpqksOTj4sacHgNS8MimVhUuqzGLj+KF2+cOnH5mxgJNvftWS5ZyK6TanESGd1ofaHqly05FEQgSgQadyTviXnVt7WImbA4UJJomHuQIh/Da4O+SbOJ2cZQh7HbYukR+QvJ7zR7+0pRPfRO27t3oD99vxm+y3A+z1LMIp+FmK4UEmAQ8Hiq9IRArxYtQMFuNxJu0CHCB6sis3ht+cjbrqkkB5o8+MKPfecqHK+olFIHmCND9ROsqyx8tjL1rfrSPn2JnyzqMBWSr9lKPsV2PaBEIddwd6STgkncxp7TDSb+LLgKN5J6N4CZ8xFw9+7fOjAPtEGPohcQLwnDBeELGa5GcnLG0jDFktrEWtm6HoPfvYqd48SHKbtlq8rv3St06oUfwjovnMypXL5vJ118TTigS57kiQvXcUT0hsghQ6WINPz5nfN5cChWi4QcfBkM9rF2I8whCmA3rlWg3iH60umYjTnBoLoyh1VE+fk6W+OCjJXzssF6qGwSEyga1ayffeM2UmUHOWL4ghRx0dEvDUsXYWK5NfJbn/2bpu/Tq24RzjLyJjN1Kghoo0qEEQeLpw7Vjp3gREz40Y9/7AQooH2nQDXACC1oQ2M0sJBbRZuows+ZUFAHfEICLh66eyYNQui5hssbz5kwQ98eqCmSon6/bGUTb84tCENe+9ZrQaDwueIx7ZEUGV5s5CWZvR7hJ65vG2Nw6tGH/BOPG92jk0SfM9d/9k3DxWXcZ4y9WYsb68feFz8Tc7ylaspYsMSlYseg2lCQqxGix1iddiUFtpKzvaQBOjKXiRY1eiDz3HWgsVJeRNu5AuDBe/+2vYG27uxF4yAdfRRHwAQFmapZOnDDjLz0PhcGh0oW+k2h37JlnsVgsiY0ll1mhpEoJs9uQ1hBmFqdahI0yo1eUVR+eL72EWwQYmD78yBPCRyiKvKVxQKpvIMOYDPl0FzKGbD5rm2sgY7WEB04ySPC/OUVdstP5+9zfbu9eW4un4sVxxQNFJt1ZZBxWriHzy+Pu1urREKvEtNTMG4XVS2ovWl1IT1IEbkaAi/D13/3KudLFSTzHup4ohB2rRR4LXYMe4WacQ/VXBzcjufNc1ailm7t2/Tpcnx06FSoAQ9wZbMpTwwVTuH+/hA6Q1d5GuCHL37XL5O99ANauOevXvDJF16Ju/m1gDfycWJtkJINk5x7sBlBg2ZVgQicDfInli8olV61qOzFGgISw0x+8C4vXMed3yXdo+KFHG67z+QndeS8CahDUCFEOompYMhyRYUDxqly/BrgchG0ENNyhuyySNVhyi++YbUww15gqSKOpEIt1C5Y0BsLLP1W6Qjfk8x2KteLFHXp+9x4JtmcwoSthrNcMCzpfbLg469xdw7Whogh4RYCuJlptSY8itSm9XqCH48nZlQMr9RB21CoDjgAWdt1I+v8MsALIEMqgWXtHsLaUz5wGI76bcBr/ERjMK8Za8eKQMluDCwfL+riUGdSMZB29Bvs7diULyu647Ie2FV0E6N4pov7o9AfvmQrjkVwKdstZlFsqgHOIWVguhDEqLO8UVhFyYeUwCuvwRLJfDIxnJQjGaNkKq6eUwAnG+UIlGgjEXvGSB1vqyqEgMniCXEmFpKqHPmtUpZ+4bkiyqqIIeEGgAqZwFgJnPVDXwnqc3Innbr/DWdMM3mctzrAKecZYc8+V1Gsof6UxVa7g7ls72Q2bhMIhYUnTUjl/TsiUnfL69Q2teDQce8WLwyRkcHCZ8AF3KbNffm6m331bLF9VuB9VFAEiILUvOyyoNdTFY83R2a++cB8EDmsXFa6hO3c5pUWR4H1QV7gSifCilaDDWMz3J8Fan7DKuRLJdqu0CVFgMHXc4u5cgRuidqTe7JZtkolv260ylK/iyeO2p+t5jhGIb1bjIiDpNsnfcx+4vQ47SyGvjY+bKNXkWgSZ/hkEAojJkHiMDm6BElyM1alJw1qgroWWpwLqMbq0drm+R2kPCherW5BzT7iQ+tKJ1o1Wrlxq8BC2OCSZhQU/5XgK71JJbdFl/bgFAlyfWAexdBwJNBYYl09/I8W3C3vvVYqIFhiH6eOBsHgR8HnXydCOu8KEv/Zl0BBAVlhtYgLJYe3jMSpXLhuWouqHDKPkVu72Hf1o2m2bGIvqtWtSLNttw/60ll6xwqTA5eVMoBAws1Ests4aHYyGWIQ6u3EzLKp241mbnJSqFpLhOBiQRfouB0bxIq9XBoH2w488FukB087HAAFYvTqWgpFj6AxzK1JkHskoLN8zCFInPYJ7mP2BlnQBLl2NcxZCJ5yI/iAUnatgLBlgb50ExrEBz1oZNEYq4UdgcBQvjAVLI7DwJ8nmDGtWqSgCisANBBhjNfzgIyazdl0oXW83Oqq/9A0BWrs04D8Y+NMo45PbstX64rSSz355yPp8PdEdAgOleJGkLo36VMIqzyBZl7tFd2OqLSkC3hFAWnsOWYx0xZOIsV/CzVECJJBhFJZ5sXUFhfF+tE/hQiC9bJlYvGyff2Y1lk4cB4XRdLhuTHtzCwKDpXjh9kmkKhlb4E7RSfSW50E/GEQEsCEhV9fo409KBrAwovcJh1RhRCzTfWq+bbNUCl0qpUys0HiqtkMSqy/JNp9evhIhMXaVVkjSXUGyCDMcbQL0YwVmyG9m4BQvWrmSSAsf++7TPZVqCPm4avcUga4RID8VObvyd9/nlOuuaQfToJNwSClhqiyB02WQFxRUl9mPzLisl4pNYbrxIcrOqOX+BhqR/yW1dAmqRdhz57H+aOmbk6p4hfxJGDzFiwMC5SsLXzp5vZhKrqIIDCwCdL8j6WTs6R+aflq6+oI/ApLFLcNEhhAKLRgsN9ZOErms2+LlwKxrRbVdx/W7pggwqSW3405rZbpWLKLKxRmNw2uKbng+HEzFaw7/0Se/b7KbNodnNLQnioBjBFgjLr9nL96DLdaTveMu+9cclIgySjFFuY4qaXJYU9OJAC+hOJHi4k5aHLhG6I1hdmNCKjh4L4BeA/ff9CcfOeOqHLgB8umGB1rxyqxbL1mOoUidx85WJjXZUfo0unoZRaAdAgyox8Zj+MAj7Y7S7xSBBgJUVBE/pMWyg30gWB2hALe/SVksz1hHWB9YNhTIQFUJJwIWIxvOG7HpFeM1Cg/sb5h2bS7g4zncdZdOnjDKkeMjqCG8FAvZlsAyXW9XCsZRv0kbMbRrj0mvWOmoRW0myghwT9hNuaso32MY+s4EsDTeTcP4PRuBwiVzDNYUlXAiYDmy4bwZm15l1qxFCv3OxoNucwGfzmFQ5MynHzWYoTuUk/GpSb2MawSwcnE3WkRZkHqp5Lr1m9qjK2NoW6Meo8uA8Zs60eQPus5SI6NNvun/R1wQE0hEUFEEgkSA7yYt0QnEX9pIvQrF6wTmmHJ/5xibvg/KOXYjGyN0SBo5hILAedBLOM2mWoQhd5LcpUy99YapXr2iPvpF+MThTxY9ZtFrZquZDkHTQd8vY7qGwFCfXrkq6KY8XZ/JLsyyDKMw/iblmOOMz0zHzMYwgqV9skYgmclK3cZEFiTfFlyTtKqTwT7KsYvW4EXkxIFXvDhOzOriIkTXS98E1hBaQSZff02Ur9kjXxup19cpnbxvHdaGvSBQQ93FInahk3882Heli/x1+T13m9y27YOXybhg0MR1ButAt5xH3KTR6uVSapMTYiVt1WYCRbIHLhu1FRhx+RyWruTwcCMEwIZaBZu68oXzqEHavh5sXOCK4n04Lm0fTog4cbFA6fC+B821s2cRZ9WnoESsBLSGXP/NP5ocLCM5sIhn129Ege8lXQFHZm3jPRGmq2t3e1ACuzXnCwHGT9xllqb5bu+t83EJuXcu0FJahc8RLJm0WtCaOf3+u6YYgpIe2W23w8q7Y2DqMbYeN7h+UVw4zAtU4zlqvYAKqaszCyGCvPpsqW09lvH6JpHEmrRlm6lcumhqXoPkMUb0mtSmpzBeeHZwLZVwIaCK19x4pJevMHkEGk++cdBUsFvoJ1cNTcSzX3wu/7p+XKB0CDVGn1+yzKpVJjW2tOtu+3FgcmRElIi+u6iAPTOSyDxdvX5N/lWuon7a55/JWMpE6McN93ANWmxYMosbjYEXWgYuXog0OzyffZdchFWUowmzohqbZxouxszK1XDH2NcUpruR1+AzohIuBFTxWjAeKZRrGPv+D8yVv/lr7BSwu4uSYBFhnS6bmAA/b7N04igu59jshkmK/9UdN9sMN/bDJPFP/FhwH/MnrQRheJ6A08gjT4jS1eAJanYH+pki0AIBKqrno8171uLOwvcxvTBbtpokNkrtKXRbd71yDVYvhKokjSperVHqzzeqeC3APQW/Oq1e2c1bTfnUyegFJ84t9gtuaWB+DYuaHJZ+3DLwsIjSEjl84GG4rt1aJG/pi34QXQQ4x6gEjgAzGjO3reupKgHd6Ax1UAkfAhpcv3BMuDghnmrsqafFZbTwK/1dEYgyAnRHjT75FCbz25zWG/SKWWrZMpMcc8TE7rVzOJ4LImP4VBSBQBGAdZoB9mKZxjNnI+WzZ0xtdsbmVD0nYATsRjTgTvXz8gwOJ6kkA9sZr6OiCEQdAcZ1sUoDk0ckHgiTeliFCSKJTC6s3cNCOATFsLtkF19uggkadFWrDBwCTFJKo3ajbSZt9fr16HltBmSUVfFaPNBYlEjgOPLgww2OoxAvUou7rn8rAs0QYEms4f0PmTRqwBnL3XOz6w7iZ8yeJR2HK6lOTrW1WiQYfI0+qcQTgTSD48EfZyPViXFVvGyAc3COKl4tQB66c1cjuBHmXhVFIKoI0MKVA33E8L4DUb2FQPtdpysmxBYlFj2WGq4tUKASaLswt7hk+4/JDaVxXu0x8vHb1NKl1havmipePo6Ev5dSxasFnjTv5vfcAxfNBrUStMBIPw45ArBuZTZuMoX79yNeRDObbhktKFyVixdDUTfzlr51+QEVa2eKFxSu2hS5odT12eXw9HwYx7eXkl6kJlL6j56HwfcLqOLVBtL8XbvEWuDStdCmO/qVIuAJgXlrF59jleYISDmeMFB9NO9euD6F4lUh75kWX3Y2Lg1Xo30JrfKFc4YuR5VwIaCKV5vxoNWrcO/9ZmjnnjZH6VeKQDgRYJIIn1/b4Nxw3pX2ShEYHAQSOZSo6jMp9uCg7e5OVfFqhzUC67PrN5ghZDimQlZMuF239TtFgM/r0B13yvPbb1JdL6ORXrECmVzKM+YFMz02vgikV6wyCWcloeKLY9juTBWvDiOSyOZMDjWzhu7c2eFI/VoRCA8C+d0ogn37HbB2hZeaoRlaUuszxFl6CcTccDFUUQRcIMAwl15ivCpXLiMuD0SqKqFCQBWvLoYjvXq1ye/eazIoWK2iCIQdAT6nrMCQIX2Eiq8IJDJpwwoXroQEmPVyyVVz2k7IECCXlyheljQwddbWLJVDdlfaHVW8ungGmDWUQxkhxssYvAgqikBoEcDzOfzAftRj3BQ5a1doMe1jx2itqM3OtuwBmc01hq8lPLH4gkTeWls1FkN54yZU8boBRftfWN9OrF5r1ym9RHuo9Nt+IYBdcXYDrF1332fSy5b3qxeRa5cWpXoN/FQhlFoJfWuTRZgaHZPSMi67Xmf9P6WUcAZ5EoTezihDnN3VYDekileX48/6bBkoXWNPPdPgRFJG+y6R08OcIIDnkTvjJc/+pOFitHRNOOlryBopX74MktJiyHrVXXfohkqk3DLXk56gpu7P7gZIj1IEmiCgilcTUFp9xIVteP+DpnD3vY2ad60O1M8VAccIMIg+u3U7qE92axaUR+zJ5aUkk92DJqVoYIlTUQQUATsEVPHyiBuzrpY89xOT246MMU3z9YieHh4UAiwtsuSZ50wSltmoSwIxlW4L1NejDpnj/itejgHX5mKGgCpeXgcULp308hVmyY9+ipivu9Xy5RU/Pd5fBBBMnwZnV2HvPUgA2RKL5I8kNjRJh5mD/g6IXk0R8BeB9JIlWGfsCmX72xO9ml8IuA0O8KvX/b4Og5g3bTajT35P4r1mPvvYVC9f6nevtP1BQ2BO6eIGoLD/ofhkPjE+LaTZwwxyTmHjpaIIuEJA6jVGjI/PFTZRbUcVL8uRI78K3Y3J3JBJYUcy88lHpvTNCWOq4cyOsrxNPS2kCHAyZkxXbvNm+ZndsCmkPY1XtxhqwCwzFUXAGQJYaxKaLOMMbhcNqeLVA8pUvrJw71DxSq9YaaY/eFeUr+q1a5pu3QOuemp7BPis5W7fISSp6dW3mdToaE/s1u1b02/7iUB9BgSqHQLZSepKLq9Ox/XzPrRtRUAR+BYBVby+xcL6t9TSZch2fMjkYIGYevN1M3PoU1O9fh2lGqYarNN1DUa1BldPbCCAHS+TOVJjS0CQesAU7ttnyKfEeKi0MtTH9impXrtqqh1KvtD6ST6vioY7xPY50BuLFwKqePk0nuTTydy21iz90z83ww89Zhj3NfPxB6Z0+pSpF5GuToLGKogHVQfzCfEBuQzdDHi2ksMjUvR65InvShUF1mAj8aeylg/Ic9DuNlnbEi5QlZgigI07/1OJDwKqeAUwlpk1a5Bp9pQZfvBhuB5PmuLRw6Z8+hsz8+nHooQF0KReMqYIZDdullJVuR13mRx+n6/bVrl0QbJrmWGroggoAvFFQFzIrBagEhsEVPEKYihBOcEFMkUrxfbbpYxL+cxpU75wwZRPnYTVy9vupcGav97Q2mH6xZgPkkm6MljCJDQCHGlRFEuio07VUSqljtp5lUsXPY9juy4m4C7KoBg7omhNdv0Gk169xuQ2IX4QVBF0JdGlyOeAwntOr1ojbse+PQ/tbqbH71IjIyaNEl2Vc2d7vFJ3p8vCFtKSQd3dgdujymfPmNqOKXFvum15MFuriLt5ajBvPqZ3rYpXkANLBQxpwCn8q68sSeHi8hkqCh4zH1EShASZBdTgM6k+Ua+hzzW4TE2YFijor7VpxNHVvCmyvQ052iIWUrjYv3ZZ9oXEoSaBIQaHFWkLklBAmEW3WNLLlokSlkhHnyx18b3xb74zLsmJq1euyHimljTrjX62GIGGolpb/LH+HRACWhszIGD7eFlVvByBz1ic7LoNZsrGYoXFmIssLQH95DdKOcJKm2mPgFtW9/Z9CeRbblgcps/z3WSGsooiEDcEUrAcK/lq+Ea1T+aT8AERdI+oOJEGIGGjeMG/Xx2/ruGVQQ+SXn8gEWBGYDPLYjMwqKAloai5kgR4ApNNrJ6u2m/WTpJ4OcSgWR/0s+4QIOecS+txd73So1TxcvQMkGtHGK8tFK96udxIFfcYG+bo1rQZRSDaCODdNF1a2KhwUFFzJcLR1qFcDDd1yaw7t3N6+fL4VElwNZC9tIONtxZx7wXA8J2ripejMblh8crl4DeE71BFEVAEmiIgbj/EvLmSRBKUHV2+k0xwYOydIYWDA0lA6epkXWIIQmrJMge9aTRB6yAxU3GDgPBBFmetGpPY0S43FVYN6ElWCKjiZQWb3UkNpvutHSfS5ldnILd/wdzN29BPFYH+I5CCeyQNUmJXkhrz5jqj4pFB1qmLDVQGlQk6YUGONybfOBEoqNm167WIuROwG43UpietaYhSsE7GPibU4Vj41ZQqXn4h2cV1GDCcWbNWAuW7OPymQ+rVmimfPSts5Td9oX8oAjFDIIWsTdJpBC5QIhh8nFoK19kcVUc3bZLaI7tpS9fuyW6u2eoY4sA+thO6/kjeHLhg/uJ9J2i1V4kEAowPFO6/SPR2cDqpipfLsabiBa4mqxehXhPqBAMeKRVFIM4INCxKq1EHdWuwt4lA+fzuuxvWmy5djexQEnQf+b33BK540ZKVXb8RimF76x953qigsW5nkEKL/fC+Aw1Xa5AN6bVvIFCdnECFivKNv738IpsJzdb1ApmzY1XxcgY1GoLilVqxyi4+BIH1wh2lAfYuR0zb6gcCtEThPRnauSu41tEGudIK+x8UomMvDSWRaZiDUihWpgBjvQr33A8KmvWdN2pzlvT83VAGgxK0kUSdUFFUoeipuEGgOj5uapaKV2oZLLmafepmoDy2ooqXR8B6OVxcjdiZWlm8YOmqsj5fmAhMewFDz1UE2iBA5vqhu3Y3XHoerFFtLnnTV+Q2otUqtxmuM6+LEzdQ6N/oY0/iJ1hX/e4flcLRUSkVRQqaboRxYPndexvKoN/9QQdoVRu+9wGUQltlN391cxN6zC0IsB6rZ8Ltuasw7i9sVCS33OCAfqCKl8uBx4Sdxi5EeIA8To4S43XhnMZ4uRwvbatvCDCOKLthoxl++DG4tkZ9deuR1yi7ZZsZeew7DXJJj+8iQaEbZxjWMrEAQUnyTUiWDEVw+P79JrMJtTnR125E8Fq/yQw/9Kgobd3SY3R1bcFrqxl+5DFPsXDdXFuPaY9AbRKB9aCTsJHU6BIdLxvgHJyjipcDkBc2wUmVsRue09Fh6SqfPW2M5Uu4sA/6uyIQBQRY63T4gf1SKksCzH2IVyEhKd2EI488boZu3wGFzpIWgVYp9G/08e+a/F27Gu90r6DymoVhk0O/Rp/+YaMWp4drpsZGcV9PNPAi1xg2er0Ky1jltmw3Iw89BkV4ky/X7LVPg3Q+a8LWZmesbpkWr4RDfjerTg7oSb2/mQMKXC+3zUBYxpd4Ee56ikePaJyXF9D02GgjQJce4oqW/cVfmsL9+1D5AW4uD9mHN908lBpRIlC0nsXmh/c/dNPXtn9kYZUae/o5cVsmC4h9slUOcR7vdejOXWb5X/zMZHivXq+FAuukxlj2P/yl9IcxPrLBs7Do0X1KvIbuuNOMfe9pM3zAH7xscR7U8+pVWLss43rFUhzTeq5Rfx7csABGHSWf+89MpdmvvjC1ifHur4yXr44i1eXz5wwnVKa0qygCsUeAViA868v//F+amV17zPjLL5jil4c8Z3qR9JTWqeGHHzWZVf5SVVD5WvrTPzfZjZvN5OuvmvIZWKY9Cuu4jjz+pCg4jKeyljm8Vvzsr8zUO2+aiT+8YkrHj3rHS6x56A9cvcJZZt0hPbEXBEqnThkSqNoI4/5clrey6eOgnqOKVx9GPrNqtWFmlI2Uz5+F6R9p9qp42cCn50QVAVi/hnbcJTx4pVMnTfHwV6Z48oQpnThm6iUEIC+2CuB4oX3YtRcB+pvFrZheCSoXlt+BcuK3pOHWEfflnTthmT5sike+lj5Wrl1DcHTzGJ3M+g0mh3sa2na74e/p5Ss8W8Jb3gfuP4+syNzW7aZ0+pSZ+eJzU8Rmr3zmVPNTkJ3JhTq3/Q5RIOnu5DwVFF7NO6Gf3oqAPWk2Ez+sLcS3dkQ/8REBVbx8BLPbSyWREeU5k2ru4mUsOrW993bk9um2L3qcIhAVBBLZnGTV0YVC69Lw9JRw25FmpXLlCoKQG3xHdOMzJoyZi3S90YLEeCyrbOJuwaGiB1djJrdeWOSpJNamEBjNOqvXr4nVgm4jcpSlQRDLn+wXazFSQWTsmWfXYoe+0VKYRJICi1pTsas9+LCpzcyIolq5+i1eKcSVMXuSizQtg07w6tB3/bqBQOXCeYzZtBUcGlxvBZuTk1TxcgLzzY3IztaS/bl4/FiDSPXmS+pfisBgIEBXGhQq/jMGnHgQKjS1aSxO1ar8TQWC8Ul+KzJy8Q7/Y5ssor2wkDYVw3qpaIT8GN9TQWMNPSeyEC/EllJuwQsKrcSnOemQNtItAlTaRemae667PU/4IlkGa4h1gTWMu2vcHB7o6O13eEcRaIqTHNmoucuteyx+WgGXV+XyJZPZuMnaXRkBiLSLikDXCFCJWajodH2iowMlHjNEoQFhx8vRsIS7GfA2NqySjc2Ep85C2WbRdC1k7gk1pwerOuwU7m8bIxEh3SCeBdmNpVPfmCpjR1QUAUVAEVAEYodAHTGLVbiDW8UHtr1huL2ZIWudYdv24vqlHwio4uUHihbXEHcj4k5spHTyeOOltDlZz1EEFAFFQBEINwJQvIQ81aI2LyukpFdZ0JGEG5FY9U4Vrz4NZ2bNbY1yIxbt0+JFl+MtmVwW19JTFAFFQBFQBEKGABSu8rkzSM5Axq5XYVwfEiaogKmEEwEdmT6NS3IY2UyI8bIRZktVr12VDCWb8/UcRUARUAQUgfAiwJq8RfKvFb0rXozhy27dJpmz4b3Dwe6ZKl59Gv8UUsqlwC74czwLzNDlixcQZH/R86l6giKgCCgCikDIEaCrkZm6Fq5G3pkE1vtPVxdy0KLTPVW8+jRW5BRKIgAyxQLAFkJ27PLZMxZn6imKgCKgCCgCoUagVpfsdSkZ5LGjpDTJrF0H3rqMxzP1cFcIqOLlCukm7aRR+kfqqTX5rtNHlQvnpHyQzYvZ6dr6vSKgCCgCikB/EKiDt6tK0l0bixfiu1gYWzb0GuPVnwHsolVVvLoAKahDyBadXrnS6vJ8KStwN1bB2K2iCCgCioAiEA8EpNrBJYSRwN3oWeY8KUGUxfLcFz2hJQKqeLWEJvgvRPFa0WDftmmNBHsli4K8Nm3pOYqAIqAIKAIOEABXY+Uqs9ZrnhtjUezM6tsCqUfquTN6QksEVPFqCU3wX7CeHPm8jE2APbpHnhch2Qu+q9qCIqAIKAKKgAMEaqCQYPwuSVS9itQCBTm3SrgRUMWrz+NDhuHMmrVWvahcuQQW+5NW5+pJioAioAgoAuFDoF4smuKJ43YZjYjrYomqBGK9VMKLgCpefR4blg7Kbdtu1Qu+oKzbyFgvFUVAEVAEFIHoI1CHq1FKwtlYvJDRmLTMlI8+ctG5A1W8+jxWLO6bXrXGrhfC9TJlyshwVFEEFAFFQBGIAQLMahxHLV4bxQsUEsyW1+D6cD8Hqnj1eXySw8MIhlxjkvmCVU9qU1C8Tp+yOldPUgQUAUVAEQgPArXZGVO+BA8GrF42kkBwfRrriUq4EVDFq8/jk8iAc2XpMpNZt96qJ6SV0MxGK+j0JEVAEVAEQoVAbWbGVEglYSmJdMowblgtXpYAOjpNFS9HQLdrJjUyYrJbtrU7pOV3teKsvKgk3VNRBBQBRUARiC4CjNu1zlTHJp41gFkVRSXcCKjiFYLxSRYKJrthk11PYJJm0eza5IRVTIBdo3qWIqAIKAKKgN8I0NVYuQIOLwtJFoYRL7za4kw9xTUCqni5RrxJe4l8vuFqREaKjZDpuHzuLPj2vBPu2bSn5ygCioAioAj4j0B9lh6MS1YXTjJsBTHDKuFHQBWvEIwRK8nzhcmsAeOwhfLF9GPZJVkwHYfg9rULioAioAgoAkCgEeNlRw+UyA0ZknKrhB8BVbxCMkbMRskhzouV5b1KvVQ0peNHjamqxcsrdnq8IqAIKAJhQIAbaLoa66WSVXeYqJUcHrE6V09yi4AqXm7xbtkaSz1kt26H4uU9MLJerpjy+XPqamyJrn6hCCgCikC4EahNT5nqdTv+Lt5ZIpdrZDSG+za1d0DA+yqvsAWCgFi8tm6zqttYr5RN5cJ5q6KqgdyMXlQRUAQGBgFmVNdmpg0VBwZ4k5PQxnI/MIC1uFFRvMavt/i288dJUbzGOh+oR/QdAVW8+j4EjQ5womL5oNToqExgxgs9BILqqyyYPTGBXQ/qdFm4K0MCQyDd4C6yevUq8BkXbGtI2WbadjdChZh0H6kVK00GGUNxN+XTckolvnL1StcYdYNj3I9hZnJq+XKQId9m0nhW4ix8d0pnTqFU2cXG+4SAcFG8oHxR6SIWScxDJIcWjkLOa2RTV2mLQI04ghDbVjhXJVEJRSX8CKjiFZYxQlFTvjiZteux6F01dUxingTlJVizMb0UwZWDrnixlBKzg6BEVEGzUT79jZDMkpiQShgnN+4uuxFmnKaXrTDZjZvM0J13mdwdd0mlgW7OjcwxwItxJUXECc589rEpHjlsymdP97QIRObefepoEqSV2fUb8HzsMPmde0x289b4bYA4x0AhLx752sx8+jHiSo/NKeizt6Aogd4khl67VmJXc8CDShiVUs5zSvB5C2SYk6ZRKsjS4gXuLlF6USBbJfwIqOIVojFiRfnspi2mePSwqVooXiTeY4BmIheim3LZFSpccwSE5TOnzeSbB03x2JGGAmFJtVEHk3R55pQpY4c/+/WXZvjAebPkmR/Jrj4uiwfpSIonj5srf/PXqPsJlzWeIRVvCNSwYM7iH9/d4ldfmuX/47+yzlL21rKjo2lVB1/g1FtvmImXX5CNi9DXtLDM10nsfP6s/Jv55CPJtqNCWnhgn2wuWaOWweAq3yJQHR83lct2HF4puHiJqUo0EFDFK0zjBMUrt2mzmcKuxSsPfR1UEsLlhUV0IEWsXDNm9otDZvyl35ni119JsKm4FPGdH1IFseHU22/CJbzajDz8WDwYomnFuHzJjP/uV/L8GEsF1Q9843ANPm+0HF779T+YFf/y38TGNU0LMhWo67/5FVzQt1q42o4dlDO+O5Ovv2qmP/nQDD+w3ww/+IhYkSWZCPOeChBArC4z1K0EVkQG16tEAwHNagzVOCVMcgyuQpuSD1gwiyeOweLjcVIM1f3bd6Zy7ZoZf/F5c+Xn/4+4ygwUClkgfFK65nvGOLHJ118DdUc8rELkDSqdPGFmPv8MJEJKRzI/zr38pPI188nHotDSAh0HqU2Om4lXXjT1sh3VwTwGNbw/EwdfNZf/7/8iljNa0VQaCBCL6rWrVnCk6dZV1nor7Ppxkipe/UC9VZvY+WXWrDE0G5ukx6GBgsEA8rhM9K0gavZ55coVM/HCb2VHXb12BUrRnL3QH0PXzU1iIWWsWPkc6DtisKgypoQWmhuY3Xy3+pcNAlT6oaAQV/IyRV3oiuY7Rnd7z8o5N0JSaeOMGYfL8urP/6uZOQSlf8BlPjmBG0YrScJq6HXNsGpIT/IDAY+rux9N6jXaIcC4h9TyFSbpNUiSihc5windSgAAK6pJREFUYOaVjnaNxOg71qmceOn3ZvqDdxvFZZ1YbeqmhODzXnf/YRgGWvBKSD5Q8RkBvI8MPmcJmKgLn/MK5hYqYL4JNi10PzJIf/y3v4L163lJhLFWPHzrWH8uxMB6Wp9tJTUyhuQFzRy1xc/1eRrj5RrxLtrLrFlrimAg5svoRWSCxGTG8wfC3w8la/KPr5vpD9+bK5lkuVv0AjKPnYtZiYPFi4tptxmeXmEa6OPxKDJ2zldlpU+AMuNVNnV+tw/llBnGs4e/kmy+8oULpnDv/Ugw2iwZen43F+brkQ7I63y/8H6SyL5OgvZGJRoIqOIVwnGiu5EcOOai986VQSmR2zJtUjEPtKTSU0bW1OQfD0pKu7OdMhYLti2xdPhdRRFojgCUCgZKx6B+KhWvGjLuAhO+y8hCZkYtM7ML9z1ghnbcNVDcX3XQ23imEFowIImhfCNEZcFn+mt4EVDFK4Rjk16xynrHV7t+XSZ87xUfQwhEmy7RLD/15uuIt0JBWUzcKoqAIhAMAsJM7yJpB+8xQwZoKaQLvHDP/Q0y2gGIXSLfoDV5KngbU9ioy2Y9mEdAr+ozAqp4+QyoH5dLrUCMFxigDbOsPRpVOGHVSz7GYvhxQ35fAy7G2vg1cAr90bqgrN9d0uspAoqAPwiUwCnHpI8KMvzGvvcDEBjHP3aJ2YwV3LONsEwTLV4q0UFAg+tDOFapkdHG7sWiYHbp9CnsnOKdos3d4SxIKiXuxEkwfQgfEu2SIhBjBKiIzLz/rpk8+Ao2nx53nxHEpXGLdvdJSxdjvFSig4AqXiEdK5bXsGEiJk8OYzLiLLTqzX51KM63qPemCAw8AixPNP3eO0IT0zONRcjRrF5GOTNQdthIeslS1JMdtTlVz+kTAqp49Qn4Ts2SEM/mZaI1KO6KVw0ZQMWjRzpBGNz3iaTJgL0+YUN0G1yv9MphQoDlv9ZtQF1CZRO3HhZYs8soxD3xh1eFziKuypdkFnOzbGm9Zwa71L+0BlpPdI2Axni5RrzL9tIrV4GXBSz235zo8oy5wxCgyp0i3Y1JUFLETaQGHO6PVi8bSRYKUiuO2MyTXLIeoychVyF3mMnopzBQeUzm7ArrsoB4CsWh4y5SA9WrFRmKl7h/YvCM9HV8UUancuGcmfn4AzO8/+FGjdS+dsj/xhky0QvfWwoxcEmt0+j/wAR4RVW8AgS3l0tzYZcAe4uLUClh1l8cFS/y3ZA53oYoNr12nSnsvdfktm0HQW1edtOSwu5V8WLWQzoVixrZ3CnbuLT5WGbXbzQjjzxu8YRG65Trv/+1qZw7G61Ox6i3NSi9U++8ZYZQZFuU2ZjVdhQOL9sajRhniQnGhlIlOgio4hXSsUqBDC9h+TIJC3IMGLObDQ0VStt6Zrkt28zoU083sqRo1ofSkcQ/rwXJm/Urqp8l0hlrK0Jm9W1m5NEnonrrXfd78q03VPHqGq0ADkRd1BLKL1XAUch4priRQ9M70Ut4CK34niudBDBMesnuEdAYr+6xcnokg+s5ydgUzGYpDha1jaPQPWhbWiMF9+IgpKbHcdz1niKKAK1T4JnqSZDsxzioMjO2PVune2rZycniarS9L3J4wc1o6x1xcoPayC0IqOJ1CyTh+YAmZFG+PHaJ7PWVa3acMB6bcn54vVwxjPNSUQQUgfAjQJc+41UTrD3bo4uwjFgvqRgR/tv21MMavBN1xLLZCNeIRCZrc6qe00cEVPHqI/idmhZ+FougSTFdz3oMGO/UmZB8z7qCFcu065DcgnZDERgYBDKou7jsn/8Ls+S5nzRiTntQvkqnTsayrmjlyiXrOo3JUSheMS8PF8eXRWO8QjyqZCRO4cXyKlRO6kXUiYul0O9gRzQYSzj0phSBMCMARSu1ZInJbd0mbv6rf/9zqcdo1eVaPN97ztWs/2oj6eUrGwkHNifrOX1DQC1efYO+c8PczTDWy7MgcJzlNmyD0D23N2AnJJIJ1JBbZRV/N2BQ6e0qAqBdSUocUn733aZw930mOQAUJF6GvXrtmqlZeiiY5ckEGZVoIaCKV4jHiwGTNiSqvCW+yNZFV0OMSSi6BgJVBrQmlKMpFMOhnYgAArB8MXRiaOduWMCQNGQh1YnrEmRvcWpoT2HSgMSsVu1yq4llckhJekM7wC06popXC2DC8DF5uGyJ8eoz08gAmg7DbcSyD8Ja30O8SlhASWTs6STCcg/aj+ggkNmw0aSggNkJMiRjJiwGbhtYTygYiqLVEaL3UKjiFeIxIzeL7YtVnZhAEen4ZTYmUDg8kdMsHr8e2yQCc60sEFQ64XJVUQS8IMBSaLblbcTKjI1CnESqIsDqZSvcmKviZYte/85Txat/2HfVMt2N6eXLuzp24UHMbKzGkMuLMQ2pJRZxbwvB0d+/RQDxN8YiRoSLp2ZTfQuj/tYdArSwMuZLpYEAya7rFTs3I+k5MqDqIIGqSrQQ0Dcg5ONF/pvUMu+KRhWKVw1Wr9gJawti0VfpLwIsaWVlKetvt7V1xwjQJqp20dagly+eB2u9XQa6cKNpnGlrcEP8jSpeIR4cdk3cjRYWHipdFRRfVVEEFAFFoG8IgFk9YVmEvW99dtgwi2PXaxYWL1q7ULLL1m3r8Ba1qSYIqOLVBJQwfSSuxhUrvXcJXFfkh6HLUUURUAQUgX4gIMz1y1f0o+lItFm+dBHzdMmqr+nVa1TxskKu/yep4tX/MWjbA8k6Q5yXjdSgeFUnY+hutAFDz1EEFAH3CCCeS+K63LcciRbJtUhKCc8CixdrzyZ6rYPpuWE9wQ8EVPHyA8UAr8EdY8oiuJ5dorWrculSgL3TSysCioAioAjYIsDMc1s6Ccb+qlJri3x/z1PFq7/4d2ydmWONFGzvJHkkUWW6cqwErPx1S7LBWOGgN6MIKALRRaBek42xMNZjTrMRWRcsMpJt2tJz/EVAFS9/8QzkaiTrTFmU2aiXSrEjUZV7Qgq2iiKgCCgCUUWgXq2Z8sWLxthuIuFqZOklIXKOKggD3G9VvKIw+NjViLsRL5sXIUdM5fJlL6eE/lix4mm2ps/jFM/iwz6DpJdTBPxDAFauGuJv65bWrgRi57Jr1yuXnn8j4vRKqng5hduuMVJKZDdtBiGOV8VrylSuaIyXHeoDchZ23LZZVQOCkN6mIuA7AvVKxRSPHTEGPz0L1gEhL/a2HHhuRk8IDgFVvILD1rcrJ7M54WzxfEEuquCJYXajiiLQDAHW86xchstDRRFQBNwhgBiv+syMqeOnZ0HoSea2dSjUmPJ8qp4QDgRU8QrHOLTvBV6wRlkI71scKl0VcMWoKALNEKjX4Ga0jTNpdkH9TBFQBDoiwASh8oXzVu8e47qoeCmVREeYQ3uAKl6hHZpvO8aU4TRJCL3rXeCIKam78Vso9TdFQBHwiADpDhiPpOIjAojtqly+ZJWhnUCZoNTYGNYDXb59HBGnl9KRcwq3XWPzWY0Jpg57VL5IzlcDV4yKItAUAbo8bOJMml5MP7yBACpHVK5eRQyPBTnmjYuE4xfOIdWJ8XB0Jia9oMWL5KnGJrgeHhBhrU/p8h3Vx0FHLgojx2BKxHmllixB8UZvfn2xeGFnpeIjAlhUuRDFgU+M9BzVSS0r5ePT0bgUFS8kttiSY/renx4uyOe8ZlnWplmzLIM2yDUGudGpopYu4ysR5NUMorafiatx3XqN8WqLUri/VMUr3ONzo3cJ7G4yt631zNtSQ3B96eyZG9eJ/C/YIVoVlfXxxpkCXj5/NhbWDCkrNa7F1H18PPRS8wggFimJMInFklq6zCSHhxd/PDB/s4auzB8WShdBYmxXmqz16mqM7DOjildUhg4vW4a8Lam0px7XyxW4GuOzsFJR0HgTT49Ah4Ox47Zxd3S4apy+JmeSVyoXuX9YiizX1ljAR9Ln1MpVvt1LnWDGAFBuHOu0dtkIvR9QZlNjS+H90OXbBsIwnKMjF4ZR6KIPNC/ntm6Hif7WHWTb0xFjEqf4DO4Wa1NTbW9Zv+wegRpS2rWeZ3u8mEGWHB1tf9Dib6EglE6eBEfa7OJv9G9LBGrjqGtoU1Dasr2gTiONROnkCavL002b2bDR6lw9KTwIqOIVnrFo3xPsdIRSwsK8zJiC8rmzsYhJEpAsdr1k/k8tW94e426/xY6VE2cN8VGRlwp23yXvPG+pkVGrMlaRxCvJjBaPWS28USYuYKMQ9VhAqYBx9nTfh07iKmOQrFCDMi5UEhaIkjg1s2qNxZl6SpgQUMUrTKPRpi90MWbXb0SMl0eLF65J03b1CkoH4eegSiIF3GA19EtEWbFQAP1q34/rcEEVa6jFfTA4Opkb8qMbsb5GBUXqSWIcaaFrzEdLE12QiaGCd0jguo2Dq5Fxt+XTp7zfP86gxYvrgEq0EVDFKyrjR4vXyEgjKBXxXp4EExZ3WFHfeTMDz8Y60wqrBj2HjSWjbmrISoo68SgVL7mPVgC1+VzingYkxoTWvSQUTRuhW5yZxVEVUc4t6WiSheGmVtFUoQCl3RJPKC1RzhRlrVnyd9Wm7cIlkvkhSbKK6vOk/W4goIpXxJ6E9IqVQi3hpdtUuCSLhjvGCAvTr6tQFnwRKLLppUs9JyuwbWY1shpA1PmvOPlXJ5TjrdPzlITiJbXxOh3Y5HtyNdG1FFWpgji1Qmu5hbDGbKpZ9iI3jpZKew3UJ3TfRlWoiFtXEgFuyeERw7AJlWgjoIpXxMYvs2aN4YTmSaBwVS5eiLzFizFVthYvZgIlF7oaoXilliAzKO3RekjgSSdBPCMeb1KbmjBVy4xXcTV6fQ49PbThOZjKQyJjZ6EpnTmFLNzo8qTVpiZNFe5SG2FCUDPckkP5pp9304ZYaSMcW8n+WyuysCCmV60Wd2M3WOkx4UVAFa/wjk3TnqVXrPK8+xaLl2VdsKad6NeHjEWyiEdid5mV1iwzTeg5vO6+0QfGzNVmsfOOMBVDFbvvKjLFbCRJqgDwMQ2CpFCui7E1NlI+d0bIMm2fW5s2/TyHinn5wjmrS5KrS0ifF51NPOm+tRG66oyP8WY2fejlHL5vtvFdabxvGt/VC/rhOVcVr/CMRVc9yWzY5H0RoMWLMV5RLw2DCbdesivBQiLHZrtvum49WxDnRqpy6QKUrwi7kRC7U7ls50ayiIzr6vkO40GpkTFsduwsXtUrV0S5jeq7Vx0ft3aNMYayKUM9rM02SaJ8Nmgt4oYhkjK3YSsdP2rV/QRi41IgTlWJPgKqeEVsDDOrYWpGSrFnwUtf/AYUCLbEfZ4b9P8E7harlizrdCsym2qxkGIiYZmdVz5/LrJ4Sg1PxO/YBvkaLqqW7rfFYxD2v9Mr7C1evLfKxfPW7rp+YiMxgIxRs1R0GBuXWnprPFL2ttsaBKAWNydcXrR6RVC4+S31QMvBOSy7bkME71y7vBgBVbwWIxLyvxkfkYapPpHPe+4p3WPMDIyq1MGLZOvao5LAOK/FwtIb1hYvZCdFNdC3cvmiqbBIr6XrNgXXbTM30mJ8Y/E3XNG8V9syN8woJq1E1IRB4BIIbvOMIL6L71XTTSLqzQoR9MKYyy7BYcycbVxil00EdhgTnMqnvrG6PjPaM6tWIVxizOp8PSlcCKjiFa7x6NwbLALpNdgxWryAJXDHRNo1RreHbUwSJq5mcSXp5cgShTJrIyRRZdZXFKVy4QLi1CyVAWRX0YXE4OlBEcZW2sa08TmxJczsJ77sd8lSURAKDsZx0a3YRCQ7Dxl6XoXWtzJqz9oG/Httz8/j6SZlUo6NZGDpym7cLHUabc7Xc8KFgCpe4RqPrnrDEibN3GadTi4e/qoRTB3RgHCm5levwkrjURLZnCiqiSZZeCw8Tr4hG6ELiTFSUbR6lRGfZmuFkUXVUlm1wTkM52SQTZZetsKqK9XrVxvKgmUGqVWjPZ7EZ5rWJVvqgxRiJ0nX0krScPFb0SIwoxgu/vLFi60uHcrPOXdJaAL5/yyEcz6VL5V4IKCKVwTHkcqCjeLFGAPuFqMY50VLHWO8bGKS0itXCl4JWGoWCyf/NNxIpokbcvGxi//m4sSstUqEFlTeA7NcWZ/R1mVDy08z6+FifOL0N63MTOW34p+qQlnAc0KLc1SEsUiSkGPJQcZwiHYWQlqaaUW0kdKZ08gMRB3MCGU3Fo8dFeuhDZluo0zQKiiyGlhv87yE8RxVvMI4Kh36xEw8ia+xcPUUjx225pHp0K1Av+YiIK4xCxLYzNr1WASa776ZeSV4ei2CPHe3pZPHra0CgQLW5uKSpMB4P8sgZS6qybHBijXhPWfWwtJs4eLnUFRgpSmdPBaZzOLZQ59Lfdc2j1Hbr0TxIk9eC2HCAt87G6kgVmr26y+taS5s2uzlHG4aZw+jv9j02khmTum3JfG1aVPPCRYBVbyCxTeQqzNInLvFdJuJrVXDxaNHpGSFbVB1q+sG/Xnx6GHriZZWrXbuxDQsiHR92EjpxDGxDNgG/du02es5pWN4Bq5ZxnehcVp+bJ69Xvvd7/O5AGY3b7HqBl12tHpUe8DdqmGLk2hJKvIZgXJuI5yfqKS2U6xoDZPvLWrPsk+MP5v56INIkEJzc1Y6fgzlucZt4DS5O+5EmaB1VufqSeFEQBWvcI5Lx15lt27DIrC143GLD6icQ2ZNBGkQSqdOWnNOZde1tngRn9zW7SZtObFJsC8CZiuW9ewWj4+Lv8twI9nWaGT/yCXUjIzWRd/72QapRzKrb7PuAt+7mU8+sj7f1YnFI183gtctrMvsY3Yb3qcuytqkV67Cu+d9DmMbrMQx+8Uh/Ax/rNfUO2/KnMt+20h205aGm9vmZD0nlAio4hXKYencqczqNXgZ7WIkGGRfOnG8cyMhOYK77zIUxrpFvAknd8aTJNtwdTF2IoPjrNnJkflV/iYaeNYQlzb79Vf2gfVwudFSQVqTQRM+S9kt21Cs3o51ne7y6Y/ebyS4hBi8iVde7CkLM0vXfhcuWYZL9GLJYfD/+Iu/DS+SSASY/eoLQ2s9Sy/ZSP7uewWjZvGpNtfTc8KBgCpe4RgHz71gOjbdjTa8LtzRznz2sbUrwXNnezxh+t23G+48Cz6hoV17YaGBG7FFWrt0DUH3aSqycCXZCGN3Zg9/Hf5gX5Lo0prBZABLa0YOrrb0EgT5tsPTBsQInMPFL7thoxl+4IBdb4F5+fx5M/XWG9b8aXYNd3cWXYwzn36MIHAErltsctgK3YxDd+40VFI7SWbVGjMEN1ozfr1O5/J7KjNFKDa0KIWubireNTLsj//un8Q6ZxuKwPlLrIcD+L518wxE9RhVvCI6clwEmN2Y2+LdVE/32OyXh8zs55+G++6xUFFRYEKATTYjby53+x1dZeBxQc3BfWsjLHzLxSr0VkQsBlRiGVxvK4w3GeSyJYxNyu2AsmCR2ELMGecz9d7bpoQqEqEqI0RFAZx04y8/31DM8beN0CLITQwpXDoJg8W52bEJmZBrw6LEOLSJl1+Q+SxMHIXEcuKVF8TaZUVanQBfI2IpudFpF5/aCWP9PpwIqOIVznHpqleMN8ltu72rYxcfxHiTacSbFC3rhi2+nu9/Y1KtYpGaOPgq3B4XvC9SZBuHpSuLIN9m/F2L+0v3GQkKbSyIvFYZbo/pj94zNUtLweL++P13o1D6OcmuoqLoWbDjTkLpEIxARjuoQiZ2CbKHgmFDLUGrUhl0CHTnkQcuLMpXdXLSzHz8oViQeqFpKNz7gCeqG7r5C3Cn2QqVGs5hE394pRGOEAKKiSq4uhjLN/nHgw3Cagslloo9seS8ZKvk22Kq5wWPgCpewWMcWAsppPRnYKlJIe7GqwhBImKnpt44iB0uLCAWk4PXNr0cT+VgGgvBDGJiamSH99g/TlZDO/eAdmNpV2zPLCnEBdXGgsj7IrHrzKHPTBHxU6ETYEe3zNTbbzbGGkqtZ4Eim6cLCcpsIjU4jPW34MTKEcBg+MDDjTg3CxcQlYWpt/9opj94D1mOcPt6fLZv6VOPH1BRmD30qZl8/dWGu9ymP+Kuv80M3bULpZW6V8wZL5e7cxesO2usFFm5dVjGZ+EinYbLsfQN3KR9LFxPN/7Mp1C6gGUVJcWsXIzAkvQ3hX0H1NrV47Md1tNV8QrryHTTL7obMWHl99zdzdG3HMNJYvqTD830h7DUkNPJZsK95aq9f8CFiSnYjI8Q64zXftE6ky+YkQMPeQqYp2mfypoBrjbCDKuJV19qlBHy2mebBrs8hwH1dIPSKlAvFbs8a8FhwJOKaeH+/QOZzbgACfmVrh8GPZNawqpQOJ4NWpU4HlR4xPXbp+eFZMqzX3xmxl/4XcNVbtkPed8eeQwWGtSR9fD+cIPEGoQjjz5uXTOVgyJ4vvqimXjtJVM8cbQvpdEYDkFL1/iLvzNFxHzaChNXqMBm12+wjn+zbVvPc4OAKl5ucA6sFVq9xN2IwrM2wlIW13/9S8QiHLE2i9u02+qcerXSULqgwNgW6BVSVMZHMBYHNQW7FVrHctuQCm9ZGoaEpIxHY/C0VAewXMS67W9Xx8G6Rdb08Zd+b2qM7bKxdomCD6X09h0Dmc14C850YyNrb8kzzzWIjC2sXrwmi9Zfw7tHyxfjLq3G5pbOdfnBnPI3CyvtxGsvQ+k61uWJTQ6D8sQA8OGHHmmbPdzkTPmIiuzI4082LPcelLbF16PyNQX33vjzv4Xi8yU2GSU3m0liic3NNHjFaOkqw+pmLYjtYojEyKNPDLZl2RrAaJyY+g+QaHRVe9kMAWYEcdfNOIcqikh7tlpx0sAENYNA+yxqgTF42DbLqFn/vH42+9kn5vpv/lF24Z7vZa4x7rrHnnra5BCz5TX7jiV96/WaxLp47TuP5+RPuo7sxi19x5L9YSwfXYykMTCVCj/yLFQyxr7/Q3HDerFmeG4oQick6HKEi59B8tWrqAJgGVtEt5hkmiKekRQxKcsKCl6h4zs/+cYfzMRLz4Pc86j3eWNBg1QURh/9jsnv3mvnLqSFGkSqiUzalE9907ByL7i+118rcPGRYJXleaSwNBTDIIUWy2v/8PewdoOGA++b7bzFPpIiaOShRxuZs3jGVOKJgCpeUR9XuoFg7UrCssPdq4HFyLPMKV9lZOYl83lRGNrxXnm+fpcnzEDpmvjDy404qUq5y7NuPoxKaA7Eskue+3FXmVU3nw09DTiyDiFjy6SuGrDxLLQynf5GspIkxgzKcT+khD5wBz715kFTtwmoZ6exIDLjc9lP/1nDFWRp3enH/QfeJhbGJBIN6Ban5dhWGGBfQdFyZsaS5oOZfqLgBoE1nmc+F9f/6R+EhoHF0m2pRXi/CcwXecRojT37J7B2dc5kbIkR7pUUFHSJS/F2y02CXB/3WJuZkSSG2a+/kI1khkHqfsYm4h1n5iJj9a79978FX9ehBleXjUV5HhRY+4Zuv9OMPfMs4uSG5z/VnzFEQBWvGAwqJ2kGqbIeGCcDW5cFYxTmM63ownRVCJmB34x3mXr9NSmtYVtDkEOZAUs9zfS22Z60ZNBVyV1rY9dspwASy+qVS7KAkijSNeEoF3G6PGckgNteKSA1wCjcQORb8mo9jMGr1fEWUlC8uMhTWbAlyWQjtJgxi5dEwbRA0SLF9y9JWgYfFDDGStKyNoF3jO8Zax1KUg0UvV6EVR9Gn/w+lPNNvVxGzuWmiRtIWqxEkbXZ9Mz3AgoQ3X+8Dis1UKHj/VI5TBYK2KzaWZMYI1k+exbu4Xfhvn/ezCJGlkW72VYvli52m3MWY92GmKnuw5jPQ6E/w4eAKl7hGxPvPcJLmshlZUfHCaaOgFkr4U4RGU6crMRtWasihiU41yNJD1nDjC6P6Xfekp14LxlJCQY9g3BwFIpXL4pOw420XBaqGtLsrSwCwFKKUQNLLqqc7FNjS6yGxctJ4urEospUdgb6Sr09ywWMynx+1x4z8th3PCUpeOlv1I9lcDhdsbLAg/bE1p0rOEAJYgYvNz9UPkg7UYEbk/FfHFfZFHQZs8hkmSqUwSLeL/L1sa4hlQVaxXldPxSFDIK/hw88InQQfoUnzDPeyxxEot9ehZjCFSiYoswQlTCWG6KSzKQTjhc3WqKILVZ28N6IQox3mFbC2S8+RyLS+8DyPRBQf9JgpGd4Ry9Wrrn74wZneP9DpnDfAz3NXb3Cpee7QSBY57ebe9BWgADdjYV775fJYQaTrgTrWiJTYVwQJivuvjlJcVfLordSUsdyp7iwK9w1Vi5dkkK8pGDgwiAEqZYKwvy1mQWU37VbXKXzn1n9hAWR6e2F+/ZhQb3WCPK3uRAmfQYtM9C+gsk7f9duk1m/vlHvb/Ekb3P9BedwgeB40arBeD3+FBqOBcd4+hXjnN20GZmM+ySWydO5A3YwiYz57tHqJe7+XhZiLvawdtHqxX9S8gqLMstekWKAigmJRyUUYPEzxHOxmaF1SyyusKAxQaWMUkWkO7Flo282nKSwIc9U4e57ZFPR7Bibz7hBIa+XbFrQfyqPfggVTbr/+Y9s92mMGWP0SH1BizStbQngyVALWpskm9o0FC/WYSU1BOO3KrBi97I5bHYvCWQxcoPDGDkXm7NmfdDP3CKgipdbvINrjZMGLD7D+x6U3TLrg/WyE6vDfcIJiha0oZ27ZWKgYsNAWrpAOPl7EVkQcE2xDGACYwA6d49+TaxkU+fkRWZ1v6Rw/wHJ9qxid0w8bIU1+qZofQCe+b33oJ8oA8LakHBTyQJqqcySFFUWWCwMVJBZBmoarOh0ffXq9iBxIxeCoR07bW97oM7L3XGXGYZlqgYLCAPu/RIqTpLdO39BPCtUFvjsJJABt1CYFCLuNSor85sYbCJE8Kz4JYyDzO++W5RN4d/y68Jz1+EcQ+WL1ubp998RJczPJkSpw8ayGbFKkkoY/pOyWn422upaGM+h7XeY/D33I0xiXauj9POYIaCKV8wGlPwvs7B2cLKmktOrcJc8A54v/sttvx0L8V0ow3MnyEZRFkQykRAPBWvb4mBgLgKmUjWkh+AOnhYfZizR/cX+WbtDm9wQFwJyTAlrNiwCfomkyIMok5ajWSiKVi7Huc6IRersGbFKTb35hinsfxB43iHWL8YJMYg9kSaObV5JWjSQqVUnrrBsMCaIcWji9gCmPVm4FoCWQEFxWnDye+/ta4brgi6F/tfkEDCDssDNztVf/LcGdUcQvcb1WXaI/7oSHxUuaQ+uVZb4GX5gPxSFDV11weYgtjHCbETMI5N4X/y01rXrT41k0q4Em2UqrqPf/R6C6u9o/+676pO24wSBRB3ipCVtxBkClcuXhZuLGW03dr4+tE4Fh1YWmuJpns+sQ31DuKMkEB8WkoVKA3felctwc8C6VTp2FD/PigLmQzduvgT6Qovc0h/9FArhjpu/8+kvkksyVZyWK7+FWY+sPsC0dxK40v3RSiQmDlhSqS5BiSW+EqvT6gSbz4Fn/p77zNjTzwpvl80lBvkcWlOm33/XXPn5f+1JUQ8lhnQ/Q9la/q/+rbihXVCLcN649ou/RRWLD+KFJy2XIHle+e/+fUPpwmZHZXAQUMUrjmONXTGzlliklYuAb4JF+YYih4lDJl66MuDyuDVLCNYZ9MNU4f4gxQV/91vHR3+orCz/i5+JJc6r+7NbXJgpOglCVzJS9xI717Q94giLobDlp/D7IvfR4nOIJS2NUhMSgcF+Y0olcNk//xcNPAPmP1p8b7H4GxYaqdUHN/qVv/+5r5bdfuLDZ47B9Cv+9b81mdtQ/9QVRQoSfCqITyO33xQKvPtpKe8bnnjn6cpf/rO/kvhZoeHg3KoyMAi08WsMDAbxu1G82NktWxEcvh+xP7CO+BVzslBxgiIlihWCuinOzaaYqFj8mpaZ7OYtnhjqvQ54CjE1dGNWEbQ8CcsX3Ya+yTyOcB1SusGxngQjNxVZP4WLAaxtS5+D5RDPjhbmtQSXzOPMBsXzMgbr1yRoUvxw+Vv2xpfTErDM5OAKW/rsT9wqXew9NiWsjbnkh38iGxRmZtKqGFnB5iq7fpNZ8uyPhTaCXgR6EFQGCwGlk4jpeEua+1wQvPBRIVYrNoKJigz7S575kaRfp0nTAMUhMEF7zHaSdmDhI9Gs74qPl84vVIC9nNfqWFi2WCB86Y/+FIH/uyVJQxeDVmB18TmfFyyotGowXo6xeLVp0JL4PW5ddKXXQ1K4h+H795kxcnVt6ZNCTjyROMSNAZn9mXEofIURw/MG2SyqarAmLOMC9T3r9QmN5vmqeEVz3LrqNV/sNIhQ+XKzXp9YaiI2Wd1yo7TMwL1IklSSDQaudM11QEhqhzH5I3uSlj4pDeJ34PItNxv8B3QZMW6HC+vwAwcaHEJ4XlR6RGCBskBOOSaYVCehfNE9HAXBBoOK1gi4pYaZCLJlW5NwArc3wlhSoYBgWSW4dMnFRVyjIOTpYvLFyIOPmjxiUkXpikLHtY+BIKCKVyCwhueipCsgz5CUJUFR3noRE1VElS+a5UlpMfzgI0KSysB0lzvGhvI1Inhy0hduJD/djo4fG3ImSfYYMjdHHnm84a5VpcvXUWAAdXrl6kYVCCjsNdRmDHucEqlZmL08+vBjwmVHa2hYhJZn1rSk+5HvY71cEQUstHMa+ihEs9jUjKCIODkRxb0YFkC1H31BQIPr+wK740ahaNVAWnr9H/87yDU/Ec6nqOwU55Fi7bLM+o3YMT4iipez4N75Diz8iQWUmaPXfvULM/vloUbMScSsX+SCYtwO8cxjJ04CSZXgEODGh4zxU+BZm/7oAyknJe9gWDZBULipEFBJJB/eMJQubtgkgSY4WHq6MksAzXz6kdRLFJJYMt2H5T2EwkUyVCqJhQNgpN9zT+/Ezj2hpSeHCQFVvMI0Gg76wlIyk6jVxsK+oZr4W907XTYsxAtOqfkajH1Vuhb0k0G+4y/+XkqxUBEzcwHyCw4J369w1dL1RcqI0ce/K9xs4etkfHvEUj7FI4fNBDJkS6dPGZLzivuxXwoYFS7WSOTGZu16s+RHPzEsMh+Wd6zjk4BNUBV1UScPohj8O29CoUWJJbofqYD1A1O8X8QuvWwFNoiwJKPcltS8DTIGtSNIekDYEFDFK2wjEnR/MBlR6Zp45UWZqHzN0PO771wUwJC/9Mf/TAgbGVDv0rXY1e1g4icD//jLzwszfVfn9PEg1t5c8tyPkXV3v0k7dtX28bbD1TTeQRIMFw99bq4//1up+eeKIHQxEEkQDs/X46QFVOhM8N5FTmiFvn4Vm6D3zfS7b/ZU4L6Xe+cclYd1SzaJW7YGm/TTS0f13L4ioIpXX+HvT+N0e3BnOA0z/cRrL5sKGNXDJiyJQjoMBtDTXO9Xncgg7lPqwKFOIkkep958/eYSL0E0aHFN1oNjAd5R7MD9rLtp0RU9ZQ4BWpxZ8qmE948u61kUXuamKGihS3Hozp0or4UqFNtQhxUxXLQqR97dDOWL/HbkUWMxbNYsnf3048DfR+JJ8maW2Mptu6NRDkzwzAQ9lHr9iCKgildEB67XbkudP2RZlVA0loV9p97+YyNWCZNXPyWJjCUGoObvvk8CfCUlPwJEnlLCB3X6KlDASF5LPFk0ud8xJ4zlygJPlnjJbbu9QXFAPKNo1ejngxlg2ywaT2VB6piiOgILq/P30jcnpdRWr5mQVKhSy5dLdYQsit0zW5GWGbrA6GKMvMK1eGxgURQFDO8jcaywwPWZU6Z4DIXH4d6tQ9ntSeiu53sFsmHGwfG9ovJKTEl7ERk3bU8g6Mm9IKCKVy/oxeBcsX5hYiqeOA6F4Qtxl3Gicu2CzGzYJBMZS+eQEJVWGYmNiBjGVGhZ+JuLJxUwxvOUL5wzdWSzuRRSbmRRzim3ZTsUr23IBt2IRaHgsgvallcERGGAEsY4pZlpYWyn4kDOKhZtZn1GUpmwJiezI5vGMEEpyKAAOxVrupWZoZiCO1H+8XcEfDMjMFDeO6/3HeTx85gCP85rxJGxmTUouqxCURkHrvN4ttl0EjMW7yaZcpK0Fvx96VLgCjxXrEBiQk43M0GOY8yurYpXzAa0l9uh9at09Ii4PliXsHzxvCgRvtcDZCeZ9YMFIbNuvUxoQywYDeUgs2qV7CZ7uY+wnEt3B8lrucsmjxoxrVy5EkzBX+7C4U5MY+fN3Xd20xYESW8xaezIo6jAhmUM+90PvntUwoSEFcqCKF4IyK/h81aKF7muElC8kqinSsoVuunDnJ3oGmNaw2qw9tPNW4VVjNQwgmcbxYvWLMZE0kJIa5duYlyPWrzaU8UrXuPpy91wJ0iloXj8mJjombHHyV8mKPIQ8Z/XDD4qBjDDM3aLu0YpDk0zPfiCMmuhHEAJW1hk25cbCclFyLRdhguydLzh6qjAiiG7bE74MzOiiHm2MMJdyLicG5gCP+7C6fbgPy4UWvYnJA+AdkMRUAQUgQUIqOK1AAz99VYEhHj10kVxl5VhEWPtxwpcIYxJofLFHbn8QzHbmwoNJrHjRmwJsxIZ80BrDK1b2Y2bjLgV4UrkznHgBK4PujoYv0MLY+XCBeAJFwh23hJsDboBxvzcjCWUVgTwsjYlXUjEldilYR0UTOGmFcshYnZUFAFFQBFQBMKNgCpe4R6f0PaOyhZjl2YPfwX35GHESozfFEhO9wZZ5iVrivFa4LVRC0zr4aTli8rY7KFPEQR8RCoNzB8tgbyI1yKbuCiwwFOxnEdHfyoCioAiEC0EVPGK1nhpbxUBRUARUAQUAUUgwggkI9x37boioAgoAoqAIqAIKAKRQkAVr0gNl3ZWEVAEFAFFQBFQBKKMgCpeUR497bsioAgoAoqAIqAIRAoBVbwiNVzaWUVAEVAEFAFFQBGIMgKqeEV59LTvioAioAgoAoqAIhApBFTxitRwaWcVAUVAEVAEFAFFIMoIqOIV5dHTvisCioAioAgoAopApBD4/wFaJnuYp9F36wAAAABJRU5ErkJggg==;container=0;" parent="1" vertex="1">
          <mxGeometry x="366.55" y="322" width="56" height="38.07" as="geometry" />
        </mxCell>
      </root>
    </mxGraphModel>
  </diagram>
</mxfile>
